<svg xmlns="http://www.w3.org/2000/svg" fill="none" stroke-linecap="square" stroke-miterlimit="10" viewBox="0 0 800 600">
    <clipPath id="a">
        <path d="M0 0h800v600H0z"/>
    </clipPath>
    <g clip-path="url(#a)">
        <path fill="none" d="M0 0h800v600H0z"/>
        <path fill="#cfe2f3" fill-rule="evenodd" d="M561.688 37.26c0-20.578 16.682-37.26 37.26-37.26h149.038a37.26 37.26 0 0 1 37.26 37.26v458.582c0 20.578-16.681 37.26-37.26 37.26H598.948c-20.578 0-37.26-16.682-37.26-37.26z"/>
        <path stroke="#000" stroke-dasharray="4.0,3.0" stroke-linecap="butt" stroke-linejoin="round" d="M561.688 37.26c0-20.578 16.682-37.26 37.26-37.26h149.038a37.26 37.26 0 0 1 37.26 37.26v458.582c0 20.578-16.681 37.26-37.26 37.26H598.948c-20.578 0-37.26-16.682-37.26-37.26z"/>
        <path fill="#000" d="m600.496 37.833 5.125-13.36h1.907l5.468 13.36h-2.015l-1.547-4.047h-5.594l-1.469 4.047zm3.86-5.484h4.53l-1.405-3.703q-.625-1.688-.938-2.766-.265 1.281-.719 2.547zm12.2 5.484-3.688-9.672h1.735l2.078 5.797q.328.938.625 1.938.203-.766.61-1.828l2.14-5.907h1.687l-3.656 9.672zm12.953-1.187q-.922.765-1.766 1.094-.828.312-1.797.312-1.593 0-2.453-.781t-.86-1.985q0-.718.329-1.296.328-.594.844-.938.531-.36 1.187-.547.469-.125 1.453-.25 1.985-.234 2.922-.562.016-.344.016-.422 0-1-.469-1.422-.625-.547-1.875-.547-1.156 0-1.703.406t-.813 1.422l-1.609-.219q.219-1.015.719-1.64.5-.64 1.453-.985.953-.343 2.187-.343 1.25 0 2.016.297.781.28 1.14.734.376.437.516 1.11.078.421.078 1.515v2.187q0 2.282.11 2.891.11.594.406 1.156h-1.703q-.266-.515-.328-1.187m-.14-3.672q-.891.375-2.673.625-1.015.14-1.437.328t-.656.531q-.22.344-.22.782 0 .656.5 1.093.5.438 1.454.438.937 0 1.672-.406.75-.422 1.094-1.141.265-.563.265-1.64zm4.203-6.61v-1.89h1.64v1.89zm0 11.47V28.16h1.64v9.672zm4.098 0v-13.36h1.64v13.36zm10.504-1.188q-.922.765-1.765 1.094-.828.312-1.797.312-1.594 0-2.453-.781-.86-.781-.86-1.985 0-.718.328-1.296.329-.594.844-.938.531-.36 1.188-.547.468-.125 1.453-.25 1.984-.234 2.922-.562.015-.344.015-.422 0-1-.468-1.422-.625-.547-1.875-.547-1.157 0-1.704.406t-.812 1.422l-1.61-.219q.22-1.015.72-1.64.5-.64 1.452-.985.954-.343 2.188-.343 1.25 0 2.016.297.78.28 1.14.734.375.437.516 1.11.078.421.078 1.515v2.187q0 2.282.11 2.891.109.594.406 1.156h-1.704q-.265-.515-.328-1.187m-.14-3.672q-.891.375-2.672.625-1.016.14-1.438.328t-.656.531q-.219.344-.219.782 0 .656.5 1.093.5.438 1.453.438.938 0 1.672-.406.75-.422 1.094-1.141.266-.563.266-1.64zm5.703 4.86h-1.515v-13.36h1.64v4.766q1.047-1.297 2.657-1.297.89 0 1.687.359.797.36 1.313 1.016.515.64.797 1.562.296.922.296 1.969 0 2.484-1.234 3.844-1.219 1.359-2.953 1.359-1.703 0-2.688-1.437zm-.015-4.907q0 1.734.484 2.516.766 1.265 2.094 1.265 1.078 0 1.86-.937.78-.938.78-2.781 0-1.891-.75-2.797t-1.828-.907q-1.062 0-1.859.938-.781.937-.781 2.703m8.891-6.562v-1.891h1.64v1.89zm0 11.468v-9.672h1.64v9.672zm4.098 0v-13.36h1.64v13.36zm4.192-11.468v-1.891h1.64v1.89zm0 11.468v-9.672h1.64v9.672zm7.723-1.468.234 1.453q-.687.14-1.234.14-.89 0-1.39-.281-.485-.281-.688-.734-.203-.47-.203-1.938v-5.578h-1.204v-1.266h1.204v-2.39l1.625-.985v3.375h1.656v1.266h-1.656v5.672q0 .687.078.89.093.204.28.329.204.109.579.109.266 0 .719-.062m1.527 5.187-.188-1.531q.547.14.938.14.547 0 .875-.187.328-.172.547-.5.156-.25.5-1.219.047-.14.14-.406l-3.672-9.688h1.766l2.016 5.594q.39 1.078.703 2.25.281-1.125.672-2.203l2.078-5.64h1.64l-3.687 9.828q-.594 1.609-.922 2.203-.437.812-1 1.187t-1.344.375q-.484 0-1.062-.203m13.73-3.719v-1.64l6.844-8.547q.719-.922 1.375-1.594h-7.453v-1.578h9.578v1.578l-7.5 9.266-.813.937h8.532v1.578zm11.646-4.843q0-2.688 1.484-3.97 1.25-1.077 3.047-1.077 2 0 3.266 1.312 1.266 1.297 1.266 3.61 0 1.859-.563 2.937-.562 1.063-1.64 1.656-1.063.594-2.329.594-2.031 0-3.281-1.297-1.25-1.312-1.25-3.765m1.688 0q0 1.859.796 2.796.813.922 2.047.922 1.219 0 2.032-.922.812-.937.812-2.843 0-1.797-.812-2.72-.813-.921-2.032-.921-1.234 0-2.047.922-.796.906-.796 2.766m9.297 4.843v-9.672h1.469v1.375q1.062-1.593 3.078-1.593.875 0 1.61.312.734.313 1.093.828.375.5.516 1.203.093.454.093 1.594v5.953h-1.64v-5.89q0-1-.203-1.485-.188-.5-.672-.797-.485-.296-1.14-.296-1.048 0-1.813.671-.75.657-.75 2.516v5.281zm17-3.11 1.688.204q-.406 1.484-1.484 2.313-1.078.812-2.766.812-2.125 0-3.375-1.297-1.234-1.312-1.234-3.672 0-2.453 1.25-3.797 1.266-1.343 3.266-1.343 1.937 0 3.156 1.328 1.234 1.312 1.234 3.703v.437h-7.219q.094 1.594.907 2.454.812.843 2.015.843.907 0 1.547-.468.64-.485 1.016-1.516m-5.39-2.655h5.406q-.109-1.22-.625-1.828-.78-.954-2.03-.954-1.126 0-1.907.766-.766.75-.844 2.016m8.688 2.234 1.641-.219q.281 1.407.953 2.016.688.61 1.656.61 1.157 0 1.954-.798.796-.796.796-1.984 0-1.125-.734-1.86-.734-.734-1.875-.734-.469 0-1.156.172l.187-1.437q.157.015.266.015 1.047 0 1.875-.547.844-.546.844-1.671 0-.907-.61-1.5-.61-.594-1.578-.594-.953 0-1.594.61-.64.593-.812 1.796l-1.64-.297q.296-1.64 1.359-2.547 1.062-.906 2.656-.906 1.094 0 2 .469.922.469 1.406 1.281.5.813.5 1.719 0 .86-.469 1.578-.468.703-1.375 1.125 1.188.281 1.844 1.14.656.86.656 2.157 0 1.734-1.28 2.953-1.266 1.219-3.22 1.219-1.765 0-2.921-1.047-1.157-1.047-1.329-2.719"/>
        <path fill="#cfe2f3" fill-rule="evenodd" d="M305.436 44.473c0-20.578 16.682-37.26 37.26-37.26h149.038a37.26 37.26 0 0 1 37.26 37.26v451.369c0 20.578-16.681 37.26-37.26 37.26H342.696c-20.578 0-37.26-16.682-37.26-37.26z"/>
        <path stroke="#000" stroke-dasharray="4.0,3.0" stroke-linecap="butt" stroke-linejoin="round" d="M305.436 44.473c0-20.578 16.682-37.26 37.26-37.26h149.038a37.26 37.26 0 0 1 37.26 37.26v451.369c0 20.578-16.681 37.26-37.26 37.26H342.696c-20.578 0-37.26-16.682-37.26-37.26z"/>
        <path fill="#000" d="m344.244 45.046 5.125-13.36h1.907l5.468 13.36h-2.015l-1.547-4.047h-5.594l-1.469 4.047zm3.86-5.485h4.53l-1.405-3.703q-.625-1.687-.938-2.765-.265 1.281-.719 2.547zm12.2 5.485-3.688-9.672h1.735l2.078 5.797q.328.937.625 1.937.203-.765.61-1.828l2.14-5.906h1.687l-3.656 9.672zm12.953-1.188q-.922.766-1.766 1.094-.828.313-1.797.313-1.593 0-2.453-.782-.86-.78-.86-1.984 0-.719.329-1.297.328-.594.844-.937.531-.36 1.187-.547.469-.125 1.453-.25 1.985-.235 2.922-.563.016-.344.016-.422 0-1-.469-1.422-.625-.546-1.875-.546-1.156 0-1.703.406t-.812 1.422l-1.61-.219q.219-1.016.719-1.64.5-.641 1.453-.985t2.188-.344q1.25 0 2.015.297.781.281 1.14.734.376.438.516 1.11.079.422.079 1.515V41q0 2.281.109 2.89.11.594.406 1.157h-1.703q-.266-.516-.328-1.188m-.14-3.672q-.891.375-2.673.625-1.015.141-1.437.329-.422.187-.656.53-.22.345-.22.782 0 .656.5 1.094.5.437 1.454.437.938 0 1.672-.406.75-.422 1.094-1.14.265-.563.265-1.641zm4.203-6.609v-1.89h1.64v1.89zm0 11.469v-9.672h1.64v9.672zm4.098 0v-13.36h1.64v13.36zm10.504-1.188q-.922.766-1.765 1.094-.828.313-1.797.313-1.594 0-2.453-.782-.86-.78-.86-1.984 0-.719.328-1.297.329-.594.844-.937.531-.36 1.188-.547.468-.125 1.453-.25 1.984-.235 2.922-.563.015-.344.015-.422 0-1-.468-1.422-.625-.546-1.875-.546-1.157 0-1.704.406t-.812 1.422l-1.61-.219q.22-1.016.72-1.64.5-.641 1.452-.985.954-.344 2.188-.344 1.25 0 2.016.297.78.281 1.14.734.375.438.516 1.11.078.422.078 1.515V41q0 2.281.11 2.89.109.594.406 1.157h-1.704q-.265-.516-.328-1.188m-.14-3.672q-.891.375-2.672.625-1.016.141-1.438.329-.422.187-.656.53-.219.345-.219.782 0 .656.5 1.094.5.437 1.453.437.938 0 1.672-.406.75-.422 1.094-1.14.266-.563.266-1.641zm5.703 4.86h-1.515v-13.36h1.64v4.766q1.047-1.297 2.657-1.297.89 0 1.687.36.797.359 1.313 1.015.515.64.797 1.563.296.922.296 1.968 0 2.485-1.234 3.844-1.219 1.36-2.953 1.36-1.703 0-2.688-1.438zm-.015-4.906q0 1.734.484 2.515.766 1.266 2.094 1.266 1.078 0 1.86-.938.78-.937.78-2.78 0-1.892-.75-2.798t-1.828-.906q-1.062 0-1.859.937-.781.938-.781 2.704m8.891-6.563v-1.89h1.64v1.89zm0 11.469v-9.672h1.64v9.672zm4.098 0v-13.36h1.64v13.36zm4.192-11.469v-1.89h1.64v1.89zm0 11.469v-9.672h1.64v9.672zm7.723-1.469.234 1.453q-.687.14-1.234.14-.89 0-1.39-.28-.485-.282-.688-.735-.203-.469-.203-1.937V36.64h-1.204v-1.266h1.204v-2.39l1.625-.985v3.375h1.656v1.266h-1.656v5.671q0 .688.078.891.093.203.28.328.204.11.579.11.266 0 .719-.063m1.527 5.188-.188-1.532q.547.141.938.141.547 0 .875-.188.328-.171.547-.5.156-.25.5-1.218.047-.14.14-.407l-3.672-9.687h1.766l2.016 5.594q.39 1.078.703 2.25.281-1.125.672-2.203l2.078-5.641h1.64l-3.687 9.828q-.594 1.61-.922 2.203-.437.813-1 1.188t-1.344.375q-.484 0-1.062-.203m13.73-3.72v-1.64l6.844-8.547q.719-.922 1.375-1.593h-7.453v-1.579h9.578v1.579l-7.5 9.265-.813.938h8.532v1.578zm11.646-4.843q0-2.687 1.484-3.969 1.25-1.078 3.047-1.078 2 0 3.266 1.313 1.266 1.297 1.266 3.61 0 1.858-.563 2.937-.562 1.062-1.64 1.656-1.063.594-2.329.594-2.031 0-3.281-1.297-1.25-1.313-1.25-3.766m1.688 0q0 1.86.796 2.797.813.922 2.047.922 1.219 0 2.032-.922.812-.938.812-2.844 0-1.797-.812-2.719t-2.032-.921q-1.234 0-2.047.921-.796.907-.796 2.766m9.297 4.844v-9.672h1.469v1.375q1.062-1.594 3.078-1.594.875 0 1.61.313.734.312 1.093.828.375.5.516 1.203.093.453.093 1.594v5.953h-1.64v-5.89q0-1-.203-1.485-.188-.5-.672-.797t-1.14-.297q-1.048 0-1.813.672-.75.656-.75 2.516v5.28zm17-3.11 1.688.204q-.406 1.484-1.484 2.312-1.078.813-2.766.813-2.125 0-3.375-1.297-1.234-1.313-1.234-3.672 0-2.453 1.25-3.797 1.266-1.344 3.266-1.344 1.937 0 3.156 1.328 1.234 1.313 1.234 3.703v.438h-7.219q.094 1.594.907 2.453.812.844 2.015.844.907 0 1.547-.469.64-.484 1.016-1.516m-5.39-2.656h5.406q-.109-1.219-.625-1.828-.78-.953-2.03-.953-1.126 0-1.907.766-.766.75-.844 2.015m17.298 4.188v1.578h-8.828q-.016-.594.187-1.14.344-.907 1.078-1.782.75-.875 2.157-2.016 2.171-1.78 2.937-2.828t.766-1.969q0-.984-.703-1.64-.688-.672-1.813-.672-1.187 0-1.906.719-.703.703-.703 1.953l-1.688-.172q.172-1.89 1.297-2.875 1.14-.984 3.031-.984 1.922 0 3.047 1.062t1.125 2.64q0 .798-.328 1.579t-1.094 1.64q-.75.844-2.531 2.344-1.469 1.235-1.89 1.688-.422.437-.688.875z"/>
        <path fill="#cfe2f3" fill-rule="evenodd" d="M31.2 47.47c0-22.233 18.024-40.257 40.257-40.257h161.028a40.26 40.26 0 0 1 40.258 40.258v445.373c0 22.234-18.024 40.258-40.258 40.258H71.457c-22.233 0-40.258-18.024-40.258-40.258z"/>
        <path stroke="#000" stroke-dasharray="4.0,3.0" stroke-linecap="butt" stroke-linejoin="round" d="M31.2 47.47c0-22.233 18.024-40.257 40.257-40.257h161.028a40.26 40.26 0 0 1 40.258 40.258v445.373c0 22.234-18.024 40.258-40.258 40.258H71.457c-22.233 0-40.258-18.024-40.258-40.258z"/>
        <path fill="#000" d="m79 45.924 5.125-13.36h1.906l5.47 13.36h-2.016l-1.547-4.047h-5.594l-1.469 4.047zm3.86-5.485h4.53l-1.405-3.703q-.625-1.687-.938-2.765-.266 1.28-.719 2.547zm12.2 5.485-3.688-9.672h1.735l2.078 5.797q.328.937.625 1.937.203-.765.61-1.828l2.14-5.906h1.687l-3.656 9.672zm12.953-1.188q-.922.766-1.766 1.094-.828.313-1.797.313-1.593 0-2.453-.782-.86-.781-.86-1.984 0-.719.329-1.297.328-.594.844-.937.53-.36 1.187-.547.469-.125 1.453-.25 1.985-.235 2.922-.563.016-.344.016-.422 0-1-.469-1.422-.625-.546-1.875-.546-1.156 0-1.703.406t-.813 1.422L101.42 39q.219-1.015.719-1.64.5-.64 1.453-.984t2.187-.344q1.25 0 2.016.297.781.281 1.14.734.376.438.516 1.11.078.422.078 1.515v2.188q0 2.281.11 2.89.11.594.406 1.157h-1.703q-.266-.516-.328-1.188m-.14-3.672q-.891.375-2.673.625-1.015.141-1.437.329-.422.187-.656.53-.22.345-.22.782 0 .656.5 1.094.5.437 1.454.437.937 0 1.672-.406.75-.422 1.094-1.14.265-.563.265-1.641zm4.203-6.609v-1.89h1.64v1.89zm0 11.469v-9.672h1.64v9.672zm4.098 0v-13.36h1.64v13.36zm10.504-1.188q-.922.766-1.765 1.094-.829.313-1.797.313-1.594 0-2.453-.782-.86-.781-.86-1.984 0-.719.328-1.297.328-.594.844-.937.531-.36 1.188-.547.468-.125 1.453-.25 1.984-.235 2.922-.563.015-.344.015-.422 0-1-.469-1.422-.625-.546-1.875-.546-1.156 0-1.703.406t-.812 1.422l-1.61-.22q.22-1.015.72-1.64.5-.64 1.452-.984.953-.344 2.188-.344 1.25 0 2.015.297.782.281 1.141.734.375.438.516 1.11.078.422.078 1.515v2.188q0 2.281.11 2.89.109.594.405 1.157h-1.703q-.265-.516-.328-1.188m-.14-3.672q-.891.375-2.672.625-1.016.141-1.438.329-.422.187-.656.53-.219.345-.219.782 0 .656.5 1.094.5.437 1.453.437.938 0 1.672-.406.75-.422 1.094-1.14.266-.563.266-1.641zm5.703 4.86h-1.515v-13.36h1.64v4.766q1.047-1.297 2.657-1.297.89 0 1.687.36.797.359 1.313 1.015.515.64.797 1.563.296.922.296 1.968 0 2.485-1.234 3.844-1.219 1.36-2.953 1.36-1.703 0-2.688-1.438zm-.015-4.906q0 1.734.484 2.515.766 1.266 2.094 1.266 1.078 0 1.86-.938.78-.937.78-2.781 0-1.89-.75-2.797-.75-.906-1.828-.906-1.062 0-1.859.937-.781.938-.781 2.704m8.891-6.563v-1.89h1.64v1.89zm0 11.469v-9.672h1.64v9.672zm4.098 0v-13.36h1.64v13.36zm4.192-11.469v-1.89h1.64v1.89zm0 11.469v-9.672h1.64v9.672zm7.723-1.469.234 1.453q-.687.14-1.234.14-.89 0-1.39-.28-.485-.282-.688-.735-.204-.469-.204-1.937v-5.578h-1.203v-1.266h1.203v-2.39l1.625-.985v3.375h1.657v1.266h-1.657v5.671q0 .688.079.891.093.203.28.328.204.11.579.11.266 0 .719-.063m1.527 5.188-.188-1.532q.547.14.938.14.547 0 .875-.187.328-.171.547-.5.156-.25.5-1.218.047-.141.14-.407l-3.672-9.687h1.766l2.016 5.594q.39 1.078.703 2.25.281-1.125.672-2.203l2.078-5.641h1.64l-3.687 9.828q-.594 1.61-.922 2.203-.437.813-1 1.188t-1.344.375q-.484 0-1.062-.203m13.73-3.72v-1.64l6.844-8.547q.718-.922 1.375-1.593h-7.453v-1.579h9.578v1.579l-7.5 9.265-.813.938h8.531v1.578zm11.646-4.843q0-2.687 1.484-3.969 1.25-1.078 3.047-1.078 2 0 3.266 1.313 1.265 1.297 1.265 3.609 0 1.86-.562 2.938-.563 1.062-1.64 1.656-1.063.594-2.329.594-2.031 0-3.281-1.297-1.25-1.313-1.25-3.766m1.687 0q0 1.86.797 2.797.813.922 2.047.922 1.219 0 2.031-.922.813-.938.813-2.844 0-1.797-.813-2.719t-2.03-.921q-1.235 0-2.048.921-.797.907-.797 2.766m9.298 4.844v-9.672h1.469v1.375q1.062-1.594 3.078-1.594.875 0 1.61.313.734.312 1.093.828.375.5.516 1.203.093.453.093 1.594v5.953h-1.64v-5.89q0-1-.203-1.485-.188-.5-.672-.797t-1.14-.297q-1.048 0-1.813.672-.75.656-.75 2.516v5.28zm17-3.11 1.688.204q-.406 1.484-1.484 2.312-1.078.813-2.766.813-2.125 0-3.375-1.297-1.234-1.313-1.234-3.672 0-2.453 1.25-3.797 1.265-1.344 3.265-1.344 1.938 0 3.157 1.328 1.234 1.313 1.234 3.703v.438h-7.219q.094 1.594.907 2.453.812.844 2.015.844.906 0 1.547-.469.64-.484 1.016-1.516m-5.39-2.656h5.406q-.109-1.219-.625-1.828-.78-.953-2.03-.953-1.126 0-1.907.766-.766.75-.844 2.015m14.86 5.766h-1.64V35.47q-.594.562-1.563 1.14-.953.563-1.719.844v-1.594q1.375-.64 2.407-1.562 1.03-.922 1.453-1.781h1.062z"/>
        <path fill="#d9d2e9" fill-rule="evenodd" d="M59.69 118.523c0-28.513 23.115-51.628 51.629-51.628h610.98a51.63 51.63 0 0 1 51.628 51.628V325.03c0 28.514-23.115 51.629-51.629 51.629h-610.98c-28.513 0-51.628-23.115-51.628-51.629z"/>
        <path stroke="#000" stroke-linecap="butt" stroke-linejoin="round" d="M59.69 118.523c0-28.513 23.115-51.628 51.629-51.628h610.98a51.63 51.63 0 0 1 51.628 51.628V325.03c0 28.514-23.115 51.629-51.629 51.629h-610.98c-28.513 0-51.628-23.115-51.628-51.629z"/>
        <path fill="#000" d="m318.381 343.77 1.766.453q-.563 2.172-2 3.328-1.438 1.14-3.531 1.14-2.157 0-3.516-.874-1.344-.89-2.063-2.547-.703-1.672-.703-3.594 0-2.078.797-3.625.797-1.562 2.266-2.36 1.484-.812 3.25-.812 2 0 3.36 1.016 1.374 1.015 1.905 2.875l-1.734.406q-.469-1.453-1.36-2.11-.874-.671-2.202-.671-1.547 0-2.579.734-1.03.735-1.453 1.985-.422 1.234-.422 2.562 0 1.703.5 2.969t1.547 1.906q1.047.625 2.266.625 1.484 0 2.516-.86 1.03-.859 1.39-2.546m3.13-.156q0-2.688 1.484-3.97 1.25-1.077 3.047-1.077 2 0 3.265 1.312 1.266 1.297 1.266 3.61 0 1.859-.563 2.937-.562 1.063-1.64 1.656-1.063.594-2.328.594-2.032 0-3.282-1.297-1.25-1.312-1.25-3.765m1.687 0q0 1.859.797 2.796.812.922 2.047.922 1.218 0 2.03-.922.813-.937.813-2.843 0-1.797-.812-2.719t-2.031-.922q-1.235 0-2.047.922-.797.906-.797 2.766m15.626 4.843v-1.422q-1.125 1.641-3.063 1.641-.86 0-1.61-.328-.734-.328-1.093-.828-.36-.5-.5-1.219-.11-.469-.11-1.531v-5.985h1.641v5.36q0 1.281.11 1.734.156.64.656 1.016.5.375 1.234.375.735 0 1.375-.375.656-.39.922-1.031.266-.657.266-1.891v-5.188h1.64v9.672zm10.36-3.547 1.61.22q-.267 1.655-1.36 2.609-1.078.937-2.672.937-1.985 0-3.188-1.297t-1.203-3.719q0-1.578.516-2.75.515-1.171 1.578-1.75 1.062-.593 2.312-.593 1.579 0 2.579.797 1 .796 1.28 2.265l-1.593.235q-.234-.97-.812-1.454-.579-.5-1.391-.5-1.234 0-2.016.891-.78.89-.78 2.813 0 1.953.75 2.843.75.875 1.952.875.969 0 1.61-.593.656-.594.828-1.829m3.015 3.547v-13.359h1.641v4.797q1.14-1.328 2.89-1.328 1.079 0 1.86.422.797.421 1.14 1.171.344.75.344 2.172v6.125h-1.64v-6.125q0-1.234-.532-1.797-.53-.562-1.515-.562-.719 0-1.36.39-.64.376-.921 1.016-.266.64-.266 1.781v5.297zm11.876 0h-1.516v-13.359h1.641v4.766q1.047-1.297 2.656-1.297.891 0 1.688.36.797.358 1.312 1.015.516.64.797 1.562.297.922.297 1.969 0 2.484-1.234 3.844-1.219 1.36-2.953 1.36-1.704 0-2.688-1.438zm-.016-4.906q0 1.734.485 2.516.765 1.265 2.094 1.265 1.078 0 1.859-.937t.781-2.781q0-1.891-.75-2.797t-1.828-.907q-1.062 0-1.86.938-.78.937-.78 2.703m15.204 3.719q-.922.765-1.765 1.094-.828.312-1.797.312-1.594 0-2.453-.781-.86-.781-.86-1.985 0-.718.328-1.296.329-.594.844-.938.531-.36 1.188-.547.468-.125 1.453-.25 1.984-.234 2.922-.562.015-.344.015-.422 0-1-.468-1.422-.625-.547-1.875-.547-1.157 0-1.704.406t-.812 1.422l-1.61-.219q.22-1.015.72-1.64.5-.64 1.452-.985.954-.343 2.188-.343 1.25 0 2.016.297.78.28 1.14.734.375.437.516 1.11.078.421.078 1.515v2.187q0 2.282.11 2.891.109.594.406 1.156h-1.704q-.265-.515-.328-1.187m-.14-3.672q-.891.375-2.672.625-1.016.14-1.438.328t-.656.531q-.219.344-.219.782 0 .656.5 1.093.5.438 1.453.438.938 0 1.672-.406.75-.422 1.094-1.141.266-.563.266-1.64zm3.547 1.969 1.625-.25q.125.968.75 1.5.625.515 1.75.515t1.672-.453q.547-.469.547-1.094 0-.546-.484-.875-.329-.218-1.672-.546-1.813-.47-2.516-.797-.687-.328-1.047-.907-.36-.593-.36-1.312 0-.64.298-1.188.297-.562.812-.921.375-.282 1.031-.47.672-.202 1.422-.202 1.141 0 2 .328.86.328 1.266.89.422.563.578 1.5l-1.61.22q-.109-.75-.64-1.173-.516-.422-1.469-.422-1.14 0-1.625.375-.468.375-.468.875 0 .313.187.579.203.265.64.437.235.094 1.438.422 1.75.453 2.438.75.687.297 1.078.86.39.562.39 1.406 0 .828-.484 1.546-.469.72-1.375 1.125-.906.391-2.047.391-1.875 0-2.875-.781-.984-.781-1.25-2.328m16.61-.219 1.687.203q-.406 1.484-1.484 2.313-1.078.812-2.766.812-2.125 0-3.375-1.297-1.234-1.312-1.234-3.672 0-2.453 1.25-3.797 1.265-1.343 3.265-1.343 1.938 0 3.157 1.328 1.234 1.312 1.234 3.703v.437h-7.219q.094 1.594.906 2.454.813.843 2.016.843.906 0 1.547-.468.64-.485 1.016-1.516m-5.391-2.656h5.406q-.11-1.219-.625-1.828-.781-.954-2.031-.954-1.125 0-1.906.766-.766.75-.844 2.016m13.934 1.468 1.656-.14q.125 1 .547 1.64.438.641 1.344 1.047.922.391 2.062.391 1 0 1.782-.297.78-.297 1.156-.812.375-.532.375-1.157t-.375-1.093q-.36-.47-1.188-.797-.546-.203-2.39-.64-1.828-.454-2.563-.845-.968-.5-1.437-1.234-.469-.75-.469-1.672 0-1 .578-1.875.578-.89 1.672-1.344 1.11-.453 2.453-.453 1.485 0 2.61.485 1.14.468 1.75 1.406.609.922.656 2.094l-1.688.125q-.14-1.266-.937-1.907-.781-.656-2.313-.656-1.61 0-2.343.594-.735.594-.735 1.422 0 .718.531 1.172.5.468 2.657.968 2.156.485 2.953.844 1.172.531 1.719 1.36.562.828.562 1.906 0 1.062-.61 2.015-.609.938-1.75 1.47-1.14.515-2.577.515-1.813 0-3.047-.532-1.22-.53-1.922-1.593-.688-1.063-.719-2.407m19.46 1.188 1.687.203q-.407 1.484-1.485 2.313-1.078.812-2.765.812-2.125 0-3.375-1.297-1.235-1.312-1.235-3.672 0-2.453 1.25-3.797 1.266-1.343 3.266-1.343 1.937 0 3.156 1.328 1.235 1.312 1.235 3.703v.437h-7.22q.095 1.594.907 2.454.813.843 2.016.843.906 0 1.547-.468.64-.485 1.015-1.516m-5.391-2.656h5.406q-.11-1.219-.625-1.828-.781-.954-2.031-.954-1.125 0-1.907.766-.765.75-.843 2.016m9.125 5.765v-9.672h1.47v1.47q.562-1.032 1.03-1.36.485-.328 1.063-.328.828 0 1.687.531l-.562 1.516q-.61-.36-1.203-.36-.547 0-.97.328-.42.328-.608.891-.282.875-.282 1.922v5.062zm8.916 0-3.687-9.672h1.734l2.078 5.797q.328.938.625 1.938.203-.766.61-1.828l2.14-5.907h1.688l-3.657 9.672zm13.266-3.109 1.687.203q-.406 1.484-1.484 2.313-1.078.812-2.766.812-2.125 0-3.375-1.297-1.234-1.312-1.234-3.672 0-2.453 1.25-3.797 1.265-1.343 3.265-1.343 1.938 0 3.157 1.328 1.234 1.312 1.234 3.703v.437h-7.219q.094 1.594.907 2.454.812.843 2.015.843.906 0 1.547-.468.64-.485 1.016-1.516m-5.39-2.656h5.405q-.109-1.219-.625-1.828-.78-.954-2.03-.954-1.126 0-1.907.766-.766.75-.844 2.016m9.125 5.765v-9.672h1.469v1.47q.562-1.032 1.03-1.36.485-.328 1.063-.328.828 0 1.688.531l-.563 1.516q-.609-.36-1.203-.36-.547 0-.969.328t-.609.891q-.281.875-.281 1.922v5.062zm21.146-4.687 1.765.453q-.562 2.172-2 3.328-1.437 1.14-3.53 1.14-2.157 0-3.516-.874-1.344-.89-2.063-2.547-.703-1.672-.703-3.594 0-2.078.797-3.625.797-1.562 2.265-2.36 1.485-.812 3.25-.812 2 0 3.36 1.016 1.375 1.015 1.906 2.875l-1.734.406q-.47-1.453-1.36-2.11-.875-.671-2.203-.671-1.547 0-2.578.734-1.031.735-1.453 1.985-.422 1.234-.422 2.562 0 1.703.5 2.969t1.547 1.906q1.047.625 2.266.625 1.484 0 2.515-.86 1.031-.859 1.39-2.546m3.691 4.687v-13.359h1.641v13.36zm10.52 0v-1.422q-1.125 1.641-3.062 1.641-.86 0-1.61-.328-.734-.328-1.093-.828-.36-.5-.5-1.219-.11-.469-.11-1.531v-5.985h1.64v5.36q0 1.281.11 1.734.157.64.657 1.016.5.375 1.234.375t1.375-.375q.656-.39.922-1.031.265-.657.265-1.891v-5.188h1.641v9.672zm3.392-2.89 1.625-.25q.125.968.75 1.5.625.515 1.75.515t1.672-.453q.546-.469.546-1.094 0-.546-.484-.875-.328-.218-1.672-.546-1.812-.47-2.515-.797-.688-.328-1.047-.907-.36-.593-.36-1.312 0-.64.297-1.188.297-.562.813-.921.375-.282 1.03-.47.673-.202 1.423-.202 1.14 0 2 .328t1.265.89q.422.563.579 1.5l-1.61.22q-.11-.75-.64-1.173-.516-.422-1.47-.422-1.14 0-1.624.375-.469.375-.469.875 0 .313.188.579.203.265.64.437.235.094 1.438.422 1.75.453 2.437.75.688.297 1.078.86t.39 1.406q0 .828-.483 1.546-.47.72-1.375 1.125-.907.391-2.047.391-1.875 0-2.875-.781-.985-.781-1.25-2.328m13.562 1.422.235 1.453q-.688.14-1.235.14-.89 0-1.39-.28-.485-.282-.688-.735-.203-.469-.203-1.938v-5.578h-1.203v-1.266h1.203v-2.39l1.625-.985v3.375h1.656v1.266h-1.656v5.672q0 .687.078.89.094.204.281.329.203.11.578.11.266 0 .72-.063m8.23-1.641 1.688.203q-.406 1.484-1.485 2.313-1.078.812-2.765.812-2.125 0-3.375-1.297-1.235-1.312-1.235-3.672 0-2.453 1.25-3.797 1.266-1.343 3.266-1.343 1.938 0 3.156 1.328 1.235 1.312 1.235 3.703v.437h-7.219q.094 1.594.906 2.454.813.843 2.016.843.906 0 1.547-.468.64-.485 1.015-1.516m-5.39-2.656h5.406q-.11-1.219-.625-1.828-.781-.954-2.031-.954-1.125 0-1.907.766-.765.75-.843 2.016m9.125 5.765v-9.672h1.47v1.47q.562-1.032 1.03-1.36.485-.328 1.063-.328.828 0 1.687.531l-.562 1.516q-.61-.36-1.203-.36-.547 0-.969.328t-.61.891q-.28.875-.28 1.922v5.062z"/>
        <path fill="#efefef" fill-rule="evenodd" d="M81.07 123.153c0-16.163 13.104-29.266 29.267-29.266h117.059a29.266 29.266 0 0 1 29.265 29.266v165.594c0 16.163-13.102 29.266-29.265 29.266h-117.06c-16.162 0-29.265-13.103-29.265-29.266z"/>
        <path stroke="#000" stroke-dasharray="4.0,3.0" stroke-linecap="butt" stroke-linejoin="round" d="M81.07 123.153c0-16.163 13.104-29.266 29.267-29.266h117.059a29.266 29.266 0 0 1 29.265 29.266v165.594c0 16.163-13.102 29.266-29.265 29.266h-117.06c-16.162 0-29.265-13.103-29.265-29.266z"/>
        <path fill="#000" d="m116.572 122.164 1.313-.11q.094.782.422 1.297.344.5 1.062.813t1.61.312q.797 0 1.406-.234.61-.234.906-.64.297-.423.297-.907 0-.5-.297-.86-.281-.374-.937-.624-.422-.172-1.875-.516-1.438-.344-2.016-.656-.75-.39-1.125-.969-.36-.594-.36-1.312 0-.797.438-1.485.453-.687 1.313-1.047.875-.36 1.937-.36 1.172 0 2.063.376.89.375 1.359 1.11.484.734.516 1.656l-1.328.093q-.11-1-.735-1.5-.61-.515-1.812-.515-1.266 0-1.844.468-.578.47-.578 1.11 0 .562.422.937.39.36 2.078.75 1.703.375 2.328.657.922.421 1.36 1.078.437.64.437 1.484t-.485 1.594q-.484.734-1.39 1.14-.89.407-2.016.407-1.422 0-2.39-.407-.954-.421-1.5-1.25-.547-.828-.579-1.89m15.292.922 1.328.172q-.313 1.171-1.172 1.812-.844.64-2.172.64-1.672 0-2.656-1.015-.969-1.031-.969-2.89 0-1.922.984-2.97 1-1.062 2.578-1.062 1.516 0 2.485 1.031.969 1.032.969 2.922 0 .11-.016.344h-5.656q.062 1.25.703 1.922.64.656 1.594.656.703 0 1.203-.36.5-.374.797-1.202m-4.235-2.078h4.25q-.094-.954-.484-1.438-.625-.75-1.61-.75-.875 0-1.484.594-.61.594-.672 1.594m7.167 4.53v-7.593h1.156v1.14q.453-.796.828-1.046.375-.266.813-.266.656 0 1.328.406l-.438 1.204q-.468-.282-.953-.282-.422 0-.765.25-.328.25-.469.703-.219.688-.219 1.5v3.985zm7.006 0-2.891-7.593h1.36l1.624 4.547q.266.734.5 1.531.157-.61.47-1.453l1.687-4.625h1.328l-2.875 7.594zm5.218-9.015v-1.469h1.297v1.47zm0 9.016v-7.594h1.297v7.594zm8.21-2.781 1.265.156q-.203 1.312-1.062 2.062-.844.735-2.094.735-1.562 0-2.516-1.016-.937-1.031-.937-2.922 0-1.234.406-2.156t1.235-1.375q.843-.469 1.812-.469 1.25 0 2.031.625t1.016 1.766l-1.266.203q-.172-.766-.625-1.156-.453-.391-1.093-.391-.985 0-1.594.703t-.61 2.203q0 1.532.579 2.235.593.687 1.546.687.75 0 1.266-.453.516-.469.64-1.437m7.578.328 1.328.172q-.313 1.171-1.172 1.812-.844.64-2.172.64-1.672 0-2.656-1.015-.969-1.031-.969-2.89 0-1.922.985-2.97 1-1.062 2.578-1.062 1.515 0 2.484 1.031.969 1.032.969 2.922 0 .11-.016.344h-5.656q.062 1.25.703 1.922.64.656 1.594.656.703 0 1.203-.36.5-.374.797-1.202m-4.235-2.078h4.25q-.093-.954-.484-1.438-.625-.75-1.61-.75-.874 0-1.484.594t-.672 1.594m16.333.421v-1.234l4.437-.016v3.907q-1.03.812-2.125 1.218-1.078.407-2.218.407-1.547 0-2.813-.657-1.266-.656-1.906-1.906-.64-1.265-.64-2.812 0-1.532.64-2.844.64-1.328 1.844-1.969 1.203-.656 2.765-.656 1.14 0 2.063.375.922.36 1.437 1.031.531.656.797 1.703l-1.25.344q-.234-.797-.594-1.25-.343-.469-1-.734-.656-.282-1.437-.282-.953 0-1.656.297-.688.282-1.125.766-.422.469-.657 1.031-.39.969-.39 2.11 0 1.406.468 2.359.485.937 1.407 1.39.937.454 1.968.454.907 0 1.766-.344.86-.344 1.297-.734v-1.954zm6.306 4.11v-7.594h1.156v1.14q.454-.796.829-1.046.375-.266.812-.266.656 0 1.328.406l-.437 1.204q-.469-.282-.953-.282-.422 0-.766.25-.328.25-.469.703-.219.688-.219 1.5v3.985zm4.412-3.797q0-2.11 1.172-3.125.984-.844 2.39-.844 1.579 0 2.563 1.031 1 1.016 1 2.829 0 1.468-.437 2.312-.438.828-1.282 1.297-.843.469-1.843.469-1.594 0-2.579-1.016-.984-1.031-.984-2.953m1.328 0q0 1.453.625 2.187.64.72 1.61.72.968 0 1.593-.72.641-.734.641-2.234 0-1.406-.64-2.125-.641-.734-1.594-.734-.97 0-1.61.718-.625.72-.625 2.188m12.292 3.797v-1.11q-.89 1.282-2.422 1.282-.672 0-1.25-.25-.578-.266-.875-.657-.281-.39-.39-.953-.079-.375-.079-1.203v-4.703h1.282v4.203q0 1.016.078 1.36.125.515.515.812.407.281.985.281t1.078-.297q.515-.296.719-.812.218-.516.218-1.484v-4.063h1.282v7.594zm3.167 2.906v-10.5h1.172v.984q.421-.578.937-.859.516-.297 1.266-.297.968 0 1.718.5t1.125 1.422q.375.906.375 1.984 0 1.172-.421 2.11-.407.922-1.22 1.422-.796.5-1.671.5-.64 0-1.156-.266-.516-.281-.844-.687v3.687zm1.156-6.656q0 1.453.594 2.156.61.703 1.453.703.86 0 1.469-.719.609-.734.609-2.25 0-1.453-.61-2.171-.593-.735-1.421-.735-.813 0-1.453.781-.641.766-.641 2.235m15.551 3.75h-1.281v-8.203q-.469.437-1.219.89-.75.438-1.36.657v-1.25q1.079-.5 1.891-1.22.813-.734 1.141-1.405h.828z"/>
        <path fill="#ccc" fill-rule="evenodd" d="M119.703 138.239H224.68v44.252H119.703z"/>
        <path stroke="#000" stroke-linecap="butt" stroke-linejoin="round" d="M119.703 138.239H224.68v44.252H119.703z"/>
        <path fill="#000" d="M147.487 167.285v-9.672h1.468v1.375q1.063-1.594 3.079-1.594.875 0 1.609.313.734.312 1.094.828.375.5.515 1.203.094.453.094 1.594v5.953h-1.64v-5.89q0-1-.204-1.485-.187-.5-.672-.797-.484-.297-1.14-.297-1.047 0-1.813.672-.75.656-.75 2.516v5.28zm9.766-4.844q0-2.687 1.484-3.969 1.25-1.078 3.047-1.078 2 0 3.266 1.313 1.266 1.297 1.266 3.61 0 1.858-.563 2.937-.562 1.062-1.64 1.656-1.063.594-2.329.594-2.031 0-3.281-1.297-1.25-1.313-1.25-3.766m1.688 0q0 1.86.796 2.797.813.922 2.047.922 1.219 0 2.032-.922.812-.938.812-2.844 0-1.797-.812-2.719t-2.032-.921q-1.234 0-2.047.921-.796.907-.796 2.766m15.563 4.844v-1.219q-.907 1.438-2.703 1.438-1.157 0-2.125-.641-.97-.64-1.5-1.781-.532-1.14-.532-2.625 0-1.453.485-2.625.484-1.188 1.437-1.813.969-.625 2.172-.625.875 0 1.547.375.687.36 1.11.953v-4.797h1.64v13.36zm-5.172-4.828q0 1.86.781 2.78.781.923 1.844.923 1.078 0 1.828-.875.75-.89.75-2.688 0-1.984-.766-2.906-.765-.937-1.89-.937-1.078 0-1.813.89t-.734 2.813m15.907 1.718 1.687.204q-.406 1.484-1.484 2.312-1.078.813-2.766.813-2.125 0-3.375-1.297-1.234-1.313-1.234-3.672 0-2.453 1.25-3.797 1.266-1.344 3.266-1.344 1.937 0 3.156 1.328 1.234 1.313 1.234 3.703v.438h-7.219q.094 1.594.907 2.453.812.844 2.015.844.907 0 1.547-.469.64-.484 1.016-1.516m-5.39-2.656h5.405q-.109-1.219-.625-1.828-.78-.953-2.03-.953-1.126 0-1.907.766-.766.75-.844 2.015m14.86 5.766h-1.641v-10.453q-.594.562-1.563 1.14-.953.563-1.719.844v-1.594q1.375-.64 2.407-1.562 1.03-.922 1.453-1.781h1.062z"/>
        <path fill="#ccc" fill-rule="evenodd" d="M119.703 193.493H224.68v44.252H119.703z"/>
        <path stroke="#000" stroke-linecap="butt" stroke-linejoin="round" d="M119.703 193.493H224.68v44.252H119.703z"/>
        <path fill="#000" d="M147.487 222.54v-9.672h1.468v1.375q1.063-1.594 3.079-1.594.875 0 1.609.312.734.313 1.094.828.375.5.515 1.204.094.453.094 1.593v5.953h-1.64v-5.89q0-1-.204-1.485-.187-.5-.672-.796-.484-.297-1.14-.297-1.047 0-1.813.672-.75.656-.75 2.515v5.281zm9.766-4.844q0-2.688 1.484-3.97 1.25-1.077 3.047-1.077 2 0 3.266 1.312 1.266 1.297 1.266 3.61 0 1.859-.563 2.937-.562 1.063-1.64 1.656-1.063.594-2.329.594-2.031 0-3.281-1.297-1.25-1.312-1.25-3.765m1.688 0q0 1.859.796 2.797.813.921 2.047.921 1.219 0 2.032-.921.812-.938.812-2.844 0-1.797-.812-2.719t-2.032-.922q-1.234 0-2.047.922-.796.906-.796 2.766m15.563 4.843v-1.218q-.907 1.437-2.703 1.437-1.157 0-2.125-.64-.97-.641-1.5-1.782-.532-1.14-.532-2.625 0-1.453.485-2.625.484-1.187 1.437-1.812.969-.625 2.172-.625.875 0 1.547.375.687.36 1.11.953v-4.797h1.64v13.36zm-5.172-4.828q0 1.86.781 2.782t1.844.921q1.078 0 1.828-.875.75-.89.75-2.687 0-1.984-.766-2.906-.765-.938-1.89-.938-1.078 0-1.813.89-.734.891-.734 2.813m15.907 1.719 1.687.203q-.406 1.485-1.484 2.313-1.078.812-2.766.812-2.125 0-3.375-1.297-1.234-1.312-1.234-3.672 0-2.453 1.25-3.796 1.266-1.344 3.266-1.344 1.937 0 3.156 1.328 1.234 1.312 1.234 3.703v.438h-7.219q.094 1.593.907 2.453.812.843 2.015.843.907 0 1.547-.468.64-.485 1.016-1.516m-5.39-2.656h5.405q-.109-1.219-.625-1.828-.78-.953-2.03-.953-1.126 0-1.907.765-.766.75-.844 2.016m17.297 4.187v1.578h-8.828q-.016-.593.187-1.14.344-.906 1.078-1.781.75-.875 2.157-2.016 2.171-1.781 2.937-2.828t.766-1.969q0-.984-.703-1.64-.688-.672-1.813-.672-1.187 0-1.906.718-.703.703-.703 1.953l-1.688-.171q.172-1.891 1.297-2.875 1.14-.985 3.031-.985 1.922 0 3.047 1.063t1.125 2.64q0 .797-.328 1.578-.328.782-1.094 1.641-.75.844-2.531 2.344-1.469 1.234-1.89 1.687-.422.438-.688.875z"/>
        <path fill="#ccc" fill-rule="evenodd" d="M119.703 248.748H224.68V293H119.703z"/>
        <path stroke="#000" stroke-linecap="butt" stroke-linejoin="round" d="M119.703 248.748H224.68V293H119.703z"/>
        <path fill="#000" d="M147.487 277.794v-9.672h1.468v1.375q1.063-1.594 3.079-1.594.875 0 1.609.313.734.312 1.094.828.375.5.515 1.203.094.453.094 1.594v5.953h-1.64v-5.89q0-1-.204-1.485-.187-.5-.672-.797-.484-.297-1.14-.297-1.047 0-1.813.672-.75.656-.75 2.516v5.281zm9.766-4.844q0-2.687 1.484-3.969 1.25-1.078 3.047-1.078 2 0 3.266 1.313 1.266 1.297 1.266 3.61 0 1.859-.563 2.937-.562 1.062-1.64 1.656-1.063.594-2.329.594-2.031 0-3.281-1.297-1.25-1.313-1.25-3.766m1.688 0q0 1.86.796 2.797.813.922 2.047.922 1.219 0 2.032-.922.812-.937.812-2.844 0-1.797-.812-2.718-.813-.922-2.032-.922-1.234 0-2.047.922-.796.906-.796 2.765m15.563 4.844v-1.219q-.907 1.438-2.703 1.438-1.157 0-2.125-.64-.97-.642-1.5-1.782-.532-1.14-.532-2.625 0-1.453.485-2.625.484-1.188 1.437-1.813.969-.625 2.172-.625.875 0 1.547.375.687.36 1.11.953v-4.796h1.64v13.359zm-5.172-4.828q0 1.86.781 2.781.781.922 1.844.922 1.078 0 1.828-.875.75-.89.75-2.687 0-1.985-.766-2.907-.765-.937-1.89-.937-1.078 0-1.813.89-.734.891-.734 2.813m15.907 1.719 1.687.203q-.406 1.484-1.484 2.312-1.078.813-2.766.813-2.125 0-3.375-1.297-1.234-1.313-1.234-3.672 0-2.453 1.25-3.797 1.266-1.344 3.266-1.344 1.937 0 3.156 1.328 1.234 1.313 1.234 3.704v.437h-7.219q.094 1.594.907 2.453.812.844 2.015.844.907 0 1.547-.469.64-.484 1.016-1.515m-5.39-2.657h5.405q-.109-1.218-.625-1.828-.78-.953-2.03-.953-1.126 0-1.907.766-.766.75-.844 2.015m8.687 2.235 1.641-.219q.281 1.406.953 2.016.688.609 1.656.609 1.157 0 1.954-.797t.796-1.984q0-1.125-.734-1.86-.734-.734-1.875-.734-.469 0-1.156.172l.187-1.438q.157.016.266.016 1.047 0 1.875-.547.844-.547.844-1.672 0-.906-.61-1.5t-1.578-.594q-.953 0-1.594.61-.64.594-.812 1.797l-1.64-.297q.296-1.64 1.359-2.547 1.062-.906 2.656-.906 1.094 0 2 .469.922.468 1.406 1.28.5.813.5 1.72 0 .859-.469 1.578-.468.703-1.375 1.125 1.188.28 1.844 1.14t.656 2.156q0 1.735-1.28 2.954-1.266 1.218-3.22 1.218-1.765 0-2.921-1.047-1.157-1.046-1.329-2.718"/>
        <path fill="#ccc" fill-rule="evenodd" d="M104.142 470.047H225.59V514.3H104.14z"/>
        <path stroke="#000" stroke-linecap="butt" stroke-linejoin="round" d="M104.142 470.047H225.59V514.3H104.14z"/>
        <path fill="#000" d="m127.856 494.796 1.656-.14q.125 1 .547 1.64.437.641 1.344 1.047.921.39 2.062.39 1 0 1.781-.296.782-.297 1.157-.813.375-.53.375-1.156t-.375-1.094q-.36-.468-1.188-.796-.547-.204-2.39-.641-1.829-.453-2.563-.844-.969-.5-1.438-1.234-.468-.75-.468-1.672 0-1 .578-1.875.578-.89 1.672-1.344 1.109-.453 2.453-.453 1.484 0 2.61.484 1.14.47 1.75 1.407.609.922.655 2.093l-1.687.125q-.14-1.265-.938-1.906-.78-.656-2.312-.656-1.61 0-2.344.594-.734.593-.734 1.422 0 .718.531 1.171.5.47 2.656.97 2.157.484 2.953.843 1.172.531 1.72 1.36.562.827.562 1.906 0 1.062-.61 2.015-.61.938-1.75 1.469-1.14.516-2.578.516-1.812 0-3.047-.532-1.218-.53-1.922-1.593-.687-1.063-.718-2.407m13.037 4.297v-13.36h4.61q1.546 0 2.374.204 1.141.25 1.953.953 1.063.89 1.579 2.281.53 1.391.53 3.172 0 1.516-.359 2.703-.359 1.172-.921 1.938-.547.765-1.204 1.219-.656.437-1.593.671-.938.22-2.14.22zm1.766-1.578h2.859q1.312 0 2.062-.234.75-.25 1.204-.703.625-.625.968-1.688.36-1.062.36-2.578 0-2.094-.688-3.219t-1.672-1.5q-.703-.281-2.28-.281h-2.813zm11.629 1.578v-13.36h1.781v6.626l6.625-6.625h2.39l-5.593 5.422 5.844 7.937h-2.328l-4.766-6.765-2.172 2.14v4.625zm15.206 0 5.125-13.36h1.906l5.47 13.36h-2.017l-1.546-4.047h-5.594l-1.469 4.047zm3.86-5.484h4.53l-1.406-3.703q-.625-1.688-.937-2.766-.266 1.281-.719 2.547zm9.85 9.187v-13.375h1.484v1.25q.53-.734 1.187-1.093.672-.375 1.625-.375 1.235 0 2.172.64.953.625 1.438 1.797.484 1.156.484 2.547 0 1.484-.531 2.672-.532 1.187-1.547 1.828-1.016.625-2.14.625-.813 0-1.47-.344-.656-.344-1.062-.875v4.703zm1.484-8.484q0 1.86.75 2.766.765.89 1.828.89 1.094 0 1.875-.922.781-.937.781-2.875 0-1.843-.766-2.765-.75-.922-1.812-.922-1.047 0-1.86.984-.796.969-.796 2.844m8.891 8.484v-13.375h1.484v1.25q.532-.734 1.188-1.093.672-.375 1.625-.375 1.234 0 2.172.64.953.625 1.437 1.797.485 1.156.485 2.547 0 1.484-.532 2.672-.53 1.187-1.546 1.828-1.016.625-2.141.625-.813 0-1.469-.344t-1.062-.875v4.703zm1.484-8.484q0 1.86.75 2.766.766.89 1.829.89 1.093 0 1.875-.922.78-.937.78-2.875 0-1.843-.765-2.765-.75-.922-1.812-.922-1.047 0-1.86.984-.797.969-.797 2.844"/>
        <path fill="#efefef" fill-rule="evenodd" d="M325.215 124.486c0-16.9 13.7-30.599 30.6-30.599h122.392a30.6 30.6 0 0 1 30.599 30.6v162.927c0 16.9-13.7 30.6-30.6 30.6H355.815c-16.9 0-30.599-13.7-30.599-30.6z"/>
        <path stroke="#000" stroke-dasharray="4.0,3.0" stroke-linecap="butt" stroke-linejoin="round" d="M325.215 124.486c0-16.9 13.7-30.599 30.6-30.599h122.392a30.6 30.6 0 0 1 30.599 30.6v162.927c0 16.9-13.7 30.6-30.6 30.6H355.815c-16.9 0-30.599-13.7-30.599-30.6z"/>
        <path fill="#000" d="m364.717 122.554 1.312-.11q.094.782.422 1.298.344.5 1.063.812.718.313 1.609.313.797 0 1.406-.235.61-.234.906-.64.297-.422.297-.906 0-.5-.297-.86-.28-.375-.937-.625-.422-.172-1.875-.515-1.438-.344-2.016-.657-.75-.39-1.125-.968-.359-.594-.359-1.313 0-.797.437-1.484.454-.688 1.313-1.047.875-.36 1.937-.36 1.172 0 2.063.375.89.375 1.36 1.11.484.734.515 1.656l-1.328.094q-.11-1-.735-1.5-.609-.516-1.812-.516-1.266 0-1.844.469t-.578 1.11q0 .562.422.937.39.36 2.078.75 1.703.375 2.328.656.922.422 1.36 1.078.437.64.437 1.485 0 .843-.484 1.593-.485.735-1.39 1.14-.892.407-2.017.407-1.421 0-2.39-.406-.953-.422-1.5-1.25t-.578-1.89m15.291.922 1.328.172q-.312 1.172-1.172 1.813-.844.64-2.172.64-1.672 0-2.656-1.015-.969-1.032-.969-2.891 0-1.922.985-2.969 1-1.062 2.578-1.062 1.515 0 2.484 1.03.969 1.032.969 2.923 0 .11-.016.344h-5.656q.063 1.25.703 1.921.64.657 1.594.657.703 0 1.203-.36.5-.375.797-1.203m-4.234-2.078h4.25q-.094-.953-.485-1.437-.625-.75-1.61-.75-.874 0-1.484.593-.609.594-.671 1.594m7.166 4.531v-7.593h1.157v1.14q.453-.797.828-1.047.375-.265.812-.265.656 0 1.328.406l-.437 1.203q-.469-.281-.953-.281-.422 0-.766.25-.328.25-.469.703-.218.687-.218 1.5v3.984zm7.006 0-2.89-7.593h1.359l1.625 4.546q.265.735.5 1.532.156-.61.468-1.453l1.688-4.625h1.328l-2.875 7.593zm5.219-9.015v-1.47h1.297v1.47zm0 9.015v-7.593h1.297v7.593zm8.209-2.781 1.266.156q-.204 1.313-1.063 2.063-.844.734-2.094.734-1.562 0-2.515-1.015-.938-1.032-.938-2.922 0-1.235.406-2.157t1.235-1.375q.844-.468 1.812-.468 1.25 0 2.032.625.78.625 1.015 1.765l-1.265.203q-.172-.765-.625-1.156-.454-.39-1.094-.39-.985 0-1.594.703t-.61 2.203q0 1.531.579 2.234.594.688 1.547.688.75 0 1.265-.453.516-.47.641-1.438m7.578.328 1.328.172q-.312 1.172-1.172 1.813-.843.64-2.172.64-1.671 0-2.656-1.015-.969-1.032-.969-2.891 0-1.922.985-2.969 1-1.062 2.578-1.062 1.516 0 2.484 1.03.97 1.032.97 2.923 0 .11-.017.344h-5.656q.063 1.25.703 1.921.641.657 1.594.657.703 0 1.203-.36.5-.375.797-1.203m-4.234-2.078h4.25q-.094-.953-.485-1.437-.625-.75-1.609-.75-.875 0-1.484.593-.61.594-.672 1.594m16.332.422v-1.234l4.438-.016v3.906q-1.032.813-2.125 1.219-1.078.406-2.219.406-1.547 0-2.813-.656-1.265-.656-1.906-1.906-.64-1.266-.64-2.813 0-1.531.64-2.844.64-1.328 1.844-1.968 1.203-.657 2.766-.657 1.14 0 2.062.375.922.36 1.438 1.032.53.656.796 1.703l-1.25.344q-.234-.797-.593-1.25-.344-.47-1-.735-.657-.281-1.438-.281-.953 0-1.656.297-.688.281-1.125.765-.422.47-.656 1.032-.39.968-.39 2.109 0 1.406.468 2.36.484.937 1.406 1.39.938.453 1.969.453.906 0 1.765-.344.86-.343 1.297-.734v-1.953zm6.307 4.11v-7.594h1.156v1.14q.453-.797.828-1.047.375-.265.812-.265.657 0 1.329.406l-.438 1.203q-.469-.281-.953-.281-.422 0-.766.25-.328.25-.468.703-.22.687-.22 1.5v3.984zm4.411-3.798q0-2.109 1.172-3.125.985-.843 2.391-.843 1.578 0 2.562 1.03 1 1.017 1 2.829 0 1.469-.437 2.313-.438.828-1.281 1.296-.844.47-1.844.47-1.594 0-2.578-1.016-.985-1.032-.985-2.954m1.329 0q0 1.454.625 2.188.64.719 1.609.719t1.594-.72q.64-.733.64-2.233 0-1.407-.64-2.125-.64-.735-1.594-.735-.969 0-1.61.719-.624.719-.624 2.187m12.291 3.797v-1.11q-.89 1.282-2.422 1.282-.671 0-1.25-.25-.578-.265-.875-.656-.28-.39-.39-.953-.078-.375-.078-1.203v-4.703h1.28v4.203q0 1.015.08 1.359.124.516.515.813.406.28.984.28t1.078-.296q.516-.297.719-.813.219-.515.219-1.484v-4.062h1.28v7.593zm3.167 2.907v-10.5h1.172v.984q.422-.578.937-.86.516-.296 1.266-.296.969 0 1.719.5t1.125 1.422q.375.906.375 1.984 0 1.172-.422 2.11-.406.921-1.219 1.421-.797.5-1.672.5-.64 0-1.156-.265-.516-.282-.844-.688v3.688zm1.156-6.657q0 1.453.594 2.157.61.703 1.453.703.86 0 1.469-.72.61-.733.61-2.25 0-1.452-.61-2.171-.594-.734-1.422-.734-.812 0-1.453.78-.64.767-.64 2.235m17.473 2.516v1.234h-6.937q-.016-.468.156-.89.266-.72.844-1.407.594-.687 1.687-1.578 1.72-1.406 2.313-2.218.61-.829.61-1.563 0-.766-.563-1.281-.547-.531-1.422-.531-.922 0-1.484.562-.563.563-.563 1.547l-1.328-.14q.14-1.485 1.016-2.25.89-.782 2.39-.782 1.516 0 2.39.844.876.828.876 2.062 0 .64-.266 1.25-.25.594-.844 1.266-.593.672-1.984 1.86-1.156.968-1.484 1.312t-.547.703z"/>
        <path fill="#ccc" fill-rule="evenodd" d="M370.782 138.239h93.638v44.252h-93.638z"/>
        <path stroke="#000" stroke-linecap="butt" stroke-linejoin="round" d="M370.782 138.239h93.638v44.252h-93.638z"/>
        <path fill="#000" d="M392.896 167.285v-9.672h1.469v1.375q1.062-1.594 3.078-1.594.875 0 1.61.313.734.312 1.093.828.375.5.516 1.203.093.453.093 1.594v5.953h-1.64v-5.89q0-1-.203-1.485-.188-.5-.672-.797t-1.14-.297q-1.048 0-1.813.672-.75.656-.75 2.516v5.28zm9.766-4.844q0-2.687 1.485-3.969 1.25-1.078 3.047-1.078 2 0 3.265 1.313 1.266 1.297 1.266 3.61 0 1.858-.563 2.937-.562 1.062-1.64 1.656-1.063.594-2.328.594-2.032 0-3.282-1.297-1.25-1.313-1.25-3.766m1.688 0q0 1.86.797 2.797.812.922 2.047.922 1.218 0 2.03-.922.813-.938.813-2.844 0-1.797-.812-2.719t-2.031-.921q-1.235 0-2.047.921-.797.907-.797 2.766m15.563 4.844v-1.219q-.906 1.438-2.703 1.438-1.156 0-2.125-.641-.969-.64-1.5-1.781-.531-1.14-.531-2.625 0-1.453.484-2.625.484-1.188 1.438-1.813.968-.625 2.171-.625.875 0 1.547.375.688.36 1.11.953v-4.797h1.64v13.36zm-5.172-4.828q0 1.86.781 2.78.782.923 1.844.923 1.078 0 1.828-.875.75-.89.75-2.688 0-1.984-.765-2.906-.766-.937-1.89-.937-1.08 0-1.813.89-.735.89-.735 2.813m15.907 1.718 1.688.204q-.407 1.484-1.485 2.312-1.078.813-2.765.813-2.125 0-3.375-1.297-1.235-1.313-1.235-3.672 0-2.453 1.25-3.797 1.266-1.344 3.266-1.344 1.937 0 3.156 1.328 1.235 1.313 1.235 3.703v.438h-7.22q.095 1.594.907 2.453.813.844 2.016.844.906 0 1.547-.469.64-.484 1.015-1.516m-5.39-2.656h5.406q-.11-1.219-.625-1.828-.781-.953-2.031-.953-1.125 0-1.907.766-.765.75-.843 2.015m13.938 5.766v-3.203h-5.797v-1.5l6.094-8.657h1.343v8.657h1.797v1.5h-1.797v3.203zm0-4.703v-6.016l-4.188 6.016z"/>
        <path fill="#ccc" fill-rule="evenodd" d="M370.396 194.769h93.638v44.252h-93.638z"/>
        <path stroke="#000" stroke-linecap="butt" stroke-linejoin="round" d="M370.396 194.769h93.638v44.252h-93.638z"/>
        <path fill="#000" d="M392.51 223.815v-9.672h1.469v1.375q1.063-1.594 3.078-1.594.875 0 1.61.313.734.312 1.093.828.375.5.516 1.203.094.453.094 1.594v5.953h-1.641v-5.89q0-1-.203-1.485-.188-.5-.672-.797t-1.14-.297q-1.047 0-1.813.672-.75.656-.75 2.516v5.281zm9.767-4.844q0-2.687 1.484-3.968 1.25-1.079 3.047-1.079 2 0 3.266 1.313 1.265 1.297 1.265 3.61 0 1.859-.562 2.937-.563 1.062-1.641 1.656-1.062.594-2.328.594-2.031 0-3.281-1.297-1.25-1.313-1.25-3.766m1.687 0q0 1.86.797 2.797.813.922 2.047.922 1.219 0 2.031-.922.813-.937.813-2.844 0-1.796-.813-2.718t-2.031-.922q-1.234 0-2.047.922-.797.906-.797 2.765m15.563 4.844v-1.219q-.906 1.438-2.703 1.438-1.156 0-2.125-.64-.969-.641-1.5-1.782-.531-1.14-.531-2.625 0-1.453.484-2.625.485-1.188 1.438-1.813.969-.625 2.172-.625.875 0 1.547.375.687.36 1.109.954v-4.797h1.64v13.359zm-5.172-4.828q0 1.86.782 2.781.781.922 1.843.922 1.079 0 1.829-.875.75-.89.75-2.687 0-1.985-.766-2.907-.766-.937-1.89-.937-1.079 0-1.813.89-.735.891-.735 2.813m15.907 1.719 1.688.203q-.406 1.484-1.484 2.312-1.079.813-2.766.813-2.125 0-3.375-1.297-1.234-1.313-1.234-3.672 0-2.453 1.25-3.797 1.265-1.344 3.265-1.344 1.938 0 3.156 1.329 1.235 1.312 1.235 3.703v.437h-7.219q.094 1.594.906 2.453.813.844 2.016.844.906 0 1.547-.469.64-.484 1.015-1.515m-5.39-2.657h5.406q-.11-1.218-.625-1.828-.781-.953-2.031-.953-1.125 0-1.906.766-.766.75-.844 2.015m8.688 2.266 1.719-.14q.187 1.25.875 1.89.703.625 1.687.625 1.188 0 2-.89.828-.891.828-2.36 0-1.406-.796-2.219-.782-.812-2.063-.812-.781 0-1.422.36-.64.359-1 .937l-1.547-.203 1.297-6.86h6.64v1.563h-5.327l-.72 3.593q1.204-.843 2.517-.843 1.75 0 2.953 1.218 1.203 1.204 1.203 3.11 0 1.812-1.047 3.14-1.297 1.625-3.516 1.625-1.812 0-2.968-1.015-1.157-1.031-1.313-2.719"/>
        <path fill="#ccc" fill-rule="evenodd" d="M370.396 251.3h93.638v44.251h-93.638z"/>
        <path stroke="#000" stroke-linecap="butt" stroke-linejoin="round" d="M370.396 251.3h93.638v44.251h-93.638z"/>
        <path fill="#000" d="M392.51 280.345v-9.672h1.469v1.375q1.063-1.593 3.078-1.593.875 0 1.61.312.734.313 1.093.828.375.5.516 1.203.094.453.094 1.594v5.953h-1.641v-5.89q0-1-.203-1.485-.188-.5-.672-.797t-1.14-.297q-1.047 0-1.813.672-.75.657-.75 2.516v5.281zm9.767-4.844q0-2.687 1.484-3.968 1.25-1.078 3.047-1.078 2 0 3.266 1.312 1.265 1.297 1.265 3.61 0 1.859-.562 2.937-.563 1.062-1.641 1.656-1.062.594-2.328.594-2.031 0-3.281-1.297-1.25-1.312-1.25-3.766m1.687 0q0 1.86.797 2.797.813.922 2.047.922 1.219 0 2.031-.922.813-.937.813-2.843 0-1.797-.813-2.72-.812-.921-2.031-.921-1.234 0-2.047.922-.797.906-.797 2.765m15.563 4.844v-1.219q-.906 1.438-2.703 1.438-1.156 0-2.125-.64-.969-.641-1.5-1.782-.531-1.14-.531-2.625 0-1.453.484-2.625.485-1.187 1.438-1.812.969-.625 2.172-.625.875 0 1.547.375.687.359 1.109.953v-4.797h1.64v13.36zm-5.172-4.828q0 1.86.782 2.781.781.922 1.843.922 1.079 0 1.829-.875.75-.89.75-2.687 0-1.985-.766-2.907-.766-.937-1.89-.937-1.079 0-1.813.89-.735.891-.735 2.813m15.907 1.719 1.688.203q-.406 1.484-1.484 2.312-1.079.813-2.766.813-2.125 0-3.375-1.297-1.234-1.312-1.234-3.672 0-2.453 1.25-3.797 1.265-1.343 3.265-1.343 1.938 0 3.156 1.328 1.235 1.312 1.235 3.703v.437h-7.219q.094 1.594.906 2.453.813.844 2.016.844.906 0 1.547-.469.64-.484 1.015-1.515m-5.39-2.656h5.406q-.11-1.22-.625-1.829-.781-.953-2.031-.953-1.125 0-1.906.766-.766.75-.844 2.016m17.188-4.313-1.625.125q-.219-.969-.625-1.406-.656-.703-1.64-.703-.782 0-1.376.437-.765.563-1.218 1.656-.453 1.079-.47 3.079.595-.891 1.454-1.329.86-.437 1.797-.437 1.64 0 2.781 1.203 1.156 1.203 1.156 3.11 0 1.265-.546 2.343-.532 1.078-1.485 1.656-.937.579-2.14.579-2.063 0-3.36-1.5-1.281-1.516-1.281-4.985 0-3.875 1.422-5.625 1.25-1.531 3.375-1.531 1.562 0 2.562.89 1.016.876 1.219 2.438m-6.687 5.75q0 .844.359 1.625.36.766 1 1.172t1.36.406q1.03 0 1.78-.828.75-.844.75-2.281 0-1.39-.734-2.188-.734-.797-1.86-.797-1.109 0-1.89.797-.765.797-.765 2.094"/>
        <path fill="#efefef" fill-rule="evenodd" d="M577.769 119.34c0-16.9 13.7-30.6 30.599-30.6h122.393a30.6 30.6 0 0 1 30.599 30.6V287.4c0 16.9-13.7 30.599-30.6 30.599H608.369c-16.9 0-30.599-13.7-30.599-30.599z"/>
        <path stroke="#000" stroke-dasharray="4.0,3.0" stroke-linecap="butt" stroke-linejoin="round" d="M577.769 119.34c0-16.9 13.7-30.6 30.599-30.6h122.393a30.6 30.6 0 0 1 30.599 30.6V287.4c0 16.9-13.7 30.599-30.6 30.599H608.369c-16.9 0-30.599-13.7-30.599-30.599z"/>
        <path fill="#000" d="m617.27 117.407 1.313-.11q.094.782.422 1.298.344.5 1.062.812.72.313 1.61.313.797 0 1.406-.235.61-.234.906-.64.297-.422.297-.906 0-.5-.297-.86-.28-.375-.937-.625-.422-.172-1.875-.515-1.438-.344-2.016-.657-.75-.39-1.125-.968-.36-.594-.36-1.313 0-.797.438-1.484.453-.688 1.313-1.047.875-.36 1.937-.36 1.172 0 2.063.375.89.375 1.36 1.11.484.734.515 1.656l-1.328.094q-.11-1-.735-1.5-.61-.516-1.812-.516-1.266 0-1.844.469t-.578 1.11q0 .562.422.937.39.36 2.078.75 1.703.375 2.328.656.922.422 1.36 1.078.437.64.437 1.485 0 .843-.484 1.593-.485.735-1.391 1.14-.89.407-2.016.407-1.422 0-2.39-.406-.953-.422-1.5-1.25t-.578-1.89m15.292.922 1.328.172q-.313 1.172-1.172 1.813-.844.64-2.172.64-1.672 0-2.656-1.015-.969-1.032-.969-2.891 0-1.922.985-2.969 1-1.062 2.578-1.062 1.515 0 2.484 1.03.969 1.032.969 2.923 0 .11-.016.344h-5.656q.062 1.25.703 1.921.64.657 1.594.657.703 0 1.203-.36.5-.375.797-1.203m-4.235-2.078h4.25q-.093-.953-.484-1.437-.625-.75-1.61-.75-.874 0-1.484.593-.61.594-.672 1.594m7.167 4.531v-7.593h1.156v1.14q.454-.797.829-1.047.375-.265.812-.265.656 0 1.328.406l-.437 1.203q-.47-.281-.953-.281-.422 0-.766.25-.328.25-.469.703-.219.687-.219 1.5v3.984zm7.006 0-2.89-7.593h1.359l1.625 4.546q.265.735.5 1.532.156-.61.468-1.453l1.688-4.625h1.328l-2.875 7.593zm5.219-9.015v-1.47h1.296v1.47zm0 9.015v-7.593h1.296v7.593zm8.209-2.78 1.265.155q-.203 1.313-1.062 2.063-.844.734-2.094.734-1.562 0-2.515-1.015-.938-1.032-.938-2.922 0-1.235.406-2.157t1.235-1.375q.843-.468 1.812-.468 1.25 0 2.031.625t1.016 1.765l-1.266.203q-.171-.765-.625-1.156t-1.093-.39q-.985 0-1.594.703t-.61 2.203q0 1.531.579 2.234.593.688 1.547.688.75 0 1.265-.453.516-.47.64-1.438m7.578.327 1.328.172q-.312 1.172-1.172 1.813-.844.64-2.172.64-1.672 0-2.656-1.015-.969-1.032-.969-2.891 0-1.922.985-2.969 1-1.062 2.578-1.062 1.515 0 2.484 1.03.969 1.032.969 2.923 0 .11-.016.344h-5.656q.063 1.25.703 1.921.64.657 1.594.657.703 0 1.203-.36.5-.375.797-1.203m-4.234-2.078h4.25q-.094-.953-.485-1.437-.625-.75-1.61-.75-.874 0-1.484.593-.609.594-.671 1.594m16.332.422v-1.234l4.438-.016v3.906q-1.032.813-2.125 1.219-1.079.406-2.22.406-1.546 0-2.812-.656t-1.906-1.906q-.64-1.266-.64-2.813 0-1.531.64-2.844.64-1.328 1.844-1.968 1.203-.657 2.765-.657 1.141 0 2.063.375.922.36 1.437 1.032.532.656.797 1.703l-1.25.344q-.234-.797-.593-1.25-.344-.47-1-.735-.657-.281-1.438-.281-.953 0-1.656.297-.688.281-1.125.765-.422.47-.656 1.032-.391.968-.391 2.11 0 1.405.469 2.358.484.938 1.406 1.391.937.453 1.969.453.906 0 1.765-.344.86-.343 1.297-.734v-1.953zm6.306 4.11v-7.594h1.157v1.14q.453-.797.828-1.047.375-.265.812-.265.657 0 1.328.406l-.437 1.203q-.469-.281-.953-.281-.422 0-.766.25-.328.25-.469.703-.218.687-.218 1.5v3.984zm4.412-3.798q0-2.109 1.172-3.125.985-.843 2.39-.843 1.579 0 2.563 1.03 1 1.017 1 2.83 0 1.468-.437 2.312-.438.828-1.281 1.296-.844.47-1.844.47-1.594 0-2.578-1.016-.985-1.032-.985-2.954m1.328 0q0 1.454.625 2.188.641.719 1.61.719t1.594-.72q.64-.733.64-2.233 0-1.407-.64-2.125-.641-.735-1.594-.735-.969 0-1.61.719-.625.719-.625 2.187m12.292 3.797v-1.11q-.89 1.282-2.422 1.282-.672 0-1.25-.25-.578-.265-.875-.656-.281-.39-.39-.953-.078-.375-.078-1.203v-4.703h1.28v4.203q0 1.015.079 1.36.125.515.516.812.406.28.984.28t1.078-.296q.516-.297.719-.813.219-.515.219-1.484v-4.062h1.28v7.593zm3.167 2.907v-10.5h1.172v.984q.422-.578.937-.86.516-.296 1.266-.296.969 0 1.719.5t1.125 1.422q.375.906.375 1.984 0 1.172-.422 2.11-.406.921-1.219 1.421-.797.5-1.672.5-.64 0-1.156-.265-.516-.282-.844-.688v3.688zm1.156-6.657q0 1.453.594 2.157.61.703 1.453.703.86 0 1.469-.72.61-.733.61-2.25 0-1.452-.61-2.17-.594-.735-1.422-.735-.813 0-1.453.78-.64.767-.64 2.235m10.708.985 1.296-.172q.22 1.094.75 1.578.532.484 1.297.484.907 0 1.532-.625.64-.64.64-1.562 0-.89-.594-1.469-.578-.578-1.468-.578-.36 0-.907.14l.141-1.124q.125.015.203.015.828 0 1.485-.422.656-.437.656-1.343 0-.704-.485-1.157-.468-.468-1.234-.468-.75 0-1.25.468-.5.47-.64 1.422l-1.282-.234q.235-1.297 1.063-2 .843-.719 2.093-.719.86 0 1.579.375.718.36 1.093 1 .391.64.391 1.344 0 .687-.375 1.25-.36.547-1.063.875.922.219 1.438.906.516.672.516 1.688 0 1.375-1 2.328t-2.532.953q-1.39 0-2.297-.813-.906-.828-1.046-2.14"/>
        <path fill="#ccc" fill-rule="evenodd" d="M626.841 138.706h93.638v44.252H626.84z"/>
        <path stroke="#000" stroke-linecap="butt" stroke-linejoin="round" d="M626.841 138.706h93.638v44.252H626.84z"/>
        <path fill="#000" d="M648.955 167.752v-9.672h1.469v1.375q1.062-1.594 3.078-1.594.875 0 1.61.313.734.312 1.093.828.375.5.516 1.203.093.453.093 1.594v5.953h-1.64v-5.89q0-1-.203-1.485-.188-.5-.672-.797t-1.14-.297q-1.048 0-1.813.672-.75.656-.75 2.516v5.281zm9.766-4.844q0-2.687 1.485-3.968 1.25-1.079 3.047-1.079 2 0 3.265 1.313 1.266 1.297 1.266 3.61 0 1.859-.563 2.937-.562 1.062-1.64 1.656-1.063.594-2.328.594-2.032 0-3.282-1.297-1.25-1.313-1.25-3.766m1.688 0q0 1.86.797 2.797.812.922 2.047.922 1.218 0 2.03-.922.813-.937.813-2.844 0-1.796-.812-2.718t-2.031-.922q-1.235 0-2.047.922-.797.906-.797 2.765m15.563 4.844v-1.219q-.906 1.438-2.703 1.438-1.156 0-2.125-.64-.969-.641-1.5-1.782-.531-1.14-.531-2.625 0-1.453.484-2.625.485-1.188 1.438-1.813.968-.625 2.172-.625.875 0 1.546.375.688.36 1.11.954v-4.797h1.64v13.359zm-5.172-4.828q0 1.86.782 2.781.78.922 1.843.922 1.078 0 1.828-.875.75-.89.75-2.687 0-1.985-.765-2.907-.766-.937-1.89-.937-1.079 0-1.813.89-.735.891-.735 2.813m15.907 1.719 1.688.203q-.407 1.484-1.485 2.312-1.078.813-2.765.813-2.125 0-3.375-1.297-1.235-1.313-1.235-3.672 0-2.453 1.25-3.797 1.266-1.344 3.266-1.344 1.937 0 3.156 1.329 1.235 1.312 1.235 3.703v.437h-7.22q.095 1.594.907 2.453.813.844 2.016.844.906 0 1.547-.469.64-.484 1.015-1.515m-5.39-2.657h5.406q-.11-1.218-.625-1.828-.781-.953-2.031-.953-1.125 0-1.907.766-.765.75-.843 2.015m8.797-5.843v-1.578h8.64v1.28q-1.28 1.36-2.53 3.61t-1.938 4.625q-.484 1.672-.625 3.672h-1.687q.03-1.578.625-3.812.593-2.235 1.687-4.297 1.11-2.078 2.36-3.5z"/>
        <path fill="#ccc" fill-rule="evenodd" d="M626.455 194.769h93.638v44.252h-93.638z"/>
        <path stroke="#000" stroke-linecap="butt" stroke-linejoin="round" d="M626.455 194.769h93.638v44.252h-93.638z"/>
        <path fill="#000" d="M648.57 223.815v-9.672h1.468v1.375q1.063-1.594 3.078-1.594.875 0 1.61.313.734.312 1.093.828.375.5.516 1.203.094.453.094 1.594v5.953h-1.64v-5.89q0-1-.204-1.485-.188-.5-.672-.797t-1.14-.297q-1.047 0-1.813.672-.75.656-.75 2.516v5.281zm9.766-4.844q0-2.687 1.484-3.968 1.25-1.079 3.047-1.079 2 0 3.266 1.313 1.265 1.297 1.265 3.61 0 1.859-.562 2.937-.563 1.062-1.64 1.656-1.063.594-2.33.594-2.03 0-3.28-1.297-1.25-1.313-1.25-3.766m1.687 0q0 1.86.797 2.797.813.922 2.047.922 1.219 0 2.031-.922.813-.937.813-2.844 0-1.796-.813-2.718t-2.031-.922q-1.234 0-2.047.922-.797.906-.797 2.765m15.563 4.844v-1.219q-.906 1.438-2.703 1.438-1.156 0-2.125-.64-.968-.641-1.5-1.782-.53-1.14-.53-2.625 0-1.453.483-2.625.485-1.188 1.438-1.813.969-.625 2.172-.625.875 0 1.547.375.687.36 1.11.954v-4.797h1.64v13.359zm-5.171-4.828q0 1.86.78 2.781.782.922 1.845.922 1.078 0 1.828-.875.75-.89.75-2.687 0-1.985-.766-2.907-.766-.937-1.89-.937-1.079 0-1.813.89-.734.891-.734 2.813m15.907 1.719 1.687.203q-.406 1.484-1.484 2.312-1.078.813-2.766.813-2.125 0-3.375-1.297-1.234-1.313-1.234-3.672 0-2.453 1.25-3.797 1.265-1.344 3.265-1.344 1.938 0 3.157 1.329 1.234 1.312 1.234 3.703v.437h-7.219q.094 1.594.906 2.453.813.844 2.016.844.906 0 1.547-.469.64-.484 1.016-1.515m-5.391-2.657h5.406q-.11-1.218-.625-1.828-.781-.953-2.031-.953-1.125 0-1.906.766-.766.75-.844 2.015m11.204-1.468q-1.016-.375-1.516-1.063-.484-.703-.484-1.672 0-1.453 1.047-2.437 1.046-1 2.78-1 1.75 0 2.813 1.015 1.078 1.016 1.078 2.47 0 .937-.5 1.624-.484.688-1.468 1.063 1.218.39 1.86 1.28.655.892.655 2.142 0 1.703-1.218 2.875-1.22 1.171-3.188 1.171-1.984 0-3.203-1.171-1.203-1.172-1.203-2.922 0-1.313.656-2.188.672-.875 1.89-1.187m-.328-2.782q0 .938.609 1.547.61.594 1.594.594.937 0 1.547-.594.609-.593.609-1.453 0-.906-.625-1.515-.625-.625-1.563-.625t-1.562.609q-.61.594-.61 1.437m-.532 6.157q0 .703.328 1.359.344.656 1 1.016.657.359 1.407.359 1.172 0 1.937-.75t.766-1.922q0-1.187-.797-1.953-.781-.781-1.953-.781-1.156 0-1.922.765-.766.766-.766 1.907"/>
        <path fill="#ccc" fill-rule="evenodd" d="M626.455 252.094h93.638v44.252h-93.638z"/>
        <path stroke="#000" stroke-linecap="butt" stroke-linejoin="round" d="M626.455 252.094h93.638v44.252h-93.638z"/>
        <path fill="#000" d="M648.57 281.14v-9.671h1.468v1.375q1.063-1.594 3.078-1.594.875 0 1.61.312.734.313 1.093.828.375.5.516 1.204.094.453.094 1.593v5.953h-1.64v-5.89q0-1-.204-1.485-.188-.5-.672-.796t-1.14-.297q-1.047 0-1.813.672-.75.656-.75 2.515v5.281zm9.766-4.843q0-2.688 1.484-3.969 1.25-1.078 3.047-1.078 2 0 3.266 1.312 1.265 1.297 1.265 3.61 0 1.86-.562 2.937-.563 1.063-1.64 1.656-1.063.594-2.33.594-2.03 0-3.28-1.297-1.25-1.312-1.25-3.765m1.687 0q0 1.86.797 2.797.813.921 2.047.921 1.219 0 2.031-.921.813-.938.813-2.844 0-1.797-.813-2.719t-2.031-.922q-1.234 0-2.047.922-.797.906-.797 2.766m15.563 4.843v-1.218q-.906 1.437-2.703 1.437-1.156 0-2.125-.64-.968-.641-1.5-1.782-.53-1.14-.53-2.625 0-1.453.483-2.625.485-1.187 1.438-1.812.969-.625 2.172-.625.875 0 1.547.375.687.36 1.11.953v-4.797h1.64v13.36zm-5.171-4.828q0 1.86.78 2.782.782.921 1.845.921 1.078 0 1.828-.875.75-.89.75-2.687 0-1.984-.766-2.906-.766-.938-1.89-.938-1.079 0-1.813.89-.734.891-.734 2.813m15.907 1.72 1.687.202q-.406 1.485-1.484 2.313-1.078.812-2.766.812-2.125 0-3.375-1.297-1.234-1.312-1.234-3.672 0-2.453 1.25-3.796 1.265-1.344 3.265-1.344 1.938 0 3.157 1.328 1.234 1.312 1.234 3.703v.438h-7.219q.094 1.593.906 2.453.813.843 2.016.843.906 0 1.547-.468.64-.485 1.016-1.516m-5.391-2.657h5.406q-.11-1.219-.625-1.828-.781-.953-2.031-.953-1.125 0-1.906.765-.766.75-.844 2.016m8.922 2.672 1.579-.14q.203 1.108.765 1.608t1.453.5q.75 0 1.313-.343.578-.344.937-.922.375-.578.61-1.563.25-.984.25-2v-.328q-.5.781-1.36 1.266-.843.484-1.828.484-1.672 0-2.812-1.203t-1.14-3.172q0-2.031 1.187-3.265 1.203-1.235 3-1.235 1.312 0 2.39.703t1.64 2 .563 3.75q0 2.563-.562 4.078t-1.656 2.313-2.579.797q-1.562 0-2.562-.875-.984-.875-1.188-2.453m6.72-5.89q0-1.407-.75-2.235t-1.813-.828q-1.094 0-1.907.89t-.812 2.313q0 1.281.766 2.078.78.797 1.906.797 1.14 0 1.875-.797.734-.797.734-2.219"/>
        <path fill="#ccc" fill-rule="evenodd" d="M354.396 470.047h121.45V514.3h-121.45z"/>
        <path stroke="#000" stroke-linecap="butt" stroke-linejoin="round" d="M354.396 470.047h121.45V514.3h-121.45z"/>
        <path fill="#000" d="m378.11 494.796 1.657-.14q.125 1 .546 1.64.438.641 1.344 1.047.922.39 2.063.39 1 0 1.78-.296.782-.297 1.157-.813.375-.53.375-1.156t-.375-1.094q-.36-.468-1.187-.796-.547-.204-2.391-.641-1.828-.453-2.562-.844-.97-.5-1.438-1.234-.469-.75-.469-1.672 0-1 .578-1.875.579-.89 1.672-1.344 1.11-.453 2.453-.453 1.485 0 2.61.484 1.14.47 1.75 1.407.61.922.656 2.093l-1.687.125q-.141-1.265-.938-1.906-.781-.656-2.312-.656-1.61 0-2.344.594-.735.593-.735 1.422 0 .718.532 1.171.5.47 2.656.97 2.156.484 2.953.843 1.172.531 1.719 1.36.562.827.562 1.906 0 1.062-.61 2.015-.608.938-1.75 1.469-1.14.516-2.577.516-1.813 0-3.047-.532-1.219-.53-1.922-1.593-.687-1.063-.719-2.407m13.038 4.297v-13.36h4.609q1.547 0 2.375.204 1.14.25 1.953.953 1.063.89 1.578 2.281.531 1.391.531 3.172 0 1.516-.359 2.703-.36 1.172-.922 1.938-.547.765-1.203 1.219-.656.437-1.594.671-.937.22-2.14.22zm1.765-1.578h2.86q1.312 0 2.062-.234.75-.25 1.203-.703.625-.625.969-1.688.36-1.062.36-2.578 0-2.094-.688-3.219t-1.672-1.5q-.703-.281-2.281-.281h-2.813zm11.63 1.578v-13.36h1.78v6.626l6.626-6.625h2.39l-5.593 5.422 5.843 7.937h-2.328l-4.765-6.765-2.172 2.14v4.625zm15.206 0 5.125-13.36h1.906l5.469 13.36h-2.016l-1.547-4.047h-5.594l-1.468 4.047zm3.86-5.484h4.53l-1.406-3.703q-.625-1.688-.937-2.766-.266 1.281-.72 2.547zm9.849 9.187v-13.375h1.484v1.25q.532-.734 1.188-1.093.672-.375 1.625-.375 1.234 0 2.172.64.953.625 1.437 1.797.485 1.156.485 2.547 0 1.484-.532 2.672-.531 1.187-1.547 1.828-1.015.625-2.14.625-.813 0-1.469-.344t-1.062-.875v4.703zm1.484-8.484q0 1.86.75 2.766.766.89 1.828.89 1.094 0 1.875-.922.782-.937.782-2.875 0-1.843-.766-2.765-.75-.922-1.812-.922-1.047 0-1.86.984-.797.969-.797 2.844m8.892 8.484v-13.375h1.484v1.25q.531-.734 1.187-1.093.672-.375 1.625-.375 1.235 0 2.172.64.953.625 1.438 1.797.484 1.156.484 2.547 0 1.484-.531 2.672-.531 1.187-1.547 1.828-1.016.625-2.14.625-.813 0-1.47-.344-.656-.344-1.062-.875v4.703zm1.484-8.484q0 1.86.75 2.766.766.89 1.828.89 1.094 0 1.875-.922.781-.937.781-2.875 0-1.843-.765-2.765-.75-.922-1.813-.922-1.047 0-1.86.984-.796.969-.796 2.844"/>
        <path fill="#ccc" fill-rule="evenodd" d="M608.84 470.047h121.449V514.3h-121.45z"/>
        <path stroke="#000" stroke-linecap="butt" stroke-linejoin="round" d="M608.84 470.047h121.449V514.3h-121.45z"/>
        <path fill="#000" d="m632.554 494.796 1.656-.14q.125 1 .547 1.64.437.641 1.344 1.047.922.39 2.062.39 1 0 1.781-.296.782-.297 1.157-.813.375-.53.375-1.156t-.375-1.094q-.36-.468-1.188-.796-.547-.204-2.39-.641-1.829-.453-2.563-.844-.969-.5-1.437-1.234-.47-.75-.47-1.672 0-1 .579-1.875.578-.89 1.672-1.344 1.11-.453 2.453-.453 1.484 0 2.61.484 1.14.47 1.75 1.407.609.922.656 2.093l-1.688.125q-.14-1.265-.937-1.906-.782-.656-2.313-.656-1.61 0-2.344.594-.734.593-.734 1.422 0 .718.531 1.171.5.47 2.656.97 2.157.484 2.954.843 1.171.531 1.718 1.36.563.827.563 1.906 0 1.062-.61 2.015-.609.938-1.75 1.469-1.14.516-2.578.516-1.812 0-3.047-.532-1.218-.53-1.921-1.593-.688-1.063-.72-2.407m13.037 4.297v-13.36h4.61q1.546 0 2.374.204 1.141.25 1.954.953 1.062.89 1.578 2.281.531 1.391.531 3.172 0 1.516-.36 2.703-.359 1.172-.921 1.938-.547.765-1.203 1.219-.657.437-1.594.671-.938.22-2.14.22zm1.766-1.578h2.86q1.312 0 2.062-.234.75-.25 1.203-.703.625-.625.968-1.688.36-1.062.36-2.578 0-2.094-.688-3.219t-1.672-1.5q-.703-.281-2.28-.281h-2.813zm11.629 1.578v-13.36h1.781v6.626l6.625-6.625h2.39l-5.593 5.422 5.844 7.937h-2.328l-4.766-6.765-2.172 2.14v4.625zm15.206 0 5.125-13.36h1.907l5.468 13.36h-2.015l-1.547-4.047h-5.594l-1.469 4.047zm3.86-5.484h4.53l-1.405-3.703q-.625-1.688-.938-2.766-.265 1.281-.719 2.547zm9.85 9.187v-13.375h1.484v1.25q.531-.734 1.187-1.093.672-.375 1.625-.375 1.235 0 2.172.64.953.625 1.438 1.797.484 1.156.484 2.547 0 1.484-.531 2.672-.531 1.187-1.547 1.828-1.016.625-2.14.625-.813 0-1.47-.344-.656-.344-1.062-.875v4.703zm1.484-8.484q0 1.86.75 2.766.765.89 1.828.89 1.094 0 1.875-.922.781-.937.781-2.875 0-1.843-.765-2.765-.75-.922-1.813-.922-1.047 0-1.86.984-.796.969-.796 2.844m8.891 8.484v-13.375h1.485v1.25q.53-.734 1.187-1.093.672-.375 1.625-.375 1.234 0 2.172.64.953.625 1.437 1.797.485 1.156.485 2.547 0 1.484-.531 2.672-.532 1.187-1.547 1.828-1.016.625-2.141.625-.812 0-1.469-.344-.656-.344-1.062-.875v4.703zm1.485-8.484q0 1.86.75 2.766.765.89 1.828.89 1.093 0 1.875-.922.78-.937.78-2.875 0-1.843-.765-2.765-.75-.922-1.812-.922-1.047 0-1.86.984-.796.969-.796 2.844"/>
        <path fill="none" d="m164.866 470.047 4-152.031"/>
        <path stroke="#f0f" stroke-dasharray="8.0,6.0" stroke-linecap="butt" stroke-linejoin="round" stroke-width="2" d="m164.866 470.047 4-152.031"/>
        <path fill="none" d="M183.94 376.659h67.937v82.425H183.94z"/>
        <path fill="#000" d="M194.299 402.299v-12.406h5.5q1.656 0 2.516.343.875.328 1.39 1.172.516.844.516 1.875 0 1.313-.86 2.219-.859.906-2.64 1.156.656.313 1 .61.719.671 1.36 1.656l2.156 3.375h-2.063l-1.64-2.578q-.72-1.125-1.188-1.703-.469-.594-.844-.829-.36-.25-.734-.343-.281-.063-.922-.063h-1.906v5.516zm1.64-6.922h3.532q1.125 0 1.75-.234.64-.235.969-.75.343-.516.343-1.11 0-.89-.64-1.453-.64-.562-2.031-.562h-3.922zm16.811 4.031 1.563.188q-.36 1.39-1.375 2.156-1 .75-2.563.75-1.984 0-3.14-1.203-1.14-1.219-1.14-3.422 0-2.266 1.155-3.516 1.172-1.25 3.032-1.25 1.812 0 2.953 1.235 1.14 1.218 1.14 3.437 0 .14-.015.406h-6.703q.093 1.485.843 2.282.75.78 1.875.78.844 0 1.438-.437t.937-1.406m-5-2.469h5.016q-.11-1.125-.578-1.703-.735-.875-1.89-.875-1.048 0-1.766.703-.704.704-.782 1.875m14.34 4.25q-.843.72-1.624 1.016t-1.672.297q-1.485 0-2.282-.719-.796-.734-.796-1.86 0-.655.296-1.202.313-.547.797-.875t1.094-.5q.438-.11 1.344-.22 1.844-.218 2.719-.53.015-.313.015-.39 0-.938-.437-1.313-.578-.516-1.735-.516-1.078 0-1.593.375-.5.375-.75 1.328l-1.485-.203q.203-.953.656-1.531.47-.594 1.344-.907.89-.328 2.047-.328 1.156 0 1.875.282.719.265 1.047.671.344.407.484 1.032.078.39.078 1.406v2.031q0 2.125.094 2.688.094.562.39 1.078h-1.593q-.234-.469-.312-1.11m-.124-3.406q-.829.344-2.485.578-.937.14-1.328.313-.39.172-.61.5-.202.312-.202.719 0 .609.453 1.015.468.406 1.359.406.875 0 1.563-.39t1.015-1.047q.235-.516.235-1.531zm9.73 4.516v-1.14q-.843 1.343-2.515 1.343-1.063 0-1.969-.594t-1.406-1.656q-.485-1.063-.485-2.438 0-1.343.438-2.437.453-1.094 1.344-1.672.906-.594 2.015-.594.813 0 1.438.344.64.344 1.047.89v-4.452h1.515v12.406zm-4.812-4.485q0 1.72.719 2.579.734.859 1.734.859.984 0 1.688-.813.703-.828.703-2.5 0-1.843-.72-2.703-.702-.86-1.75-.86-1.015 0-1.702.83-.672.827-.672 2.608M194.44 423.099v-7.797h-1.344v-1.188h1.344v-.953q0-.906.172-1.343.218-.594.765-.954.563-.375 1.563-.375.64 0 1.422.141l-.235 1.328q-.469-.078-.89-.078-.704 0-1 .297-.282.297-.282 1.11v.827h1.75v1.188h-1.75v7.797zm4.439 0v-8.985h1.375v1.36q.516-.953.953-1.25.453-.313.984-.313.782 0 1.563.485l-.516 1.422q-.562-.329-1.125-.329-.5 0-.89.297t-.563.828q-.265.813-.265 1.782v4.703zm5.223-4.5q0-2.485 1.391-3.688 1.156-1 2.813-1 1.859 0 3.03 1.219 1.188 1.203 1.188 3.344 0 1.734-.53 2.734-.517 1-1.517 1.547-.984.547-2.171.547-1.875 0-3.047-1.203-1.157-1.219-1.157-3.5m1.563 0q0 1.734.75 2.594t1.89.859 1.891-.86q.75-.874.75-2.64 0-1.656-.75-2.516t-1.89-.86-1.891.86q-.75.844-.75 2.563m8.637 4.5v-8.985h1.36v1.266q.421-.672 1.124-1.062.704-.407 1.61-.407 1 0 1.625.422.64.406.906 1.156 1.063-1.578 2.781-1.578 1.328 0 2.047.75.719.735.719 2.266v6.172h-1.516v-5.656q0-.922-.156-1.313-.14-.406-.531-.656-.375-.25-.906-.25-.954 0-1.579.64-.625.625-.625 2.016v5.219h-1.515v-5.844q0-1.016-.375-1.516-.375-.515-1.219-.515-.64 0-1.187.344t-.797 1q-.235.64-.235 1.875v4.656zM194.049 443.899v-12.406h1.516v12.406zm3.319-4.5q0-2.485 1.39-3.688 1.156-1 2.813-1 1.859 0 3.03 1.219 1.188 1.203 1.188 3.344 0 1.734-.53 2.734-.516 1-1.516 1.547-.985.547-2.172.547-1.875 0-3.047-1.203-1.156-1.219-1.156-3.5m1.562 0q0 1.734.75 2.594t1.89.859 1.891-.86q.75-.874.75-2.64 0-1.656-.75-2.516t-1.89-.86-1.891.86q-.75.844-.75 2.563m14.496 1.203 1.5.203q-.234 1.547-1.25 2.422-1.015.875-2.484.875-1.844 0-2.969-1.203t-1.125-3.453q0-1.47.485-2.547.484-1.094 1.468-1.64.985-.548 2.141-.548 1.469 0 2.39.75.938.735 1.204 2.094l-1.485.219q-.203-.89-.75-1.344-.53-.469-1.296-.469-1.141 0-1.875.828-.72.829-.72 2.61 0 1.812.688 2.64.703.813 1.828.813.891 0 1.485-.547.61-.562.765-1.703m8.665 2.187q-.844.72-1.625 1.016-.782.297-1.672.297-1.485 0-2.282-.719-.796-.734-.796-1.86 0-.655.296-1.202.313-.547.797-.875t1.094-.5q.438-.11 1.344-.22 1.844-.218 2.719-.53.015-.313.015-.391 0-.937-.437-1.312-.578-.516-1.735-.516-1.078 0-1.593.375-.5.375-.75 1.328l-1.485-.203q.203-.953.656-1.531.47-.594 1.344-.907.89-.328 2.047-.328 1.156 0 1.875.282.719.265 1.047.671.344.407.484 1.032.078.39.078 1.406v2.031q0 2.125.094 2.688.094.562.39 1.078h-1.593q-.234-.469-.312-1.11m-.125-3.406q-.829.344-2.485.578-.937.14-1.328.313-.39.172-.61.5-.202.312-.202.719 0 .609.453 1.015.468.406 1.359.406.875 0 1.563-.39t1.015-1.047q.235-.516.235-1.531zm3.871 4.516v-12.406h1.516v12.406z"/>
        <path fill="none" d="M354.396 387.622h67.937v82.425h-67.937z"/>
        <path fill="#000" d="M364.756 413.262v-12.406h5.5q1.656 0 2.515.344.875.328 1.39 1.171.517.844.517 1.875 0 1.313-.86 2.22-.86.905-2.64 1.155.656.313 1 .61.718.672 1.359 1.656l2.156 3.375h-2.062l-1.64-2.578q-.72-1.125-1.188-1.703-.47-.594-.844-.828-.36-.25-.735-.344-.28-.063-.921-.063h-1.907v5.516zm1.64-6.922h3.532q1.125 0 1.75-.234.64-.235.968-.75.344-.516.344-1.11 0-.89-.64-1.453-.641-.562-2.032-.562h-3.922zm16.811 4.031 1.563.188q-.36 1.39-1.375 2.156-1 .75-2.563.75-1.984 0-3.14-1.203-1.141-1.219-1.141-3.422 0-2.265 1.156-3.515 1.172-1.25 3.031-1.25 1.813 0 2.953 1.234 1.141 1.219 1.141 3.437 0 .141-.016.407h-6.703q.094 1.484.844 2.28.75.782 1.875.782.844 0 1.438-.437.593-.438.937-1.407m-5-2.468h5.016q-.11-1.125-.578-1.703-.735-.875-1.891-.875-1.047 0-1.766.703-.703.703-.781 1.875m14.34 4.25q-.844.718-1.625 1.015t-1.672.297q-1.484 0-2.28-.719-.798-.734-.798-1.859 0-.656.297-1.203.313-.547.797-.875t1.094-.5q.437-.11 1.343-.219 1.844-.219 2.72-.531.015-.313.015-.39 0-.938-.438-1.313-.578-.516-1.734-.516-1.078 0-1.594.375-.5.375-.75 1.328l-1.484-.203q.203-.953.656-1.531.469-.594 1.344-.906.89-.328 2.047-.328 1.156 0 1.875.28.718.266 1.047.673.343.406.484 1.03.078.392.078 1.407v2.031q0 2.125.094 2.688.094.562.39 1.078h-1.593q-.235-.469-.313-1.11m-.125-3.407q-.828.344-2.484.579-.938.14-1.328.312t-.61.5q-.203.313-.203.719 0 .61.453 1.015.47.407 1.36.407.875 0 1.562-.391.688-.39 1.016-1.047.234-.515.234-1.531zm9.731 4.516v-1.14q-.844 1.343-2.516 1.343-1.062 0-1.968-.594-.907-.593-1.407-1.656-.484-1.062-.484-2.437 0-1.344.438-2.438.453-1.094 1.343-1.672.907-.593 2.016-.593.812 0 1.437.343.641.344 1.047.89v-4.452h1.516v12.406zm-4.812-4.484q0 1.718.718 2.578.735.86 1.735.86.984 0 1.687-.813.703-.828.703-2.5 0-1.844-.718-2.703-.704-.86-1.75-.86-1.016 0-1.704.828-.671.828-.671 2.61M364.896 434.062v-7.797h-1.343v-1.187h1.343v-.953q0-.907.172-1.344.219-.594.766-.953.562-.375 1.562-.375.641 0 1.422.14l-.234 1.328q-.469-.078-.89-.078-.704 0-1 .297-.282.297-.282 1.11v.828h1.75v1.187h-1.75v7.797zm4.44 0v-8.984h1.375v1.359q.515-.953.953-1.25.453-.312.984-.312.781 0 1.563.484l-.516 1.422q-.562-.328-1.125-.328-.5 0-.89.297-.391.296-.563.828-.266.812-.266 1.78v4.704zm5.223-4.5q0-2.484 1.39-3.687 1.157-1 2.813-1 1.86 0 3.032 1.218 1.187 1.203 1.187 3.344 0 1.734-.531 2.734-.516 1-1.516 1.547-.984.547-2.172.547-1.875 0-3.047-1.203-1.156-1.219-1.156-3.5m1.563 0q0 1.734.75 2.594t1.89.86 1.89-.86q.75-.875.75-2.64 0-1.657-.75-2.516-.75-.86-1.89-.86t-1.89.86q-.75.843-.75 2.562m8.637 4.5v-8.984h1.36v1.265q.421-.672 1.124-1.062.703-.406 1.61-.406 1 0 1.625.421.64.407.906 1.157 1.062-1.578 2.781-1.578 1.328 0 2.047.75.719.734.719 2.265v6.172h-1.516v-5.656q0-.922-.156-1.313-.14-.406-.531-.656-.375-.25-.907-.25-.953 0-1.578.64-.625.626-.625 2.016v5.219h-1.515v-5.844q0-1.015-.375-1.515-.375-.516-1.22-.516-.64 0-1.187.344t-.797 1q-.234.64-.234 1.875v4.656zM364.506 454.862v-12.406h1.515v12.406zm3.318-4.5q0-2.484 1.39-3.687 1.157-1 2.813-1 1.86 0 3.032 1.218 1.187 1.203 1.187 3.344 0 1.734-.531 2.734-.516 1-1.516 1.547-.984.547-2.172.547-1.875 0-3.047-1.203-1.156-1.219-1.156-3.5m1.563 0q0 1.734.75 2.594t1.89.86 1.891-.86q.75-.875.75-2.64 0-1.657-.75-2.516-.75-.86-1.89-.86-1.141 0-1.891.86-.75.843-.75 2.562m14.496 1.203 1.5.203q-.234 1.547-1.25 2.422-1.015.875-2.484.875-1.844 0-2.969-1.203t-1.125-3.453q0-1.469.484-2.547.485-1.094 1.47-1.64.984-.547 2.14-.547 1.469 0 2.39.75.938.734 1.204 2.093l-1.485.219q-.203-.89-.75-1.344-.531-.468-1.297-.468-1.14 0-1.875.828-.718.828-.718 2.609 0 1.813.687 2.64.703.813 1.828.813.89 0 1.485-.547.609-.562.765-1.703m8.664 2.188q-.844.718-1.625 1.015t-1.672.297q-1.484 0-2.28-.719-.798-.734-.798-1.859 0-.656.297-1.203.313-.547.797-.875t1.094-.5q.437-.11 1.343-.219 1.844-.219 2.72-.531.015-.313.015-.39 0-.938-.438-1.313-.578-.516-1.734-.516-1.078 0-1.594.375-.5.375-.75 1.328l-1.484-.203q.203-.953.656-1.531.469-.594 1.344-.906.89-.328 2.047-.328 1.156 0 1.875.28.718.266 1.047.673.343.406.484 1.03.078.392.078 1.407v2.031q0 2.125.094 2.688.094.562.39 1.078h-1.593q-.235-.469-.313-1.11m-.125-3.407q-.828.344-2.484.579-.938.14-1.328.312t-.61.5q-.203.313-.203.719 0 .61.453 1.015.47.407 1.36.407.875 0 1.562-.391.688-.39 1.016-1.047.234-.515.234-1.531zm3.872 4.516v-12.406h1.515v12.406z"/>
        <path fill="none" d="M595.86 382.14h67.937v82.424H595.86z"/>
        <path fill="#000" d="M606.219 407.78v-12.407h5.5q1.656 0 2.516.344.875.328 1.39 1.171.516.844.516 1.875 0 1.313-.86 2.22-.859.905-2.64 1.155.656.313 1 .61.719.672 1.36 1.656l2.155 3.375h-2.062l-1.64-2.578q-.72-1.125-1.188-1.703-.469-.594-.844-.828-.36-.25-.734-.344-.282-.063-.922-.063h-1.906v5.516zm1.64-6.923h3.532q1.125 0 1.75-.234.64-.235.969-.75.343-.516.343-1.11 0-.89-.64-1.453-.64-.562-2.032-.562h-3.921zm16.811 4.031 1.563.188q-.36 1.39-1.375 2.156-1 .75-2.563.75-1.984 0-3.14-1.203-1.141-1.219-1.141-3.422 0-2.265 1.156-3.515 1.172-1.25 3.032-1.25 1.812 0 2.953 1.234 1.14 1.219 1.14 3.437 0 .141-.015.407h-6.703q.093 1.484.843 2.281.75.781 1.875.781.844 0 1.438-.437.594-.438.937-1.407m-5-2.468h5.016q-.11-1.125-.578-1.703-.735-.875-1.89-.875-1.048 0-1.766.703-.704.703-.782 1.875m14.34 4.25q-.843.718-1.625 1.015-.78.297-1.671.297-1.485 0-2.282-.719-.797-.734-.797-1.859 0-.656.297-1.203.313-.547.797-.875t1.094-.5q.437-.11 1.344-.219 1.843-.219 2.718-.531.016-.313.016-.39 0-.938-.437-1.313-.579-.516-1.735-.516-1.078 0-1.594.375-.5.375-.75 1.328l-1.484-.203q.203-.953.656-1.531.47-.594 1.344-.906.89-.328 2.047-.328 1.156 0 1.875.28.719.266 1.047.673.344.406.484 1.031.078.39.078 1.406v2.031q0 2.125.094 2.688.094.562.39 1.078h-1.593q-.234-.469-.313-1.11m-.125-3.407q-.828.344-2.484.579-.937.14-1.328.312-.39.172-.61.5-.203.313-.203.719 0 .61.454 1.015.468.407 1.359.407.875 0 1.562-.39.688-.392 1.016-1.048.234-.515.234-1.531zm9.731 4.516v-1.14q-.843 1.343-2.515 1.343-1.063 0-1.969-.594-.906-.593-1.406-1.656-.485-1.062-.485-2.437 0-1.344.438-2.438.453-1.094 1.344-1.672.906-.593 2.015-.593.813 0 1.438.343.64.344 1.047.891v-4.453h1.515v12.406zm-4.812-4.484q0 1.718.719 2.578.734.86 1.734.86.984 0 1.687-.813.704-.828.704-2.5 0-1.844-.72-2.703-.702-.86-1.75-.86-1.015 0-1.702.828-.672.828-.672 2.61M606.36 428.58v-7.798h-1.344v-1.187h1.344v-.953q0-.907.171-1.344.22-.594.766-.953.563-.375 1.563-.375.64 0 1.421.14l-.234 1.328q-.469-.078-.89-.078-.704 0-1 .297-.282.297-.282 1.11v.828h1.75v1.187h-1.75v7.797zm4.439 0v-8.985h1.375v1.36q.516-.954.953-1.25.453-.313.984-.313.782 0 1.563.484l-.516 1.422q-.562-.328-1.125-.328-.5 0-.89.297-.391.296-.563.828-.265.812-.265 1.781v4.703zm5.223-4.5q0-2.485 1.391-3.688 1.156-1 2.813-1 1.859 0 3.03 1.218 1.188 1.203 1.188 3.344 0 1.734-.531 2.734-.516 1-1.516 1.547-.984.547-2.171.547-1.875 0-3.047-1.203-1.157-1.219-1.157-3.5m1.563 0q0 1.733.75 2.593t1.89.86q1.141 0 1.891-.86.75-.875.75-2.64 0-1.657-.75-2.516-.75-.86-1.89-.86-1.141 0-1.891.86-.75.843-.75 2.562m8.637 4.5v-8.985h1.36v1.265q.421-.672 1.124-1.062.703-.406 1.61-.406 1 0 1.625.421.64.407.906 1.157 1.062-1.578 2.781-1.578 1.328 0 2.047.75.719.734.719 2.265v6.172h-1.516v-5.656q0-.922-.156-1.313-.14-.406-.531-.656-.375-.25-.907-.25-.953 0-1.578.64-.625.626-.625 2.016v5.22h-1.515v-5.845q0-1.015-.375-1.515-.375-.516-1.219-.516-.64 0-1.188.344-.546.344-.796 1-.235.64-.235 1.875v4.656zM605.969 449.38v-12.407h1.516v12.406zm3.318-4.5q0-2.485 1.391-3.688 1.156-1 2.813-1 1.859 0 3.03 1.218 1.188 1.203 1.188 3.344 0 1.734-.53 2.734-.517 1-1.517 1.547-.984.547-2.171.547-1.875 0-3.047-1.203-1.157-1.219-1.157-3.5m1.563 0q0 1.733.75 2.593t1.89.86q1.141 0 1.891-.86.75-.875.75-2.64 0-1.657-.75-2.516-.75-.86-1.89-.86-1.141 0-1.891.86-.75.843-.75 2.562m14.496 1.202 1.5.203q-.234 1.547-1.25 2.422-1.015.875-2.484.875-1.844 0-2.969-1.203t-1.125-3.453q0-1.469.485-2.547.484-1.094 1.468-1.64.985-.547 2.141-.547 1.469 0 2.39.75.938.734 1.204 2.093l-1.485.22q-.203-.892-.75-1.345-.53-.468-1.296-.468-1.141 0-1.875.828-.72.828-.72 2.61 0 1.812.688 2.64.703.812 1.828.812.891 0 1.485-.547.61-.562.765-1.703m8.664 2.188q-.843.718-1.625 1.015-.78.297-1.671.297-1.485 0-2.282-.719-.797-.734-.797-1.859 0-.656.297-1.203.313-.547.797-.875t1.094-.5q.437-.11 1.344-.219 1.843-.219 2.718-.531.016-.313.016-.39 0-.938-.437-1.313-.579-.516-1.735-.516-1.078 0-1.594.375-.5.375-.75 1.328l-1.484-.203q.203-.953.656-1.531.47-.594 1.344-.906.89-.328 2.047-.328 1.156 0 1.875.28.719.266 1.047.673.344.406.484 1.031.078.39.078 1.406v2.031q0 2.125.094 2.688.094.562.39 1.078h-1.593q-.234-.469-.313-1.11m-.125-3.407q-.828.344-2.484.579-.937.14-1.328.312-.39.172-.61.5-.203.313-.203.719 0 .61.454 1.015.468.407 1.359.407.875 0 1.562-.39.688-.392 1.016-1.048.234-.515.234-1.531zm3.872 4.516v-12.406h1.516v12.406z"/>
        <path fill="none" d="m418.869 470.328-1.859-152.315"/>
        <path stroke="#00f" stroke-dasharray="8.0,6.0" stroke-linecap="butt" stroke-linejoin="round" stroke-width="2" d="m418.869 470.328-1.859-152.315"/>
        <path fill="none" d="M595.86 427.373h67.938v40.41H595.86zM671.013 474.44 669.564 318"/>
        <path stroke="#f90" stroke-dasharray="8.0,6.0" stroke-linecap="butt" stroke-linejoin="round" stroke-width="2" d="M671.013 474.44 669.564 318"/>
    </g>
</svg>
