<svg version="1.1" viewBox="0.0 0.0 533.0 157.0" fill="none" stroke="none" stroke-linecap="square" stroke-miterlimit="10" preserveAspectRatio="none" width="533" height="157" xmlns:xlink="http://www.w3.org/1999/xlink" xmlns="http://www.w3.org/2000/svg"><clipPath id="id_0"><path d="M0 0L533.0 0L533.0 157.0L0 157.0L0 0Z" clip-rule="nonzero"/></clipPath><path fill="#000000" fill-opacity="0.0" clip-path="url(#id_0)" d="M-100.07331 -80.5719L788.94867 -80.5719L788.94867 589.6675L-100.07331 589.6675Z" fill-rule="evenodd"/><path fill="#efefef" clip-path="url(#id_0)" d="M0.4642476 0.46666563L532.53577 0.46666563L532.53577 156.53334L0.4642476 156.53334Z" fill-rule="evenodd"/><path stroke="#000000" stroke-width="0.9284731549658509" stroke-linejoin="round" stroke-linecap="butt" clip-path="url(#id_0)" d="M0.4642476 0.46666563L532.53577 0.46666563L532.53577 156.53334L0.4642476 156.53334Z" fill-rule="evenodd"/><clipPath id="id_1"><path d="M-5.551115E-17 5.551115E-17L533.0 5.551115E-17L533.0 157.0L-5.551115E-17 157.0L-5.551115E-17 5.551115E-17Z" clip-rule="nonzero"/></clipPath><path fill="#000000" clip-path="url(#id_1)" d="M237.67204 25.526169L237.67204 13.090087L242.93904 13.090087Q244.92139 13.090087 245.81851 13.424624Q246.71564 13.759163 247.25102 14.617325Q247.7864 15.475488 247.7864 16.580917Q247.7864 17.97725 246.96162 18.89359Q246.15132 19.79539 244.5307 20.042656Q245.34102 20.5081 245.86192 21.089905Q246.39731 21.657166 247.27997 23.097132L248.79929 25.526169L245.80405 25.526169L244.0098 22.820776Q243.04033 21.366262 242.67857 20.988089Q242.3313 20.609917 241.92615 20.47901Q241.53546 20.333559 240.68175 20.333559L240.17531 20.333559L240.17531 25.526169L237.67204 25.526169ZM240.17531 18.355421L242.02744 18.355421Q243.82169 18.355421 244.27025 18.20997Q244.71881 18.049974 244.9648 17.6718Q245.22525 17.293629 245.22525 16.740913Q245.22525 16.115473 244.89246 15.7373Q244.55965 15.344581 243.95192 15.242765Q243.64806 15.19913 242.12872 15.19913L240.17531 15.19913L240.17531 18.355421ZM252.92706 25.526169L252.92706 15.19913L249.26622 15.19913L249.26622 13.090087L259.0912 13.090087L259.0912 15.19913L255.43033 15.19913L255.43033 25.526169L252.92706 25.526169ZM259.8835 19.388126Q259.8835 17.482714 260.44785 16.202744Q260.86746 15.242765 261.59094 14.500964Q262.32892 13.744617 263.19708 13.380989Q264.35468 12.886455 265.85953 12.886455Q268.5943 12.886455 270.2294 14.588235Q271.87894 16.290014 271.87894 19.329945Q271.87894 22.340786 270.24387 24.042566Q268.62326 25.744345 265.90292 25.744345Q263.13922 25.744345 261.50412 24.057112Q259.8835 22.355331 259.8835 19.388126ZM262.45914 19.300856Q262.45914 21.409899 263.42862 22.500782Q264.39807 23.591667 265.88846 23.591667Q267.37885 23.591667 268.33386 22.515327Q269.30334 21.424444 269.30334 19.271765Q269.30334 17.13363 268.3628 16.086382Q267.43674 15.024589 265.88846 15.024589Q264.3402 15.024589 263.39966 16.100927Q262.45914 17.162722 262.45914 19.300856ZM281.07397 25.526169L277.45654 16.522736L279.94534 16.522736L281.6383 21.118996L282.13025 22.646235Q282.31836 22.064428 282.37625 21.875341Q282.492 21.49717 282.62222 21.118996L284.32968 16.522736L286.7606 16.522736L283.20102 25.526169L281.07397 25.526169ZM295.71802 23.31531L295.71802 25.526169L287.41238 25.526169Q287.5426 24.275288 288.20822 23.155313Q288.8883 22.020794 290.88513 20.173563Q292.49127 18.66087 292.853 18.137245Q293.34497 17.395443 293.34497 16.668188Q293.34497 15.8827505 292.9109 15.460942Q292.49127 15.024589 291.73883 15.024589Q291.0009 15.024589 290.5523 15.475488Q290.11823 15.911841 290.04587 16.95909L287.6873 16.726368Q287.90436 14.762776 289.00406 13.9046135Q290.11823 13.046452 291.79672 13.046452Q293.6199 13.046452 294.6617 14.03552Q295.71802 15.024589 295.71802 16.50819Q295.71802 17.337263 295.41415 18.108154Q295.12476 18.864502 294.47363 19.693573Q294.03952 20.246288 292.9109 21.278992Q291.79672 22.311695 291.49286 22.660778Q291.20346 22.995317 291.01535 23.31531L295.71802 23.31531Z" fill-rule="nonzero"/><path fill="#cfe2f3" clip-path="url(#id_0)" d="M21.331083 74.8302L150.30928 74.8302L150.30928 135.84367L21.331083 135.84367Z" fill-rule="evenodd"/><path stroke="#000000" stroke-width="0.9284731549658509" stroke-linejoin="round" stroke-linecap="butt" clip-path="url(#id_0)" d="M21.331083 74.8302L150.30928 74.8302L150.30928 135.84367L21.331083 135.84367Z" fill-rule="evenodd"/><path fill="#000000" clip-path="url(#id_0)" d="M61.821884 111.77868L61.821884 100.81165L57.741413 100.81165L57.741413 99.3426L67.53744 99.3426L67.53744 100.81165L63.45697 100.81165L63.45697 111.77868L61.821884 111.77868ZM68.37683 111.77868L68.37683 102.775246L69.736984 102.775246L69.736984 104.14249Q70.2579 103.18251 70.691986 102.87707Q71.14055 102.57162 71.675934 102.57162Q72.44283 102.57162 73.23867 103.066154L72.71776 104.47703Q72.153435 104.14249 71.603584 104.14249Q71.097145 104.14249 70.70646 104.44794Q70.31577 104.75339 70.142136 105.27701Q69.88168 106.09154 69.88168 107.06606L69.88168 111.77868L68.37683 111.77868ZM79.99042 110.67325Q79.1367 111.38596 78.35534 111.69141Q77.58844 111.982315 76.691315 111.982315Q75.2154 111.982315 74.41956 111.25506Q73.623726 110.5278 73.623726 109.40782Q73.623726 108.73875 73.92759 108.20058Q74.23145 107.647865 74.70896 107.32787Q75.20093 106.99333 75.80866 106.818794Q76.24275 106.70243 77.15435 106.58607Q78.992004 106.3679 79.86019 106.06245Q79.874664 105.742455 79.874664 105.66973Q79.874664 104.73884 79.44057 104.34612Q78.86178 103.83704 77.7042 103.83704Q76.63344 103.83704 76.12699 104.21522Q75.62055 104.59339 75.374565 105.53882L73.884186 105.33519Q74.08676 104.389755 74.54979 103.80795Q75.012825 103.2116 75.89548 102.89161Q76.77814 102.57162 77.92124 102.57162Q79.07883 102.57162 79.78784 102.84798Q80.51133 103.10979 80.84414 103.53159Q81.191414 103.93886 81.32164 104.5643Q81.39399 104.957016 81.39399 105.975174L81.39399 108.01149Q81.39399 110.13508 81.49528 110.70234Q81.596565 111.25506 81.87149 111.77868L80.29429 111.77868Q80.0483 111.29869 79.99042 110.67325ZM79.86019 107.25515Q79.035416 107.60423 77.385864 107.83695Q76.44533 107.96786 76.05465 108.1424Q75.66396 108.31694 75.446915 108.63693Q75.24434 108.956924 75.24434 109.36419Q75.24434 109.97508 75.707375 110.38235Q76.1704 110.78961 77.05306 110.78961Q77.92124 110.78961 78.601326 110.41144Q79.295876 110.01872 79.614204 109.34965Q79.86019 108.82602 79.86019 107.8224L79.86019 107.25515ZM89.59901 108.47694L91.08939 108.68057Q90.84341 110.22235 89.83052 111.109604Q88.83211 111.982315 87.35619 111.982315Q85.51853 111.982315 84.40436 110.77507Q83.29019 109.567825 83.29019 107.313324Q83.29019 105.84427 83.76769 104.75339Q84.24519 103.6625 85.22914 103.12433Q86.21308 102.57162 87.37066 102.57162Q88.83211 102.57162 89.75817 103.313416Q90.684235 104.05522 90.944695 105.42246L89.46878 105.64064Q89.25173 104.73884 88.71635 104.28794Q88.18097 103.822495 87.42854 103.822495Q86.28543 103.822495 85.56194 104.65157Q84.838455 105.480644 84.838455 107.26969Q84.838455 109.08783 85.533005 109.91691Q86.227554 110.73143 87.34172 110.73143Q88.238846 110.73143 88.83211 110.17872Q89.439835 109.626 89.59901 108.47694ZM92.39167 101.10256L92.39167 99.3426L93.910995 99.3426L93.910995 101.10256L92.39167 101.10256ZM92.39167 111.77868L92.39167 102.775246L93.910995 102.775246L93.910995 111.77868L92.39167 111.77868ZM96.23004 111.77868L96.23004 102.775246L97.590195 102.775246L97.590195 104.05522Q98.57414 102.57162 100.44074 102.57162Q101.251045 102.57162 101.93113 102.86252Q102.611206 103.15342 102.94401 103.63341Q103.29128 104.098854 103.42151 104.75339Q103.50833 105.17519 103.50833 106.236984L103.50833 111.77868L101.989006 111.77868L101.989006 106.295166Q101.989006 105.36428 101.800896 104.91338Q101.62726 104.44794 101.178696 104.17158Q100.73013 103.895226 100.122406 103.895226Q99.15293 103.895226 98.44392 104.52066Q97.74937 105.13156 97.74937 106.86243L97.74937 111.77868L96.23004 111.77868ZM105.54923 112.520485L107.02515 112.738655Q107.126434 113.43682 107.54606 113.74227Q108.110374 114.16408 109.09432 114.16408Q110.15061 114.16408 110.714935 113.74227Q111.293724 113.320465 111.4963 112.56412Q111.61206 112.09867 111.59759 110.600525Q110.61365 111.77868 109.12326 111.77868Q107.27113 111.77868 106.25825 110.44053Q105.24536 109.10238 105.24536 107.22606Q105.24536 105.93154 105.7084 104.84065Q106.1859 103.74977 107.054085 103.16797Q107.93674 102.57162 109.13773 102.57162Q110.714935 102.57162 111.74229 103.851585L111.74229 102.775246L113.14585 102.775246L113.14585 110.55689Q113.14585 112.66593 112.71176 113.53864Q112.29214 114.41135 111.36607 114.920425Q110.454475 115.429504 109.09432 115.429504Q107.50265 115.429504 106.504234 114.70225Q105.52029 113.98954 105.54923 112.520485ZM106.8081 107.109695Q106.8081 108.8842 107.50265 109.69873Q108.21166 110.51325 109.26796 110.51325Q110.309784 110.51325 111.0188 109.71327Q111.72781 108.89874 111.72781 107.16788Q111.72781 105.509735 110.98986 104.68066Q110.26637 103.83704 109.23902 103.83704Q108.226135 103.83704 107.51712 104.666115Q106.8081 105.480644 106.8081 107.109695Z" fill-rule="nonzero"/><path fill="#cfe2f3" clip-path="url(#id_0)" d="M174.79286 74.8302L303.77106 74.8302L303.77106 135.84367L174.79286 135.84367Z" fill-rule="evenodd"/><path stroke="#000000" stroke-width="0.9284731549658509" stroke-linejoin="round" stroke-linecap="butt" clip-path="url(#id_0)" d="M174.79286 74.8302L303.77106 74.8302L303.77106 135.84367L174.79286 135.84367Z" fill-rule="evenodd"/><path fill="#000000" clip-path="url(#id_0)" d="M212.73524 111.77868L212.73524 99.3426L215.19511 99.3426L218.118 108.1424Q218.52315 109.37874 218.71126 109.98963Q218.9283 109.30601 219.3624 107.99695L222.3287 99.3426L224.5281 99.3426L224.5281 111.77868L222.9509 111.77868L222.9509 101.378914L219.3624 111.77868L217.88649 111.77868L214.31245 101.18983L214.31245 111.77868L212.73524 111.77868ZM233.11751 108.8842L234.68025 109.07329Q234.30403 110.45507 233.30562 111.22597Q232.3072 111.982315 230.74448 111.982315Q228.77658 111.982315 227.619 110.77507Q226.47589 109.553276 226.47589 107.356964Q226.47589 105.07338 227.63347 103.822495Q228.80553 102.57162 230.65765 102.57162Q232.4519 102.57162 233.58055 103.80795Q234.72366 105.02974 234.72366 107.25515Q234.72366 107.4006 234.72366 107.66241L228.03864 107.66241Q228.12544 109.14601 228.87787 109.94599Q229.63031 110.73143 230.74448 110.73143Q231.58372 110.73143 232.17699 110.295074Q232.77023 109.84418 233.11751 108.8842ZM228.12544 106.41153L233.13199 106.41153Q233.0307 105.27701 232.55319 104.70975Q231.82971 103.822495 230.67212 103.822495Q229.63031 103.822495 228.90681 104.53521Q228.1978 105.233376 228.12544 106.41153ZM239.9045 110.41144L240.12154 111.76414Q239.48488 111.89504 238.97842 111.89504Q238.15366 111.89504 237.69063 111.63323Q237.24207 111.371414 237.05396 110.94961Q236.86584 110.51325 236.86584 109.14601L236.86584 103.9534L235.75168 103.9534L235.75168 102.775246L236.86584 102.775246L236.86584 100.54984L238.3707 99.6335L238.3707 102.775246L239.9045 102.775246L239.9045 103.9534L238.3707 103.9534L238.3707 109.233284Q238.3707 109.87327 238.44305 110.062355Q238.52986 110.25144 238.7035 110.367805Q238.89162 110.46962 239.23889 110.46962Q239.48488 110.46962 239.9045 110.41144ZM241.37653 111.77868L241.37653 102.775246L242.73668 102.775246L242.73668 104.14249Q243.2576 103.18251 243.69168 102.87707Q244.14024 102.57162 244.67563 102.57162Q245.44254 102.57162 246.23836 103.066154L245.71745 104.47703Q245.15314 104.14249 244.60329 104.14249Q244.09685 104.14249 243.70616 104.44794Q243.31548 104.75339 243.14183 105.27701Q242.88138 106.09154 242.88138 107.06606L242.88138 111.77868L241.37653 111.77868ZM247.14433 101.10256L247.14433 99.3426L248.66367 99.3426L248.66367 101.10256L247.14433 101.10256ZM247.14433 111.77868L247.14433 102.775246L248.66367 102.775246L248.66367 111.77868L247.14433 111.77868ZM256.8285 108.47694L258.31888 108.68057Q258.07288 110.22235 257.06 111.109604Q256.06158 111.982315 254.58568 111.982315Q252.74802 111.982315 251.63385 110.77507Q250.51967 109.567825 250.51967 107.313324Q250.51967 105.84427 250.99718 104.75339Q251.47469 103.6625 252.45862 103.12433Q253.44257 102.57162 254.60014 102.57162Q256.06158 102.57162 256.98767 103.313416Q257.91373 104.05522 258.17416 105.42246L256.69827 105.64064Q256.4812 104.73884 255.94583 104.28794Q255.41046 103.822495 254.65802 103.822495Q253.51492 103.822495 252.79143 104.65157Q252.06793 105.480644 252.06793 107.26969Q252.06793 109.08783 252.76248 109.91691Q253.45703 110.73143 254.57121 110.73143Q255.46834 110.73143 256.06158 110.17872Q256.6693 109.626 256.8285 108.47694ZM259.01343 109.08783L260.51828 108.85511Q260.63403 109.756905 261.21283 110.25144Q261.79163 110.73143 262.83344 110.73143Q263.87527 110.73143 264.3817 110.30962Q264.88815 109.87327 264.88815 109.291466Q264.88815 108.78239 264.43958 108.47694Q264.1357 108.27331 262.89133 107.96786Q261.21283 107.5315 260.56168 107.22606Q259.92502 106.92061 259.59222 106.38244Q259.2594 105.82973 259.2594 105.16065Q259.2594 104.5643 259.53433 104.05522Q259.80927 103.53159 260.28677 103.19706Q260.63403 102.93524 261.24176 102.760704Q261.86395 102.57162 262.5585 102.57162Q263.6148 102.57162 264.41064 102.87707Q265.20648 103.18251 265.5827 103.70614Q265.9734 104.22976 266.11807 105.10247L264.6277 105.3061Q264.5264 104.60793 264.03442 104.21522Q263.55692 103.822495 262.6743 103.822495Q261.61798 103.822495 261.1694 104.17158Q260.73532 104.52066 260.73532 104.98611Q260.73532 105.27701 260.90897 105.52428Q261.09708 105.771545 261.50223 105.93154Q261.71927 106.018814 262.83344 106.32426Q264.45404 106.74607 265.09073 107.02242Q265.7274 107.29878 266.08914 107.8224Q266.45087 108.34603 266.45087 109.13147Q266.45087 109.90236 266.00232 110.571434Q265.56824 111.24051 264.72897 111.61868Q263.88974 111.982315 262.83344 111.982315Q261.09708 111.982315 260.171 111.25506Q259.2594 110.5278 259.01343 109.08783Z" fill-rule="nonzero"/><path fill="#cfe2f3" clip-path="url(#id_0)" d="M385.10434 74.8302L514.0825 74.8302L514.0825 135.84367L385.10434 135.84367Z" fill-rule="evenodd"/><path stroke="#000000" stroke-width="0.9284731549658509" stroke-linejoin="round" stroke-linecap="butt" clip-path="url(#id_0)" d="M385.10434 74.8302L514.0825 74.8302L514.0825 135.84367L385.10434 135.84367Z" fill-rule="evenodd"/><path fill="#000000" clip-path="url(#id_0)" d="M421.61957 95.488144Q421.61957 92.39003 423.26913 90.644615Q424.91867 88.88465 427.5377 88.88465Q429.24512 88.88465 430.61975 89.71373Q431.9944 90.52825 432.71786 92.011856Q433.44138 93.48091 433.44138 95.34269Q433.44138 97.23356 432.67447 98.731705Q431.92203 100.21531 430.53293 100.9862Q429.14383 101.75709 427.52322 101.75709Q425.78687 101.75709 424.41223 100.913475Q423.0376 100.05531 422.32858 98.58625Q421.61957 97.117195 421.61957 95.488144ZM423.29807 95.502686Q423.29807 97.75718 424.49905 99.0517Q425.70004 100.346214 427.52322 100.346214Q429.37537 100.346214 430.5619 99.03715Q431.7484 97.72809 431.7484 95.32815Q431.7484 93.81545 431.24194 92.68093Q430.7355 91.54641 429.7516 90.93552Q428.76764 90.310074 427.55215 90.310074Q425.80133 90.310074 424.54245 91.51732Q423.29807 92.71002 423.29807 95.502686ZM435.34747 101.53891L435.34747 92.53548L436.70764 92.53548L436.70764 93.902725Q437.22855 92.94274 437.66266 92.6373Q438.1112 92.33185 438.64658 92.33185Q439.41348 92.33185 440.20932 92.826385L439.68842 94.23726Q439.12408 93.902725 438.57425 93.902725Q438.0678 93.902725 437.67712 94.20817Q437.28644 94.51362 437.1128 95.03724Q436.85233 95.85177 436.85233 96.826294L436.85233 101.53891L435.34747 101.53891ZM441.1153 104.98611L441.1153 92.53548L442.48993 92.53548L442.48993 93.69909Q442.9819 93.01547 443.58963 92.68093Q444.21182 92.33185 445.09448 92.33185Q446.23758 92.33185 447.10577 92.9282Q447.98843 93.51 448.43698 94.60089Q448.88556 95.67723 448.88556 96.97174Q448.88556 98.35353 448.3936 99.45896Q447.9016 100.56439 446.9611 101.160736Q446.02054 101.742546 444.97873 101.742546Q444.2263 101.742546 443.61856 101.422554Q443.01083 101.10256 442.6346 100.608025L442.6346 104.98611L441.1153 104.98611ZM442.48993 97.088104Q442.48993 98.81898 443.18448 99.66259Q443.8935 100.49166 444.87744 100.49166Q445.89032 100.49166 446.6138 99.6335Q447.33728 98.760796 447.33728 96.9572Q447.33728 95.240875 446.62827 94.38271Q445.93372 93.52455 444.94977 93.52455Q443.98032 93.52455 443.22787 94.440895Q442.48993 95.34269 442.48993 97.088104ZM450.72388 101.53891L450.72388 89.10283L452.2432 89.10283L452.2432 93.568184Q453.2995 92.33185 454.9201 92.33185Q455.91852 92.33185 456.642 92.72456Q457.37997 93.11729 457.6983 93.81545Q458.01663 94.51362 458.01663 95.83723L458.01663 101.53891L456.4973 101.53891L456.4973 95.83723Q456.4973 94.688156 456.00534 94.164536Q455.51337 93.64091 454.60178 93.64091Q453.93616 93.64091 453.3429 94.00454Q452.74963 94.35362 452.4892 94.949974Q452.2432 95.54632 452.2432 96.608116L452.2432 101.53891L450.72388 101.53891ZM466.17825 100.43349Q465.32452 101.146194 464.54315 101.451645Q463.77628 101.742546 462.87915 101.742546Q461.40323 101.742546 460.6074 101.01529Q459.81155 100.28803 459.81155 99.16806Q459.81155 98.498985 460.11542 97.960815Q460.41928 97.4081 460.8968 97.088104Q461.38876 96.75356 461.9965 96.579025Q462.43057 96.46266 463.34216 96.346306Q465.17984 96.12813 466.048 95.82268Q466.0625 95.502686 466.0625 95.42996Q466.0625 94.49907 465.6284 94.10635Q465.0496 93.597275 463.89203 93.597275Q462.82126 93.597275 462.31482 93.97545Q461.80838 94.35362 461.56238 95.29906L460.07202 95.09542Q460.2746 94.14999 460.7376 93.568184Q461.20065 92.97183 462.0833 92.65184Q462.96597 92.33185 464.10907 92.33185Q465.26666 92.33185 465.97568 92.60821Q466.69916 92.87002 467.03195 93.291824Q467.37924 93.69909 467.50946 94.32453Q467.58182 94.71725 467.58182 95.735405L467.58182 97.77173Q467.58182 99.89532 467.6831 100.46257Q467.7844 101.01529 468.05933 101.53891L466.48212 101.53891Q466.2361 101.05892 466.17825 100.43349ZM466.048 97.01538Q465.22324 97.36446 463.5737 97.59718Q462.63315 97.72809 462.24246 97.90263Q461.85178 98.07717 461.63474 98.39716Q461.43216 98.717155 461.43216 99.12442Q461.43216 99.73531 461.8952 100.14258Q462.35822 100.54984 463.24088 100.54984Q464.10907 100.54984 464.78915 100.17167Q465.4837 99.77895 465.80203 99.10988Q466.048 98.58625 466.048 97.58264L466.048 97.01538ZM469.94104 101.53891L469.94104 92.53548L471.3012 92.53548L471.3012 93.81545Q472.28516 92.33185 474.15173 92.33185Q474.96207 92.33185 475.64212 92.62275Q476.3222 92.91365 476.65503 93.39365Q477.0023 93.859085 477.1325 94.51362Q477.21933 94.935425 477.21933 95.99722L477.21933 101.53891L475.7 101.53891L475.7 96.0554Q475.7 95.12451 475.5119 94.673615Q475.33826 94.20817 474.8897 93.931816Q474.44113 93.65546 473.8334 93.65546Q472.86395 93.65546 472.1549 94.2809Q471.46036 94.89179 471.46036 96.62266L471.46036 101.53891L469.94104 101.53891Z" fill-rule="nonzero"/><path fill="#000000" clip-path="url(#id_0)" d="M413.4978 122.01845L413.4978 109.58237L418.98184 109.58237Q420.6314 109.58237 421.4851 109.91691Q422.3533 110.25144 422.85974 111.109604Q423.38065 111.953224 423.38065 112.98592Q423.38065 114.29499 422.52695 115.21133Q421.67322 116.11313 419.89346 116.3604Q420.5446 116.68039 420.89188 116.98583Q421.6009 117.640366 422.23755 118.62943L424.39355 122.01845L422.33884 122.01845L420.70377 119.42941Q419.98026 118.30944 419.51724 117.72764Q419.0542 117.13129 418.67798 116.89857Q418.31625 116.6513 417.94003 116.564026Q417.6651 116.4913 417.02844 116.4913L415.1329 116.4913L415.1329 122.01845L413.4978 122.01845ZM415.1329 115.08042L418.64905 115.08042Q419.77768 115.08042 420.3999 114.8477Q421.03656 114.60043 421.36935 114.091354Q421.70218 113.582275 421.70218 112.98592Q421.70218 112.09867 421.0655 111.53141Q420.42883 110.96416 419.03973 110.96416L415.1329 110.96416L415.1329 115.08042ZM431.89276 119.12397L433.4555 119.31306Q433.07928 120.69484 432.08087 121.46574Q431.08246 122.22208 429.5197 122.22208Q427.55185 122.22208 426.39426 121.01483Q425.25116 119.793045 425.25116 117.59673Q425.25116 115.31315 426.40872 114.06226Q427.58078 112.811386 429.4329 112.811386Q431.22714 112.811386 432.3558 114.04772Q433.4989 115.26951 433.4989 117.49491Q433.4989 117.640366 433.4989 117.902176L426.81387 117.902176Q426.9007 119.38578 427.65314 120.18576Q428.40555 120.9712 429.5197 120.9712Q430.35898 120.9712 430.95224 120.53484Q431.5455 120.08395 431.89276 119.12397ZM426.9007 116.6513L431.90723 116.6513Q431.80594 115.51678 431.32843 114.94952Q430.60495 114.06226 429.4474 114.06226Q428.40555 114.06226 427.68207 114.77498Q426.97305 115.473145 426.9007 116.6513ZM435.36618 125.465645L435.36618 113.015015L436.74078 113.015015L436.74078 114.17863Q437.23276 113.495 437.8405 113.16047Q438.4627 112.811386 439.34537 112.811386Q440.48846 112.811386 441.35666 113.40774Q442.23932 113.98954 442.68787 115.08042Q443.13644 116.15676 443.13644 117.45128Q443.13644 118.83307 442.64447 119.93849Q442.1525 121.04392 441.21194 121.640274Q440.27142 122.22208 439.22958 122.22208Q438.47717 122.22208 437.86945 121.902084Q437.26172 121.58209 436.8855 121.08756L436.8855 125.465645L435.36618 125.465645ZM436.74078 117.56764Q436.74078 119.29851 437.43533 120.14213Q438.14438 120.9712 439.1283 120.9712Q440.1412 120.9712 440.8647 120.11304Q441.58817 119.240326 441.58817 117.43674Q441.58817 115.720406 440.87915 114.86224Q440.1846 114.00408 439.20065 114.00408Q438.23117 114.00408 437.47876 114.920425Q436.74078 115.82223 436.74078 117.56764ZM444.41043 117.50946Q444.41043 115.0077 445.78506 113.814995Q446.94266 112.811386 448.60666 112.811386Q450.4588 112.811386 451.63086 114.03317Q452.8029 115.24042 452.8029 117.3931Q452.8029 119.12397 452.28198 120.12758Q451.76108 121.11665 450.76266 121.669365Q449.77872 122.22208 448.60666 122.22208Q446.7256 122.22208 445.56802 121.01483Q444.41043 119.793045 444.41043 117.50946ZM445.97318 117.50946Q445.97318 119.240326 446.71112 120.11304Q447.46356 120.9712 448.60666 120.9712Q449.73532 120.9712 450.48773 120.11304Q451.24017 119.240326 451.24017 117.46583Q451.24017 115.79314 450.48773 114.934975Q449.73532 114.07681 448.60666 114.07681Q447.46356 114.07681 446.71112 114.934975Q445.97318 115.77859 445.97318 117.50946ZM454.56888 122.01845L454.56888 113.015015L455.92902 113.015015L455.92902 114.382256Q456.44995 113.42228 456.88403 113.11683Q457.33258 112.811386 457.86798 112.811386Q458.63486 112.811386 459.4307 113.305916L458.9098 114.7168Q458.3455 114.382256 457.79562 114.382256Q457.28918 114.382256 456.8985 114.687706Q456.5078 114.99316 456.33417 115.51678Q456.07373 116.33131 456.07373 117.305824L456.07373 122.01845L454.56888 122.01845ZM463.65027 120.65121L463.8673 122.00391Q463.23062 122.13481 462.72418 122.13481Q461.8994 122.13481 461.43637 121.87299Q460.98782 121.61118 460.7997 121.18938Q460.6116 120.75302 460.6116 119.38578L460.6116 114.19317L459.49744 114.19317L459.49744 113.015015L460.6116 113.015015L460.6116 110.78961L462.11646 109.87327L462.11646 113.015015L463.65027 113.015015L463.65027 114.19317L462.11646 114.19317L462.11646 119.47305Q462.11646 120.11304 462.1888 120.302124Q462.27563 120.49121 462.44928 120.607574Q462.63736 120.70939 462.98465 120.70939Q463.23062 120.70939 463.65027 120.65121ZM465.13675 111.34232L465.13675 109.58237L466.65607 109.58237L466.65607 111.34232L465.13675 111.34232ZM465.13675 122.01845L465.13675 113.015015L466.65607 113.015015L466.65607 122.01845L465.13675 122.01845ZM468.97513 122.01845L468.97513 113.015015L470.3353 113.015015L470.3353 114.29499Q471.3192 112.811386 473.18582 112.811386Q473.99612 112.811386 474.6762 113.10229Q475.3563 113.39319 475.6891 113.87318Q476.03638 114.33862 476.1666 114.99316Q476.25342 115.41496 476.25342 116.47675L476.25342 122.01845L474.7341 122.01845L474.7341 116.534935Q474.7341 115.60405 474.546 115.15315Q474.37234 114.687706 473.9238 114.41135Q473.47522 114.134995 472.8675 114.134995Q471.898 114.134995 471.189 114.76043Q470.49445 115.37132 470.49445 117.102196L470.49445 122.01845L468.97513 122.01845ZM478.2943 122.76025L479.77023 122.978424Q479.87152 123.67659 480.29114 123.98204Q480.85547 124.40385 481.83942 124.40385Q482.8957 124.40385 483.46002 123.98204Q484.03882 123.560234 484.2414 122.80389Q484.35715 122.33844 484.34268 120.840294Q483.35873 122.01845 481.86835 122.01845Q480.0162 122.01845 479.00333 120.6803Q477.99045 119.34215 477.99045 117.46583Q477.99045 116.17131 478.4535 115.08042Q478.931 113.98954 479.79916 113.40774Q480.68182 112.811386 481.8828 112.811386Q483.46002 112.811386 484.48737 114.091354L484.48737 113.015015L485.89093 113.015015L485.89093 120.79666Q485.89093 122.9057 485.45685 123.77841Q485.03723 124.651115 484.11115 125.160194Q483.19955 125.66927 481.83942 125.66927Q480.24774 125.66927 479.24933 124.94202Q478.26538 124.22931 478.2943 122.76025ZM479.5532 117.349464Q479.5532 119.12397 480.24774 119.93849Q480.95676 120.75302 482.01303 120.75302Q483.05487 120.75302 483.7639 119.95304Q484.4729 119.13851 484.4729 117.407646Q484.4729 115.7495 483.73495 114.920425Q483.01144 114.07681 481.9841 114.07681Q480.97122 114.07681 480.2622 114.90588Q479.5532 115.720406 479.5532 117.349464Z" fill-rule="nonzero"/><path fill="#000000" fill-opacity="0.0" clip-path="url(#id_0)" d="M344.43768 70.53492L344.43768 140.13896" fill-rule="evenodd"/><path stroke="#000000" stroke-width="0.9284731549658509" stroke-linejoin="round" stroke-linecap="butt" stroke-dasharray="3.7138926198634037,2.7854194648975525" clip-path="url(#id_0)" d="M344.43768 70.53492L344.43768 140.13896" fill-rule="evenodd"/><path fill="#000000" fill-opacity="0.0" clip-path="url(#id_0)" d="M402.03598 33.53396L526.7849 33.53396L526.7849 49.74753L402.03598 49.74753Z" fill-rule="evenodd"/><path fill="#000000" clip-path="url(#id_0)" d="M411.2243 55.66798L413.43817 45.006405L414.8562 45.006405L412.64233 55.66798L411.2243 55.66798ZM414.9792 55.66798L416.58533 47.94452L417.77185 47.94452L417.49692 49.282673Q418.26382 48.497234 418.92944 48.133606Q419.60953 47.769978 420.31854 47.769978Q421.2446 47.769978 421.77997 48.279057Q422.31537 48.788136 422.31537 49.631756Q422.31537 50.068108 422.12726 50.98445L421.1433 55.66798L419.84103 55.66798L420.8539 50.766273Q421.0131 50.053562 421.0131 49.719025Q421.0131 49.326305 420.73816 49.093586Q420.4777 48.846317 419.98572 48.846317Q418.97284 48.846317 418.19147 49.573574Q417.41013 50.30083 417.0339 52.075336L416.29593 55.66798L414.9792 55.66798ZM426.28732 54.59164L426.07025 55.682526Q425.59277 55.798885 425.15866 55.798885Q424.3773 55.798885 423.91428 55.40617Q423.567 55.115265 423.567 54.62073Q423.567 54.35892 423.7551 53.442577L424.68115 48.962677L423.6538 48.962677L423.85638 47.94452L424.89822 47.94452L425.2889 46.03911L426.79376 45.13731L426.2005 47.94452L427.4883 47.94452L427.27124 48.962677L425.99792 48.962677L425.1008 53.2244Q424.94162 54.038925 424.94162 54.198925Q424.94162 54.431644 425.07184 54.56255Q425.2021 54.678913 425.50595 54.678913Q425.94003 54.678913 426.28732 54.59164ZM432.97958 53.035313L434.2529 53.166218Q433.978 54.126198 432.99405 54.98436Q432.0101 55.84252 430.63547 55.84252Q429.78177 55.84252 429.07275 55.449802Q428.3637 55.04254 427.98752 54.286194Q427.6113 53.529846 427.6113 52.56987Q427.6113 51.304443 428.1901 50.111744Q428.78336 48.919044 429.7094 48.351784Q430.63547 47.769978 431.70624 47.769978Q433.08087 47.769978 433.90564 48.62814Q434.7304 49.4863 434.7304 50.969906Q434.7304 51.537167 434.62912 52.133514L428.97147 52.133514Q428.9425 52.351692 428.9425 52.54078Q428.9425 53.61712 429.43448 54.198925Q429.92645 54.766182 430.64993 54.766182Q431.31555 54.766182 431.9667 54.32983Q432.61783 53.87893 432.97958 53.035313ZM429.17404 51.1299L433.48602 51.1299Q433.5005 50.92627 433.5005 50.839Q433.5005 49.84993 433.0085 49.326305Q432.51654 48.788136 431.73517 48.788136Q430.89594 48.788136 430.2014 49.36994Q429.5213 49.951748 429.17404 51.1299ZM435.5769 55.66798L437.18304 47.94452L438.3406 47.94452L438.02228 49.515392Q438.61554 48.62814 439.17987 48.206333Q439.7442 47.769978 440.33743 47.769978Q440.72812 47.769978 441.30692 48.046337L440.77155 49.268127Q440.42426 49.02086 440.0191 49.02086Q439.33902 49.02086 438.61554 49.79175Q437.89206 50.56264 437.47244 52.56987L436.8213 55.66798L435.5769 55.66798ZM440.51108 55.66798L442.11722 47.94452L443.30374 47.94452L443.0288 49.282673Q443.79572 48.497234 444.46133 48.133606Q445.14142 47.769978 445.85043 47.769978Q446.7765 47.769978 447.31186 48.279057Q447.84726 48.788136 447.84726 49.631756Q447.84726 50.068108 447.65915 50.98445L446.6752 55.66798L445.37292 55.66798L446.3858 50.766273Q446.54498 50.053562 446.54498 49.719025Q446.54498 49.326305 446.27005 49.093586Q446.00958 48.846317 445.5176 48.846317Q444.50473 48.846317 443.72336 49.573574Q442.94202 50.30083 442.5658 52.075336L441.82782 55.66798L440.51108 55.66798ZM453.9318 54.708004Q453.2517 55.289806 452.61505 55.566166Q451.99283 55.84252 451.2838 55.84252Q450.21304 55.84252 449.56192 55.217083Q448.91077 54.577095 448.91077 53.602573Q448.91077 52.948044 449.20016 52.453506Q449.50403 51.958973 449.98154 51.653526Q450.4735 51.34808 451.16806 51.217175Q451.61664 51.1299 452.84656 51.086266Q454.07648 51.028088 454.61188 50.824455Q454.77103 50.286285 454.77103 49.922657Q454.77103 49.471756 454.43823 49.209946Q453.9752 48.846317 453.107 48.846317Q452.28223 48.846317 451.74686 49.209946Q451.22595 49.573574 450.99442 50.257195L449.6632 50.140835Q450.06836 48.991768 450.95102 48.380875Q451.83368 47.769978 453.1649 47.769978Q454.59738 47.769978 455.42218 48.453598Q456.05884 48.962677 456.05884 49.777206Q456.05884 50.3881 455.8852 51.20263L455.4511 53.122585Q455.24854 54.038925 455.24854 54.62073Q455.24854 54.98436 455.4077 55.66798L454.09094 55.66798Q453.9752 55.289806 453.9318 54.708004ZM454.42377 51.75534Q454.14883 51.85716 453.8305 51.91534Q453.51218 51.97352 452.7742 52.046246Q451.6311 52.14806 451.1536 52.308056Q450.69055 52.453506 450.44458 52.80259Q450.21304 53.13713 450.21304 53.558937Q450.21304 54.111652 450.58926 54.47528Q450.97995 54.824364 451.6745 54.824364Q452.32565 54.824364 452.9189 54.47528Q453.52664 54.126198 453.8739 53.5153Q454.2212 52.889862 454.42377 51.75534ZM456.89084 55.66798L459.10474 45.006405L460.42148 45.006405L458.2076 55.66798L456.89084 55.66798ZM465.26883 51.20263Q465.26883 48.351784 466.90393 46.591824Q468.539 44.817318 470.88312 44.817318Q472.86548 44.817318 474.10986 46.12638Q475.35428 47.420895 475.35428 49.602665Q475.35428 51.158993 474.73206 52.482597Q474.25458 53.486214 473.53107 54.213467Q472.82205 54.926178 472.01175 55.318897Q470.9265 55.857067 469.71106 55.857067Q468.4377 55.857067 467.38144 55.246174Q466.3396 54.62073 465.80423 53.529846Q465.26883 52.438965 465.26883 51.20263ZM466.65793 51.275352Q466.65793 52.20624 467.0486 52.991676Q467.4393 53.777115 468.2062 54.228012Q468.9731 54.664368 469.81235 54.664368Q470.63712 54.664368 471.3751 54.286194Q472.11304 53.893475 472.69183 53.19531Q473.27063 52.497143 473.60342 51.49353Q473.95068 50.475372 473.95068 49.4863Q473.95068 47.900883 473.05356 46.955452Q472.17093 46.010017 470.86865 46.010017Q469.20462 46.010017 467.93127 47.43544Q466.65793 48.860863 466.65793 51.275352ZM475.9258 55.66798L477.53195 47.94452L478.71848 47.94452L478.44357 49.282673Q479.21045 48.497234 479.87607 48.133606Q480.55615 47.769978 481.26517 47.769978Q482.19122 47.769978 482.7266 48.279057Q483.262 48.788136 483.262 49.631756Q483.262 50.068108 483.07388 50.98445L482.08994 55.66798L480.78766 55.66798L481.80054 50.766273Q481.95972 50.053562 481.95972 49.719025Q481.95972 49.326305 481.68478 49.093586Q481.42432 48.846317 480.93234 48.846317Q479.91946 48.846317 479.1381 49.573574Q478.35675 50.30083 477.98053 52.075336L477.24255 55.66798L475.9258 55.66798ZM484.06506 55.66798L486.27893 45.006405L487.59567 45.006405L485.3818 55.66798L484.06506 55.66798ZM486.96625 58.64973L487.05307 57.413395Q487.45822 57.52976 487.83444 57.52976Q488.2396 57.52976 488.48557 57.355217Q488.8039 57.10795 489.1801 56.45342L489.59973 55.69707L488.31192 47.94452L489.59973 47.94452L490.17853 51.842613Q490.35217 53.00622 490.4824 54.15529L493.91174 47.94452L495.28635 47.94452L490.3811 56.700684Q489.6721 57.980656 489.12225 58.38792Q488.5724 58.809727 487.86337 58.809727Q487.40033 58.809727 486.96625 58.64973Z" fill-rule="nonzero"/><path fill="#000000" fill-opacity="0.0" clip-path="url(#id_0)" d="M88.685875 34.667637L262.23184 34.667637L262.23184 50.881214L88.685875 50.881214Z" fill-rule="evenodd"/><path fill="#000000" clip-path="url(#id_0)" d="M97.874176 56.801662L100.08804 46.140083L101.50608 46.140083L99.292206 56.801662L97.874176 56.801662ZM101.629074 56.801662L103.23522 49.0782L104.42174 49.0782L104.14681 50.41635Q104.91371 49.630913 105.57932 49.267284Q106.2594 48.90366 106.968414 48.90366Q107.89448 48.90366 108.42986 49.41274Q108.96524 49.921818 108.96524 50.765434Q108.96524 51.201786 108.77714 52.11813L107.79319 56.801662L106.49091 56.801662L107.5038 51.899952Q107.662964 51.187244 107.662964 50.852703Q107.662964 50.459988 107.38804 50.227264Q107.12759 49.979996 106.63561 49.979996Q105.62273 49.979996 104.84136 50.707253Q104.06 51.43451 103.683784 53.209015L102.94582 56.801662L101.629074 56.801662ZM112.937195 55.725323L112.720146 56.816204Q112.242645 56.932568 111.80855 56.932568Q111.02718 56.932568 110.564156 56.53985Q110.21688 56.248947 110.21688 55.754414Q110.21688 55.4926 110.40498 54.576256L111.33105 50.09636L110.303696 50.09636L110.50627 49.0782L111.548096 49.0782L111.93878 47.172787L113.443634 46.270992L112.85037 49.0782L114.13818 49.0782L113.921135 50.09636L112.6478 50.09636L111.75067 54.358078Q111.59151 55.172607 111.59151 55.332603Q111.59151 55.565327 111.72173 55.69623Q111.85196 55.81259 112.15582 55.81259Q112.58992 55.81259 112.937195 55.725323ZM119.629456 54.168995L120.902794 54.2999Q120.62787 55.259876 119.64393 56.11804Q118.65998 56.976204 117.285355 56.976204Q116.43164 56.976204 115.72262 56.583485Q115.0136 56.17622 114.63739 55.419872Q114.26118 54.66353 114.26118 53.70355Q114.26118 52.43812 114.839966 51.245422Q115.43323 50.052723 116.35929 49.485462Q117.285355 48.90366 118.35612 48.90366Q119.73074 48.90366 120.55552 49.76182Q121.380295 50.619984 121.380295 52.103584Q121.380295 52.670845 121.27901 53.267197L115.62133 53.267197Q115.59239 53.48537 115.59239 53.674458Q115.59239 54.750797 116.084366 55.332603Q116.57634 55.899864 117.29983 55.899864Q117.96543 55.899864 118.61657 55.46351Q119.267715 55.01261 119.629456 54.168995ZM115.823906 52.26358L120.135895 52.26358Q120.15037 52.05995 120.15037 51.97268Q120.15037 50.983612 119.658394 50.459988Q119.16643 49.921818 118.385056 49.921818Q117.545815 49.921818 116.851265 50.50362Q116.17118 51.085426 115.823906 52.26358ZM122.226776 56.801662L123.832924 49.0782L124.9905 49.0782L124.672165 50.649075Q125.26543 49.76182 125.82975 49.34001Q126.394066 48.90366 126.98733 48.90366Q127.37801 48.90366 127.9568 49.180016L127.421425 50.401806Q127.07415 50.154537 126.66899 50.154537Q125.988914 50.154537 125.26543 50.92543Q124.54194 51.696323 124.122314 53.70355L123.471176 56.801662L122.226776 56.801662ZM127.160965 56.801662L128.7671 49.0782L129.95363 49.0782L129.67871 50.41635Q130.4456 49.630913 131.1112 49.267284Q131.79129 48.90366 132.5003 48.90366Q133.42638 48.90366 133.96175 49.41274Q134.49713 49.921818 134.49713 50.765434Q134.49713 51.201786 134.30902 52.11813L133.32509 56.801662L132.02281 56.801662L133.03569 51.899952Q133.19485 51.187244 133.19485 50.852703Q133.19485 50.459988 132.91994 50.227264Q132.65947 49.979996 132.1675 49.979996Q131.15462 49.979996 130.37325 50.707253Q129.59189 51.43451 129.21567 53.209015L128.4777 56.801662L127.160965 56.801662ZM140.58167 55.841682Q139.9016 56.42349 139.26492 56.699844Q138.64272 56.976204 137.9337 56.976204Q136.86295 56.976204 136.2118 56.35076Q135.56065 55.710777 135.56065 54.73625Q135.56065 54.081722 135.85005 53.58719Q136.15392 53.092655 136.63142 52.787205Q137.1234 52.48176 137.81795 52.350853Q138.26651 52.26358 139.49643 52.219948Q140.72636 52.161766 141.26175 51.958134Q141.42091 51.419964 141.42091 51.056335Q141.42091 50.60544 141.0881 50.343624Q140.62508 49.979996 139.7569 49.979996Q138.93211 49.979996 138.39673 50.343624Q137.87582 50.707253 137.6443 51.390873L136.3131 51.274513Q136.71825 50.12545 137.60089 49.514553Q138.48355 48.90366 139.81477 48.90366Q141.24728 48.90366 142.07205 49.58728Q142.70872 50.09636 142.70872 50.910885Q142.70872 51.521782 142.53508 52.336308L142.101 54.256264Q141.89842 55.172607 141.89842 55.754414Q141.89842 56.11804 142.05759 56.801662L140.74083 56.801662Q140.62508 56.42349 140.58167 55.841682ZM141.07364 52.889023Q140.79872 52.990837 140.48038 53.04902Q140.16205 53.1072 139.42409 53.179924Q138.28098 53.281742 137.80347 53.44174Q137.34044 53.58719 137.09445 53.93627Q136.86295 54.27081 136.86295 54.69262Q136.86295 55.24533 137.23915 55.60896Q137.62984 55.958042 138.32439 55.958042Q138.97552 55.958042 139.56879 55.60896Q140.17651 55.259876 140.52379 54.648983Q140.87106 54.02354 141.07364 52.889023ZM143.54073 56.801662L145.75461 46.140083L147.07135 46.140083L144.85748 56.801662L143.54073 56.801662ZM157.90921 55.754414Q157.01208 56.496212 156.36095 56.77257Q155.72427 57.03438 154.9429 57.03438Q153.49593 57.03438 152.61327 56.17622Q151.73062 55.318058 151.73062 54.02354Q151.73062 53.179924 152.04895 52.53994Q152.38176 51.88541 153.0329 51.361786Q153.53934 50.969067 154.5088 50.53271Q154.1326 49.689095 154.06024 49.41274Q153.95895 49.005474 153.95895 48.54003Q153.95895 47.929134 154.29176 47.303696Q154.63904 46.663708 155.26125 46.314625Q155.88344 45.950996 156.60692 45.950996Q157.63428 45.950996 158.25648 46.547348Q158.87868 47.1437 158.87868 48.00186Q158.87868 48.714573 158.34329 49.427284Q157.80792 50.13999 156.24518 50.92543Q157.18571 52.6563 158.06837 53.76173Q158.58928 53.1072 159.06679 52.234493L160.2099 52.83084Q159.73239 53.834454 158.89314 54.80898Q159.35619 55.40533 160.10861 56.263493L159.12466 57.063473Q158.3867 56.42349 157.90921 55.754414ZM155.76768 49.95091Q156.82397 49.398193 157.287 48.830933Q157.60535 48.438213 157.60535 48.03095Q157.60535 47.594597 157.30147 47.303696Q157.01208 47.01279 156.59245 47.01279Q156.08601 47.01279 155.69533 47.420055Q155.31912 47.82732 155.31912 48.394577Q155.31912 49.092743 155.76768 49.95091ZM157.15678 54.750797Q155.79662 52.961746 155.04419 51.55087Q154.06024 52.016315 153.64062 52.452667Q153.06183 53.063564 153.06183 53.87809Q153.06183 54.70716 153.61168 55.27442Q154.17601 55.841682 154.98631 55.841682Q156.08601 55.841682 157.15678 54.750797ZM165.22366 56.801662L167.45201 46.140083L175.1065 46.140083L174.84605 47.34733L168.60959 47.34733L167.91504 50.66362L173.99234 50.66362L173.74635 51.88541L167.66905 51.88541L166.90216 55.594414L173.57272 55.594414L173.32674 56.801662L165.22366 56.801662ZM174.41197 56.801662L177.76895 52.874477L175.84447 49.0782L177.29144 49.0782L177.94258 50.445442Q178.30434 51.21633 178.59372 51.929043L180.8076 49.0782L182.41374 49.0782L179.18698 52.97629L181.12593 56.801662L179.67896 56.801662L178.91206 55.230785Q178.66608 54.721706 178.34773 53.979908L176.06152 56.801662L174.41197 56.801662ZM185.40898 55.725323L185.19194 56.816204Q184.71443 56.932568 184.28033 56.932568Q183.49898 56.932568 183.03593 56.53985Q182.68866 56.248947 182.68866 55.754414Q182.68866 55.4926 182.87677 54.576256L183.80284 50.09636L182.77548 50.09636L182.97806 49.0782L184.01988 49.0782L184.41057 47.172787L185.91542 46.270992L185.32216 49.0782L186.60997 49.0782L186.39293 50.09636L185.11958 50.09636L184.22246 54.358078Q184.0633 55.172607 184.0633 55.332603Q184.0633 55.565327 184.19353 55.69623Q184.32375 55.81259 184.62761 55.81259Q185.0617 55.81259 185.40898 55.725323ZM192.10124 54.168995L193.37459 54.2999Q193.09966 55.259876 192.11572 56.11804Q191.13177 56.976204 189.75714 56.976204Q188.90343 56.976204 188.19441 56.583485Q187.4854 56.17622 187.10918 55.419872Q186.73297 54.66353 186.73297 53.70355Q186.73297 52.43812 187.31175 51.245422Q187.90501 50.052723 188.83109 49.485462Q189.75714 48.90366 190.82791 48.90366Q192.20253 48.90366 193.02731 49.76182Q193.85208 50.619984 193.85208 52.103584Q193.85208 52.670845 193.7508 53.267197L188.09312 53.267197Q188.06418 53.48537 188.06418 53.674458Q188.06418 54.750797 188.55615 55.332603Q189.04813 55.899864 189.7716 55.899864Q190.43723 55.899864 191.08836 55.46351Q191.7395 55.01261 192.10124 54.168995ZM188.2957 52.26358L192.60768 52.26358Q192.62216 52.05995 192.62216 51.97268Q192.62216 50.983612 192.13019 50.459988Q191.63821 49.921818 190.85684 49.921818Q190.0176 49.921818 189.32306 50.50362Q188.64297 51.085426 188.2957 52.26358ZM194.69856 56.801662L196.3047 49.0782L197.4623 49.0782L197.14395 50.649075Q197.73721 49.76182 198.30154 49.34001Q198.86586 48.90366 199.45912 48.90366Q199.84981 48.90366 200.42859 49.180016L199.8932 50.401806Q199.54593 50.154537 199.14078 50.154537Q198.46071 50.154537 197.73721 50.92543Q197.01373 51.696323 196.5941 53.70355L195.94296 56.801662L194.69856 56.801662ZM199.63275 56.801662L201.23889 49.0782L202.42542 49.0782L202.1505 50.41635Q202.91739 49.630913 203.583 49.267284Q204.26308 48.90366 204.97209 48.90366Q205.89816 48.90366 206.43355 49.41274Q206.96892 49.921818 206.96892 50.765434Q206.96892 51.201786 206.78082 52.11813L205.79688 56.801662L204.4946 56.801662L205.50748 51.899952Q205.66664 51.187244 205.66664 50.852703Q205.66664 50.459988 205.39172 50.227264Q205.13126 49.979996 204.6393 49.979996Q203.6264 49.979996 202.84505 50.707253Q202.06367 51.43451 201.68745 53.209015L200.94951 56.801662L199.63275 56.801662ZM213.05345 55.841682Q212.37338 56.42349 211.73671 56.699844Q211.1145 56.976204 210.40549 56.976204Q209.33473 56.976204 208.6836 56.35076Q208.03246 55.710777 208.03246 54.73625Q208.03246 54.081722 208.32184 53.58719Q208.62572 53.092655 209.10321 52.787205Q209.59518 52.48176 210.28973 52.350853Q210.7383 52.26358 211.96823 52.219948Q213.19815 52.161766 213.73354 51.958134Q213.8927 51.419964 213.8927 51.056335Q213.8927 50.60544 213.55989 50.343624Q213.09686 49.979996 212.22868 49.979996Q211.4039 49.979996 210.86853 50.343624Q210.34761 50.707253 210.11609 51.390873L208.78488 51.274513Q209.19003 50.12545 210.0727 49.514553Q210.95534 48.90366 212.28656 48.90366Q213.71907 48.90366 214.54384 49.58728Q215.18051 50.09636 215.18051 50.910885Q215.18051 51.521782 215.00688 52.336308L214.57278 54.256264Q214.37021 55.172607 214.37021 55.754414Q214.37021 56.11804 214.52937 56.801662L213.21263 56.801662Q213.09686 56.42349 213.05345 55.841682ZM213.54543 52.889023Q213.27051 52.990837 212.95216 53.04902Q212.63383 53.1072 211.89587 53.179924Q210.75276 53.281742 210.27527 53.44174Q209.81223 53.58719 209.56624 53.93627Q209.33473 54.27081 209.33473 54.69262Q209.33473 55.24533 209.71094 55.60896Q210.10162 55.958042 210.79617 55.958042Q211.44731 55.958042 212.04057 55.60896Q212.6483 55.259876 212.99557 54.648983Q213.34285 54.02354 213.54543 52.889023ZM216.01253 56.801662L218.2264 46.140083L219.54314 46.140083L217.32927 56.801662L216.01253 56.801662Z" fill-rule="nonzero"/></svg>