<svg version="1.1" viewBox="0.0 0.0 382.0 104.0" fill="none" stroke="none" stroke-linecap="square" stroke-miterlimit="10" preserveAspectRatio="none" width="382" height="104" xmlns:xlink="http://www.w3.org/1999/xlink" xmlns="http://www.w3.org/2000/svg"><clipPath id="id_0"><path d="M0 0L382.0 0L382.0 104.0L0 104.0L0 0Z" clip-rule="nonzero"/></clipPath><path fill="#000000" fill-opacity="0.0" clip-path="url(#id_0)" d="M-125.672134 -158.88036L921.31415 -158.88036L921.31415 636.0285L-125.672134 636.0285Z" fill-rule="evenodd"/><path fill="#cfe2f3" clip-path="url(#id_0)" d="M0.5467366 0.55346894L381.45328 0.55346894L381.45328 103.44653L0.5467366 103.44653Z" fill-rule="evenodd"/><path stroke="#000000" stroke-width="1.0973048747648677" stroke-linejoin="round" stroke-linecap="butt" clip-path="url(#id_0)" d="M0.5467366 0.55346894L381.45328 0.55346894L381.45328 103.44653L0.5467366 103.44653Z" fill-rule="evenodd"/><path fill="#000000" clip-path="url(#id_0)" d="M14.895083 27.447887L14.895083 16.286732L10.771212 16.286732L10.771212 14.803178L20.671913 14.803178L20.671913 16.286732L16.54804 16.286732L16.54804 27.447887L14.895083 27.447887ZM19.666506 22.85922Q19.666506 20.323378 21.06385 19.098583Q22.239666 18.080797 23.909662 18.080797Q25.784151 18.080797 26.959965 19.322842Q28.15282 20.547636 28.15282 22.738466Q28.15282 24.49803 27.624556 25.515818Q27.09629 26.533604 26.090885 27.102875Q25.102518 27.654894 23.909662 27.654894Q22.018135 27.654894 20.84232 26.4301Q19.666506 25.188055 19.666506 22.85922ZM21.251299 22.85922Q21.251299 24.618784 22.001095 25.498566Q22.76793 26.378347 23.909662 26.378347Q25.051395 26.378347 25.801191 25.498566Q26.568027 24.618784 26.568027 22.807468Q26.568027 21.116907 25.801191 20.237125Q25.051395 19.357344 23.909662 19.357344Q22.76793 19.357344 22.001095 20.237125Q21.251299 21.099657 21.251299 22.85922ZM33.29062 26.050587L33.51215 27.430635Q32.8646 27.568642 32.353374 27.568642Q31.518377 27.568642 31.058275 27.309881Q30.598173 27.033873 30.410725 26.602606Q30.223276 26.15409 30.223276 24.756788L30.223276 19.495348L29.098585 19.495348L29.098585 18.287804L30.223276 18.287804L30.223276 16.010721L31.756948 15.079187L31.756948 18.287804L33.29062 18.287804L33.29062 19.495348L31.756948 19.495348L31.756948 24.843042Q31.756948 25.515818 31.825111 25.705574Q31.910315 25.89533 32.097763 26.016085Q32.285213 26.119589 32.62603 26.119589Q32.88164 26.119589 33.29062 26.050587ZM40.694843 26.309345Q39.842804 27.051123 39.058926 27.361633Q38.27505 27.654894 37.371887 27.654894Q35.8723 27.654894 35.07138 26.913118Q34.270466 26.17134 34.270466 25.032799Q34.270466 24.360025 34.577198 23.808004Q34.883934 23.238733 35.361076 22.910973Q35.85526 22.56596 36.468727 22.393454Q36.92883 22.2727 37.83199 22.169195Q39.689438 21.944937 40.575558 21.634426Q40.575558 21.306664 40.575558 21.220411Q40.575558 20.271626 40.14954 19.892113Q39.553112 19.357344 38.394337 19.357344Q37.320766 19.357344 36.792503 19.754107Q36.281277 20.133621 36.042706 21.099657L34.543118 20.892649Q34.74761 19.926613 35.20771 19.322842Q35.68485 18.71907 36.570972 18.408558Q37.457092 18.080797 38.615868 18.080797Q39.77464 18.080797 40.490353 18.356806Q41.223106 18.632816 41.563923 19.046831Q41.90474 19.460846 42.041065 20.09912Q42.12627 20.495884 42.12627 21.530922L42.12627 23.600998Q42.12627 25.774576 42.211475 26.343847Q42.31372 26.913118 42.603413 27.447887L41.00158 27.447887Q40.76301 26.964869 40.694843 26.309345ZM40.575558 22.84197Q39.74056 23.186981 38.07056 23.428492Q37.116276 23.566496 36.72434 23.739002Q36.3324 23.911509 36.11087 24.256521Q35.90638 24.584284 35.90638 24.981047Q35.90638 25.60207 36.36648 26.016085Q36.843624 26.4301 37.729744 26.4301Q38.615868 26.4301 39.297497 26.050587Q39.99617 25.653822 40.319946 24.963797Q40.575558 24.446278 40.575558 23.41124L40.575558 22.84197ZM44.46938 27.447887L44.46938 14.803178L46.00305 14.803178L46.00305 27.447887L44.46938 27.447887ZM53.415794 27.447887L53.415794 14.803178L57.727116 14.803178Q59.175583 14.803178 59.942417 14.975684Q61.015987 15.234443 61.782825 15.889967Q62.77119 16.735249 63.248333 18.046295Q63.742516 19.357344 63.742516 21.047905Q63.742516 22.496958 63.4017 23.618248Q63.077923 24.722288 62.54966 25.446814Q62.038437 26.17134 61.42497 26.602606Q60.8115 27.01662 59.925377 27.24088Q59.056297 27.447887 57.931606 27.447887L53.415794 27.447887ZM55.068752 25.947083L57.744156 25.947083Q58.971092 25.947083 59.669765 25.722824Q60.38548 25.481316 60.794456 25.0673Q61.390884 24.463528 61.71466 23.462992Q62.038437 22.462456 62.038437 21.030653Q62.038437 19.046831 61.390884 17.977293Q60.760376 16.907755 59.840176 16.54549Q59.175583 16.286732 57.693035 16.286732L55.068752 16.286732L55.068752 25.947083ZM71.76021 27.447887L71.76021 26.102339Q70.70368 27.654894 68.88032 27.654894Q68.0794 27.654894 67.38072 27.344383Q66.69909 27.033873 66.35828 26.568106Q66.01746 26.085087 65.881134 25.412313Q65.79593 24.946547 65.79593 23.96326L65.79593 18.287804L67.329605 18.287804L67.329605 23.359488Q67.329605 24.584284 67.4148 24.998299Q67.56818 25.61932 68.028275 25.964333Q68.50542 26.309345 69.18705 26.309345Q69.88572 26.309345 70.48215 25.964333Q71.09562 25.60207 71.33419 24.981047Q71.5898 24.360025 71.5898 23.186981L71.5898 18.287804L73.123474 18.287804L73.123474 27.447887L71.76021 27.447887ZM75.5177 27.447887L75.5177 18.287804L76.89801 18.287804L76.89801 19.667854Q77.42627 18.701818 77.86933 18.391308Q78.31239 18.080797 78.8577 18.080797Q79.624535 18.080797 80.42545 18.581064L79.89719 20.012867Q79.33484 19.685104 78.77249 19.685104Q78.27831 19.685104 77.86933 19.995617Q77.477394 20.288877 77.306984 20.840897Q77.05138 21.668926 77.05138 22.652212L77.05138 27.447887L75.5177 27.447887ZM87.24177 26.309345Q86.389725 27.051123 85.60585 27.361633Q84.821976 27.654894 83.918816 27.654894Q82.41923 27.654894 81.61831 26.913118Q80.81739 26.17134 80.81739 25.032799Q80.81739 24.360025 81.12412 23.808004Q81.430855 23.238733 81.908 22.910973Q82.40218 22.56596 83.01565 22.393454Q83.47575 22.2727 84.378914 22.169195Q86.23636 21.944937 87.12248 21.634426Q87.12248 21.306664 87.12248 21.220411Q87.12248 20.271626 86.696465 19.892113Q86.10004 19.357344 84.94126 19.357344Q83.86769 19.357344 83.339424 19.754107Q82.8282 20.133621 82.58963 21.099657L81.09004 20.892649Q81.29453 19.926613 81.75463 19.322842Q82.23177 18.71907 83.1179 18.408558Q84.00402 18.080797 85.16279 18.080797Q86.32156 18.080797 87.03728 18.356806Q87.770035 18.632816 88.11085 19.046831Q88.45167 19.460846 88.58799 20.09912Q88.673195 20.495884 88.673195 21.530922L88.673195 23.600998Q88.673195 25.774576 88.7584 26.343847Q88.86064 26.913118 89.15034 27.447887L87.5485 27.447887Q87.30993 26.964869 87.24177 26.309345ZM87.12248 22.84197Q86.28748 23.186981 84.617485 23.428492Q83.6632 23.566496 83.27126 23.739002Q82.879326 23.911509 82.65779 24.256521Q82.45331 24.584284 82.45331 24.981047Q82.45331 25.60207 82.91341 26.016085Q83.39055 26.4301 84.27667 26.4301Q85.16279 26.4301 85.84442 26.050587Q86.5431 25.653822 86.86687 24.963797Q87.12248 24.446278 87.12248 23.41124L87.12248 22.84197ZM94.39038 26.050587L94.61191 27.430635Q93.96436 27.568642 93.45314 27.568642Q92.61814 27.568642 92.158035 27.309881Q91.69794 27.033873 91.51049 26.602606Q91.32304 26.15409 91.32304 24.756788L91.32304 19.495348L90.19835 19.495348L90.19835 18.287804L91.32304 18.287804L91.32304 16.010721L92.85671 15.079187L92.85671 18.287804L94.39038 18.287804L94.39038 19.495348L92.85671 19.495348L92.85671 24.843042Q92.85671 25.515818 92.92487 25.705574Q93.01008 25.89533 93.197525 26.016085Q93.38497 26.119589 93.72579 26.119589Q93.9814 26.119589 94.39038 26.050587ZM95.89849 16.579992L95.89849 14.803178L97.43216 14.803178L97.43216 16.579992L95.89849 16.579992ZM95.89849 27.447887L95.89849 18.287804L97.43216 18.287804L97.43216 27.447887L95.89849 27.447887ZM99.195885 22.85922Q99.195885 20.323378 100.59323 19.098583Q101.76904 18.080797 103.43904 18.080797Q105.31353 18.080797 106.48934 19.322842Q107.6822 20.547636 107.6822 22.738466Q107.6822 24.49803 107.15393 25.515818Q106.62567 26.533604 105.62026 27.102875Q104.6319 27.654894 103.43904 27.654894Q101.547516 27.654894 100.3717 26.4301Q99.195885 25.188055 99.195885 22.85922ZM100.78068 22.85922Q100.78068 24.618784 101.53047 25.498566Q102.29731 26.378347 103.43904 26.378347Q104.58077 26.378347 105.33057 25.498566Q106.097404 24.618784 106.097404 22.807468Q106.097404 21.116907 105.33057 20.237125Q104.58077 19.357344 103.43904 19.357344Q102.29731 19.357344 101.53047 20.237125Q100.78068 21.099657 100.78068 22.85922ZM109.48 27.447887L109.48 18.287804L110.860306 18.287804L110.860306 19.5816Q111.84867 18.080797 113.740204 18.080797Q114.55816 18.080797 115.23979 18.374058Q115.921425 18.667318 116.26224 19.150335Q116.60305 19.633352 116.73938 20.306128Q116.824585 20.737392 116.824585 21.806932L116.824585 27.447887L115.29091 27.447887L115.29091 21.875935Q115.29091 20.92715 115.10346 20.461384Q114.93305 19.978365 114.47295 19.702356Q114.02989 19.426346 113.41643 19.426346Q112.42806 19.426346 111.71235 20.06462Q111.01367 20.68564 111.01367 22.445206L111.01367 27.447887L109.48 27.447887Z" fill-rule="nonzero"/><path fill="#b6d7a8" clip-path="url(#id_0)" d="M6.1286025 46.91446L171.45488 46.91446L171.45488 95.527L6.1286025 95.527Z" fill-rule="evenodd"/><path stroke="#000000" stroke-width="1.0973048747648677" stroke-linejoin="round" stroke-linecap="butt" clip-path="url(#id_0)" d="M6.1286025 46.91446L171.45488 46.91446L171.45488 95.527L6.1286025 95.527Z" fill-rule="evenodd"/><path fill="#000000" clip-path="url(#id_0)" d="M18.869108 77.69041L18.869108 65.04569L24.407366 65.04569Q26.077362 65.04569 26.946444 65.39071Q27.815523 65.71847 28.326748 66.581Q28.855013 67.443535 28.855013 68.49582Q28.855013 69.84137 27.985931 70.7729Q27.133892 71.68719 25.327568 71.928696Q25.992159 72.256454 26.332975 72.56697Q27.048689 73.239746 27.696238 74.24028L29.87746 77.69041L27.798483 77.69041L26.145527 75.051056Q25.412771 73.91251 24.935629 73.30875Q24.475529 72.70497 24.100632 72.46346Q23.742775 72.221954 23.350836 72.135704Q23.078184 72.0667 22.430634 72.0667L20.522064 72.0667L20.522064 77.69041L18.869108 77.69041ZM20.522064 70.617645L24.06655 70.617645Q25.208282 70.617645 25.83879 70.39339Q26.486341 70.15188 26.810118 69.63436Q27.150932 69.099594 27.150932 68.49582Q27.150932 67.598785 26.503382 67.02952Q25.855833 66.44299 24.475529 66.44299L20.522064 66.44299L20.522064 70.617645ZM37.43505 74.74055L39.019844 74.930305Q38.644947 76.34486 37.6225 77.12113Q36.617092 77.897415 35.04934 77.897415Q33.05557 77.897415 31.896793 76.655365Q30.73802 75.41332 30.73802 73.18799Q30.73802 70.8764 31.913834 69.59986Q33.08965 68.32331 34.964134 68.32331Q36.77046 68.32331 37.912193 69.58261Q39.07097 70.82465 39.07097 73.08449Q39.07097 73.222496 39.07097 73.498505L32.322815 73.498505Q32.408016 75.016556 33.157814 75.82734Q33.92465 76.620865 35.04934 76.620865Q35.90138 76.620865 36.497807 76.17235Q37.094234 75.72383 37.43505 74.74055ZM32.408016 72.221954L37.45209 72.221954Q37.349846 71.06616 36.872704 70.496895Q36.13995 69.59986 34.98118 69.59986Q33.92465 69.59986 33.191895 70.32439Q32.47618 71.03166 32.408016 72.221954ZM46.713764 81.20953L46.713764 76.70712Q46.355907 77.22464 45.708355 77.56965Q45.077847 77.897415 44.345093 77.897415Q42.74326 77.897415 41.567444 76.603615Q40.40867 75.292564 40.40867 73.01549Q40.40867 71.63544 40.88581 70.548645Q41.362953 69.4446 42.249073 68.892586Q43.152237 68.32331 44.225807 68.32331Q45.912846 68.32331 46.86713 69.75512L46.86713 68.53032L48.247433 68.53032L48.247433 81.20953L46.713764 81.20953ZM41.99346 73.08449Q41.99346 74.84405 42.726215 75.74108Q43.458973 76.620865 44.48142 76.620865Q45.452744 76.620865 46.151417 75.77558Q46.86713 74.930305 46.86713 73.222496Q46.86713 71.39393 46.117336 70.479645Q45.384583 69.54811 44.379173 69.54811Q43.373768 69.54811 42.675095 70.41064Q41.99346 71.25592 41.99346 73.08449ZM56.5889 77.69041L56.5889 76.34486Q55.53237 77.897415 53.709007 77.897415Q52.90809 77.897415 52.20942 77.5869Q51.527786 77.27639 51.18697 76.81062Q50.846153 76.32761 50.709827 75.65483Q50.624626 75.189064 50.624626 74.20578L50.624626 68.53032L52.158295 68.53032L52.158295 73.602005Q52.158295 74.8268 52.2435 75.240814Q52.396866 75.86184 52.856968 76.20685Q53.33411 76.551865 54.015743 76.551865Q54.714413 76.551865 55.31084 76.20685Q55.924313 75.84459 56.162884 75.223564Q56.418495 74.60254 56.418495 73.4295L56.418495 68.53032L57.952164 68.53032L57.952164 77.69041L56.5889 77.69041ZM66.54925 74.74055L68.13404 74.930305Q67.75914 76.34486 66.736694 77.12113Q65.731285 77.897415 64.163536 77.897415Q62.16976 77.897415 61.010986 76.655365Q59.852215 75.41332 59.852215 73.18799Q59.852215 70.8764 61.028027 69.59986Q62.203842 68.32331 64.07833 68.32331Q65.88465 68.32331 67.02639 69.58261Q68.18516 70.82465 68.18516 73.08449Q68.18516 73.222496 68.18516 73.498505L61.437008 73.498505Q61.522213 75.016556 62.272007 75.82734Q63.03884 76.620865 64.163536 76.620865Q65.01557 76.620865 65.612 76.17235Q66.20843 75.72383 66.54925 74.74055ZM61.522213 72.221954L66.566284 72.221954Q66.46404 71.06616 65.9869 70.496895Q65.25414 69.59986 64.09537 69.59986Q63.03884 69.59986 62.306087 70.32439Q61.590374 71.03166 61.522213 72.221954ZM69.4547 74.947556L70.97133 74.70605Q71.090614 75.63758 71.670006 76.13785Q72.26643 76.620865 73.305916 76.620865Q74.36245 76.620865 74.87367 76.1896Q75.384895 75.74108 75.384895 75.154564Q75.384895 74.63705 74.94183 74.32653Q74.61806 74.11952 73.374084 73.80901Q71.68704 73.37775 71.02245 73.06724Q70.3749 72.73947 70.03409 72.187454Q69.71031 71.63544 69.71031 70.96266Q69.71031 70.34164 69.98296 69.82412Q70.255615 69.3066 70.73276 68.961586Q71.090614 68.68558 71.70409 68.51307Q72.334595 68.32331 73.033264 68.32331Q74.106834 68.32331 74.90775 68.63383Q75.70867 68.944336 76.083565 69.4791Q76.47551 69.99663 76.628876 70.89366L75.12928 71.10066Q75.02704 70.39339 74.53286 69.99663Q74.03867 69.59986 73.15255 69.59986Q72.09602 69.59986 71.63592 69.96213Q71.19286 70.30714 71.19286 70.7729Q71.19286 71.08341 71.38031 71.32492Q71.56776 71.56643 71.959694 71.73894Q72.198265 71.825195 73.32296 72.135704Q74.94183 72.56697 75.589386 72.86023Q76.23694 73.13624 76.594795 73.671005Q76.96969 74.20578 76.96969 74.999306Q76.96969 75.77558 76.50959 76.46561Q76.06653 77.13838 75.214485 77.5179Q74.379486 77.897415 73.32296 77.897415Q71.55072 77.897415 70.630516 77.15563Q69.71031 76.41386 69.4547 74.947556ZM82.13305 76.293106L82.354576 77.67316Q81.70703 77.81116 81.19581 77.81116Q80.36081 77.81116 79.9007 77.5524Q79.440605 77.27639 79.25316 76.84512Q79.065704 76.39661 79.065704 74.999306L79.065704 69.73787L77.94102 69.73787L77.94102 68.53032L79.065704 68.53032L79.065704 66.25324L80.59938 65.32171L80.59938 68.53032L82.13305 68.53032L82.13305 69.73787L80.59938 69.73787L80.59938 75.08556Q80.59938 75.75833 80.66754 75.94809Q80.75275 76.13785 80.94019 76.258606Q81.12764 76.36211 81.46846 76.36211Q81.72407 76.36211 82.13305 76.293106ZM88.71079 77.69041L88.71079 65.04569L97.74242 65.04569L97.74242 66.52925L90.363754 66.52925L90.363754 70.41064L97.28231 70.41064L97.28231 71.894196L90.363754 71.894196L90.363754 76.1896L98.03211 76.1896L98.03211 77.69041L88.71079 77.69041ZM100.12813 77.69041L100.12813 68.53032L101.50843 68.53032L101.50843 69.82412Q102.496796 68.32331 104.38832 68.32331Q105.20628 68.32331 105.88792 68.61658Q106.56955 68.909836 106.91036 69.39285Q107.251175 69.87587 107.387505 70.548645Q107.47271 70.97991 107.47271 72.049446L107.47271 77.69041L105.93903 77.69041L105.93903 72.118454Q105.93903 71.16967 105.75159 70.7039Q105.58118 70.22089 105.12108 69.94487Q104.67802 69.66886 104.06455 69.66886Q103.07619 69.66886 102.36047 70.30714Q101.6618 70.92816 101.6618 72.68772L101.6618 77.69041L100.12813 77.69041ZM115.72897 74.32653L117.245605 74.53354Q116.98999 76.10335 115.967545 77.00038Q114.962135 77.897415 113.47958 77.897415Q111.62214 77.897415 110.48041 76.672615Q109.35571 75.43057 109.35571 73.13624Q109.35571 71.65269 109.832855 70.548645Q110.32704 69.42735 111.31541 68.875336Q112.320816 68.32331 113.47958 68.32331Q114.962135 68.32331 115.89938 69.082344Q116.836624 69.82412 117.09223 71.22142L115.60969 71.44568Q115.38815 70.531395 114.84285 70.06563Q114.31458 69.59986 113.54775 69.59986Q112.38898 69.59986 111.65622 70.445145Q110.940506 71.27317 110.940506 73.10174Q110.940506 74.947556 111.63918 75.79284Q112.33785 76.620865 113.46255 76.620865Q114.36571 76.620865 114.962135 76.06885Q115.57561 75.49957 115.72897 74.32653ZM117.978355 73.10174Q117.978355 70.565895 119.3757 69.3411Q120.55151 68.32331 122.22151 68.32331Q124.096 68.32331 125.27181 69.56536Q126.46467 70.79015 126.46467 72.98098Q126.46467 74.74055 125.93641 75.75833Q125.40814 76.77612 124.40273 77.34539Q123.41437 77.897415 122.22151 77.897415Q120.32999 77.897415 119.154175 76.672615Q117.978355 75.43057 117.978355 73.10174ZM119.56315 73.10174Q119.56315 74.861305 120.31294 75.74108Q121.07978 76.620865 122.22151 76.620865Q123.36324 76.620865 124.113045 75.74108Q124.879875 74.861305 124.879875 73.04999Q124.879875 71.35943 124.113045 70.479645Q123.36324 69.59986 122.22151 69.59986Q121.07978 69.59986 120.31294 70.479645Q119.56315 71.34217 119.56315 73.10174ZM134.12451 77.69041L134.12451 76.534615Q133.27246 77.897415 131.60246 77.897415Q130.51186 77.897415 129.6087 77.29364Q128.70554 76.689865 128.1943 75.60308Q127.70013 74.51629 127.70013 73.11899Q127.70013 71.73894 128.14319 70.634895Q128.60329 69.51361 129.50645 68.927086Q130.4096 68.32331 131.5343 68.32331Q132.35226 68.32331 132.98277 68.66833Q133.63033 69.013336 134.02226 69.58261L134.02226 65.04569L135.55594 65.04569L135.55594 77.69041L134.12451 77.69041ZM129.28493 73.11899Q129.28493 74.878555 130.01767 75.75833Q130.75043 76.620865 131.7388 76.620865Q132.7442 76.620865 133.44287 75.79284Q134.15858 74.947556 134.15858 73.239746Q134.15858 71.35943 133.44287 70.479645Q132.72716 69.59986 131.67064 69.59986Q130.64818 69.59986 129.96655 70.445145Q129.28493 71.29042 129.28493 73.11899ZM137.96721 66.82251L137.96721 65.04569L139.50087 65.04569L139.50087 66.82251L137.96721 66.82251ZM137.96721 77.69041L137.96721 68.53032L139.50087 68.53032L139.50087 77.69041L137.96721 77.69041ZM141.84398 77.69041L141.84398 68.53032L143.22429 68.53032L143.22429 69.82412Q144.21266 68.32331 146.10419 68.32331Q146.92215 68.32331 147.60378 68.61658Q148.2854 68.909836 148.62622 69.39285Q148.96704 69.87587 149.10336 70.548645Q149.18857 70.97991 149.18857 72.049446L149.18857 77.69041L147.65489 77.69041L147.65489 72.118454Q147.65489 71.16967 147.46745 70.7039Q147.29704 70.22089 146.83694 69.94487Q146.39388 69.66886 145.78041 69.66886Q144.79204 69.66886 144.07632 70.30714Q143.37766 70.92816 143.37766 72.68772L143.37766 77.69041L141.84398 77.69041ZM151.25902 78.44943L152.75862 78.67369Q152.84381 79.38097 153.26984 79.691475Q153.84923 80.12274 154.83759 80.12274Q155.89412 80.12274 156.47351 79.691475Q157.05289 79.26021 157.25739 78.48393Q157.37666 78.018166 157.37666 76.482864Q156.37126 77.69041 154.87167 77.69041Q152.9972 77.69041 151.97473 76.32761Q150.95229 74.964806 150.95229 73.04999Q150.95229 71.73894 151.41238 70.634895Q151.88953 69.53086 152.77565 68.927086Q153.67882 68.32331 154.87167 68.32331Q156.47351 68.32331 157.513 69.63436L157.513 68.53032L158.92738 68.53032L158.92738 76.44836Q158.92738 78.58744 158.50136 79.48447Q158.07535 80.3815 157.13809 80.899025Q156.20085 81.41654 154.83759 81.41654Q153.21872 81.41654 152.2133 80.67477Q151.22495 79.93298 151.25902 78.44943ZM152.53708 72.94648Q152.53708 74.74055 153.23576 75.56858Q153.95146 76.39661 155.008 76.39661Q156.06453 76.39661 156.78024 75.58583Q157.49596 74.7578 157.49596 72.99824Q157.49596 71.30767 156.7632 70.462395Q156.03044 69.59986 154.99095 69.59986Q153.9685 69.59986 153.25279 70.445145Q152.53708 71.29042 152.53708 72.94648Z" fill-rule="nonzero"/><path fill="#ea9999" clip-path="url(#id_0)" d="M196.03227 46.91446L373.6215 46.91446L373.6215 95.527L196.03227 95.527Z" fill-rule="evenodd"/><path stroke="#000000" stroke-width="1.0973048747648677" stroke-linejoin="round" stroke-linecap="butt" clip-path="url(#id_0)" d="M196.03227 46.91446L373.6215 46.91446L373.6215 95.527L196.03227 95.527Z" fill-rule="evenodd"/><path fill="#000000" clip-path="url(#id_0)" d="M212.62503 67.20203L212.62503 54.557316L216.93636 54.557316Q218.38481 54.557316 219.15166 54.72982Q220.22522 54.98858 220.99207 55.644104Q221.98042 56.489384 222.45757 57.80043Q222.95175 59.11148 222.95175 60.80204Q222.95175 62.251095 222.61093 63.372383Q222.28716 64.476425 221.7589 65.20095Q221.24767 65.925476 220.6342 66.35674Q220.02074 66.77076 219.13461 66.99502Q218.26553 67.20203 217.14084 67.20203L212.62503 67.20203ZM214.27798 65.70122L216.9534 65.70122Q218.18033 65.70122 218.879 65.47696Q219.59471 65.23545 220.0037 64.821434Q220.60013 64.21767 220.9239 63.21713Q221.24767 62.21659 221.24767 60.78479Q221.24767 58.80097 220.60013 57.73143Q219.96962 56.661892 219.04941 56.29963Q218.38481 56.040867 216.90227 56.040867L214.27798 56.040867L214.27798 65.70122ZM225.03925 56.33413L225.03925 54.557316L226.57292 54.557316L226.57292 56.33413L225.03925 56.33413ZM225.03925 67.20203L225.03925 58.04194L226.57292 58.04194L226.57292 67.20203L225.03925 67.20203ZM228.30257 64.459175L229.81918 64.21767Q229.93848 65.1492 230.51787 65.64947Q231.11429 66.132484 232.15378 66.132484Q233.21031 66.132484 233.72153 65.70122Q234.23276 65.2527 234.23276 64.66618Q234.23276 64.14867 233.78969 63.83815Q233.46593 63.631145 232.22194 63.320633Q230.5349 62.889366 229.87032 62.578857Q229.22276 62.251095 228.88194 61.699074Q228.55817 61.147053 228.55817 60.474277Q228.55817 59.853256 228.83083 59.33574Q229.10347 58.81822 229.58061 58.473206Q229.93848 58.197197 230.55194 58.02469Q231.18245 57.834934 231.88113 57.834934Q232.9547 57.834934 233.75562 58.145443Q234.55653 58.455956 234.93143 58.990726Q235.32336 59.508244 235.47673 60.405277L233.97714 60.612286Q233.8749 59.90501 233.38072 59.508244Q232.88654 59.11148 232.00041 59.11148Q230.94388 59.11148 230.48378 59.473743Q230.04073 59.818756 230.04073 60.284523Q230.04073 60.59503 230.22816 60.836544Q230.41562 61.078053 230.80756 61.250557Q231.04613 61.33681 232.17082 61.647324Q233.78969 62.078587 234.43724 62.37185Q235.0848 62.647858 235.44266 63.18263Q235.81755 63.717396 235.81755 64.510925Q235.81755 65.2872 235.35745 65.97723Q234.91438 66.65 234.06235 67.02952Q233.22736 67.409035 232.17082 67.409035Q230.39857 67.409035 229.47838 66.66725Q228.55817 65.925476 228.30257 64.459175ZM237.64091 70.72115L237.64091 58.04194L239.03825 58.04194L239.03825 59.232235Q239.53244 58.52496 240.1459 58.179947Q240.77641 57.834934 241.66254 57.834934Q242.82132 57.834934 243.70744 58.438705Q244.59355 59.042477 245.03662 60.14652Q245.49672 61.233307 245.49672 62.544353Q245.49672 63.958904 244.98549 65.0802Q244.49132 66.201485 243.53703 66.80526Q242.5998 67.409035 241.54326 67.409035Q240.77641 67.409035 240.16295 67.08127Q239.56653 66.75351 239.17459 66.25324L239.17459 70.72115L237.64091 70.72115ZM239.02122 62.665108Q239.02122 64.441925 239.7199 65.2872Q240.43561 66.132484 241.44101 66.132484Q242.46346 66.132484 243.19621 65.2527Q243.92897 64.37292 243.92897 62.544353Q243.92897 60.78479 243.21326 59.92226Q242.49754 59.042477 241.50917 59.042477Q240.53784 59.042477 239.77101 59.97401Q239.02122 60.905544 239.02122 62.665108ZM253.24176 66.063484Q252.38972 66.80526 251.60585 67.11577Q250.82196 67.409035 249.91881 67.409035Q248.41922 67.409035 247.6183 66.66725Q246.81738 65.925476 246.81738 64.786934Q246.81738 64.11416 247.12411 63.56214Q247.43085 62.99287 247.90799 62.665108Q248.40218 62.320095 249.01564 62.14759Q249.47574 62.026836 250.3789 61.923332Q252.23636 61.699074 253.12247 61.38856Q253.12247 61.0608 253.12247 60.97455Q253.12247 60.025764 252.69646 59.646248Q252.10002 59.11148 250.94125 59.11148Q249.86768 59.11148 249.33942 59.508244Q248.8282 59.887756 248.58963 60.853794L247.09003 60.646786Q247.29453 59.68075 247.75462 59.076977Q248.23177 58.473206 249.11789 58.162697Q250.00401 57.834934 251.16278 57.834934Q252.32156 57.834934 253.03728 58.110943Q253.77002 58.38695 254.11084 58.80097Q254.45166 59.214985 254.58798 59.853256Q254.67319 60.25002 254.67319 61.285057L254.67319 63.355133Q254.67319 65.52871 254.75839 66.097984Q254.86064 66.66725 255.15033 67.20203L253.5485 67.20203Q253.30992 66.71901 253.24176 66.063484ZM253.12247 62.596107Q252.28748 62.94112 250.61748 63.18263Q249.6632 63.320633 249.27126 63.493137Q248.87932 63.665646 248.65779 64.01066Q248.4533 64.33842 248.4533 64.73518Q248.4533 65.35621 248.91339 65.77022Q249.39053 66.184235 250.27666 66.184235Q251.16278 66.184235 251.84442 65.804726Q252.54309 65.40796 252.86687 64.71793Q253.12247 64.20042 253.12247 63.16538L253.12247 62.596107ZM260.39038 65.804726L260.6119 67.18478Q259.96436 67.32278 259.45312 67.32278Q258.61813 67.32278 258.15802 67.06402Q257.69794 66.78801 257.51047 66.35674Q257.32303 65.908226 257.32303 64.510925L257.32303 59.249485L256.19833 59.249485L256.19833 58.04194L257.32303 58.04194L257.32303 55.76486L258.8567 54.833324L258.8567 58.04194L260.39038 58.04194L260.39038 59.249485L258.8567 59.249485L258.8567 64.597176Q258.8567 65.26995 258.92487 65.45971Q259.01007 65.64947 259.1975 65.77022Q259.38498 65.873726 259.72577 65.873726Q259.98138 65.873726 260.39038 65.804726ZM267.7946 63.83815L269.31122 64.04516Q269.0556 65.61497 268.03317 66.512Q267.02777 67.409035 265.54523 67.409035Q263.68777 67.409035 262.54602 66.184235Q261.42133 64.94219 261.42133 62.647858Q261.42133 61.164303 261.89847 60.060265Q262.39267 58.938972 263.38104 58.38695Q264.38644 57.834934 265.54523 57.834934Q267.02777 57.834934 267.965 58.59396Q268.90225 59.33574 269.15787 60.73304L267.67532 60.9573Q267.45377 60.043015 266.90848 59.577248Q266.38022 59.11148 265.61337 59.11148Q264.4546 59.11148 263.72183 59.95676Q263.00613 60.78479 263.00613 62.613358Q263.00613 64.459175 263.7048 65.30445Q264.40347 66.132484 265.52817 66.132484Q266.43134 66.132484 267.02777 65.58047Q267.64124 65.01119 267.7946 63.83815ZM270.62338 67.20203L270.62338 54.557316L272.15704 54.557316L272.15704 59.09423Q273.23062 57.834934 274.86652 57.834934Q275.87192 57.834934 276.60468 58.231697Q277.3545 58.628464 277.66122 59.33574Q277.985 60.043015 277.985 61.38856L277.985 67.20203L276.45132 67.20203L276.45132 61.38856Q276.45132 60.23277 275.95712 59.698Q275.46295 59.16323 274.54276 59.16323Q273.8611 59.16323 273.26468 59.525494Q272.66827 59.887756 272.41266 60.50878Q272.15704 61.112553 272.15704 62.18209L272.15704 67.20203L270.62338 67.20203ZM288.23502 67.20203L288.23502 56.040867L284.11115 56.040867L284.11115 54.557316L294.01184 54.557316L294.01184 56.040867L289.88797 56.040867L289.88797 67.20203L288.23502 67.20203ZM293.00644 62.613358Q293.00644 60.077515 294.4038 58.85272Q295.57962 57.834934 297.2496 57.834934Q299.12408 57.834934 300.2999 59.076977Q301.49277 60.301773 301.49277 62.492603Q301.49277 64.25217 300.9645 65.26995Q300.43625 66.28774 299.43082 66.85701Q298.44247 67.409035 297.2496 67.409035Q295.3581 67.409035 294.18225 66.184235Q293.00644 64.94219 293.00644 62.613358ZM294.59125 62.613358Q294.59125 64.37292 295.34103 65.2527Q296.10788 66.132484 297.2496 66.132484Q298.39133 66.132484 299.14114 65.2527Q299.90796 64.37292 299.90796 62.561604Q299.90796 60.871044 299.14114 59.99126Q298.39133 59.11148 297.2496 59.11148Q296.10788 59.11148 295.34103 59.99126Q294.59125 60.853794 294.59125 62.613358ZM307.76376 63.130875L309.33154 62.99287Q309.43378 63.941654 309.84274 64.562675Q310.25174 65.16645 311.10376 65.54597Q311.9558 65.908226 313.01233 65.908226Q313.9666 65.908226 314.68234 65.63222Q315.4151 65.33896 315.75592 64.85594Q316.11377 64.35567 316.11377 63.76915Q316.11377 63.16538 315.77295 62.73411Q315.43213 62.285595 314.64825 61.975082Q314.15408 61.785328 312.43295 61.37131Q310.71182 60.940044 310.01315 60.57778Q309.12704 60.094765 308.684 59.40474Q308.2409 58.697464 308.2409 57.817684Q308.2409 56.868896 308.7692 56.040867Q309.31448 55.195587 310.33694 54.76432Q311.37643 54.333057 312.63745 54.333057Q314.0348 54.333057 315.0913 54.798824Q316.14786 55.247337 316.7102 56.12712Q317.28958 57.006905 317.3407 58.110943L315.75592 58.231697Q315.61957 57.041405 314.88684 56.437634Q314.15408 55.81661 312.7056 55.81661Q311.20602 55.81661 310.52438 56.36863Q309.84274 56.92065 309.84274 57.71418Q309.84274 58.38695 310.3199 58.83547Q310.79703 59.266735 312.80786 59.732502Q314.8357 60.19827 315.5855 60.54328Q316.67612 61.04355 317.18735 61.83708Q317.7156 62.613358 317.7156 63.631145Q317.7156 64.63168 317.1362 65.52871Q316.57385 66.42574 315.5003 66.92601Q314.42673 67.426285 313.09753 67.426285Q311.39346 67.426285 310.25174 66.92601Q309.11 66.40849 308.4454 65.40796Q307.79785 64.407425 307.76376 63.130875ZM325.96335 64.25217L327.54813 64.441925Q327.17325 65.856476 326.1508 66.63275Q325.1454 67.409035 323.57764 67.409035Q321.58386 67.409035 320.42508 66.166985Q319.2663 64.92494 319.2663 62.69961Q319.2663 60.388027 320.44214 59.11148Q321.61795 57.834934 323.49243 57.834934Q325.29874 57.834934 326.4405 59.09423Q327.59924 60.336273 327.59924 62.596107Q327.59924 62.73411 327.59924 63.01012L320.8511 63.01012Q320.9363 64.528175 321.6861 65.33896Q322.45294 66.132484 323.57764 66.132484Q324.42966 66.132484 325.0261 65.68397Q325.62253 65.23545 325.96335 64.25217ZM320.9363 61.733574L325.98038 61.733574Q325.87814 60.57778 325.401 60.00851Q324.66824 59.11148 323.50946 59.11148Q322.45294 59.11148 321.72018 59.836006Q321.0045 60.54328 320.9363 61.733574ZM329.4652 67.20203L329.4652 58.04194L330.84552 58.04194L330.84552 59.42199Q331.37378 58.455956 331.81686 58.145443Q332.25992 57.834934 332.8052 57.834934Q333.57205 57.834934 334.373 58.3352L333.8447 59.767002Q333.28235 59.439243 332.72 59.439243Q332.22583 59.439243 331.81686 59.749752Q331.42493 60.043015 331.25452 60.59503Q330.9989 61.423065 330.9989 62.40635L330.9989 67.20203L329.4652 67.20203ZM337.7982 67.20203L334.35593 58.04194L335.97482 58.04194L337.91748 63.52764Q338.24124 64.407425 338.49686 65.37346Q338.70135 64.64893 339.07623 63.631145L341.08707 58.04194L342.65482 58.04194L339.2296 67.20203L337.7982 67.20203ZM350.2039 64.25217L351.78867 64.441925Q351.4138 65.856476 350.39133 66.63275Q349.38593 67.409035 347.81818 67.409035Q345.8244 67.409035 344.66562 66.166985Q343.50684 64.92494 343.50684 62.69961Q343.50684 60.388027 344.68265 59.11148Q345.8585 57.834934 347.73297 57.834934Q349.53928 57.834934 350.68103 59.09423Q351.83978 60.336273 351.83978 62.596107Q351.83978 62.73411 351.83978 63.01012L345.09164 63.01012Q345.17685 64.528175 345.92664 65.33896Q346.69348 66.132484 347.81818 66.132484Q348.6702 66.132484 349.26663 65.68397Q349.86307 65.23545 350.2039 64.25217ZM345.17685 61.733574L350.22092 61.733574Q350.11868 60.57778 349.64154 60.00851Q348.90878 59.11148 347.75 59.11148Q346.69348 59.11148 345.96072 59.836006Q345.245 60.54328 345.17685 61.733574ZM353.70575 67.20203L353.70575 58.04194L355.08606 58.04194L355.08606 59.42199Q355.61432 58.455956 356.0574 58.145443Q356.50046 57.834934 357.04575 57.834934Q357.8126 57.834934 358.6135 58.3352L358.08524 59.767002Q357.5229 59.439243 356.96054 59.439243Q356.46637 59.439243 356.0574 59.749752Q355.66547 60.043015 355.49506 60.59503Q355.23944 61.423065 355.23944 62.40635L355.23944 67.20203L353.70575 67.20203Z" fill-rule="nonzero"/><path fill="#000000" clip-path="url(#id_0)" d="M223.93585 91.90492Q222.65779 90.28336 221.77168 88.10979Q220.9026 85.91895 220.9026 83.59012Q220.9026 81.53729 221.56718 79.656975Q222.33403 77.4834 223.93585 75.309814L225.02647 75.309814Q224.00401 77.10388 223.66321 77.880165Q223.15198 79.07046 222.84525 80.36425Q222.4874 81.96856 222.4874 83.60737Q222.4874 87.74752 225.02647 91.90492L223.93585 91.90492ZM226.20229 85.435936L227.71892 85.19443Q227.8382 86.12596 228.41759 86.62623Q229.014 87.109245 230.0535 87.109245Q231.11003 87.109245 231.62126 86.67798Q232.13248 86.22946 232.13248 85.642944Q232.13248 85.12543 231.68942 84.81491Q231.36565 84.6079 230.12166 84.29739Q228.43463 83.86613 227.77003 83.55562Q227.12248 83.22786 226.78166 82.675835Q226.4579 82.12382 226.4579 81.45104Q226.4579 80.83002 226.73055 80.3125Q227.0032 79.79498 227.48035 79.44997Q227.8382 79.17396 228.45166 79.00145Q229.08218 78.8117 229.78085 78.8117Q230.85442 78.8117 231.65533 79.12221Q232.45625 79.43272 232.83115 79.96749Q233.22308 80.48501 233.37645 81.38204L231.87686 81.58904Q231.77463 80.88177 231.28044 80.48501Q230.78625 80.08824 229.90013 80.08824Q228.84361 80.08824 228.3835 80.45051Q227.94044 80.79552 227.94044 81.261284Q227.94044 81.57179 228.1279 81.8133Q228.31534 82.05481 228.70728 82.22732Q228.94585 82.313576 230.07054 82.624084Q231.68942 83.05535 232.33698 83.34861Q232.98451 83.62462 233.34238 84.15939Q233.71727 84.69416 233.71727 85.487686Q233.71727 86.26397 233.25717 86.953995Q232.81412 87.62676 231.96207 88.00628Q231.12708 88.385796 230.07054 88.385796Q228.2983 88.385796 227.3781 87.64402Q226.4579 86.90224 226.20229 85.435936ZM241.72644 85.22893L243.31123 85.418686Q242.93634 86.83324 241.9139 87.60951Q240.9085 88.385796 239.34073 88.385796Q237.34695 88.385796 236.18819 87.143745Q235.02942 85.9017 235.02942 83.67637Q235.02942 81.36479 236.20523 80.08824Q237.38104 78.8117 239.25552 78.8117Q241.06186 78.8117 242.20358 80.07099Q243.36237 81.313034 243.36237 83.57287Q243.36237 83.71088 243.36237 83.986885L236.61421 83.986885Q236.69942 85.50494 237.4492 86.31572Q238.21603 87.109245 239.34073 87.109245Q240.19278 87.109245 240.7892 86.66073Q241.38564 86.21221 241.72644 85.22893ZM236.69942 82.710335L241.74348 82.710335Q241.64124 81.55454 241.1641 80.985275Q240.43135 80.08824 239.27257 80.08824Q238.21603 80.08824 237.48329 80.81277Q236.76758 81.52004 236.69942 82.710335ZM245.24536 88.17879L245.24536 79.0187L246.62567 79.0187L246.62567 80.3125Q247.61404 78.8117 249.50557 78.8117Q250.32352 78.8117 251.00516 79.10496Q251.68678 79.39822 252.0276 79.88123Q252.36842 80.36425 252.50475 81.037025Q252.58995 81.46829 252.58995 82.537834L252.58995 88.17879L251.05627 88.17879L251.05627 82.606834Q251.05627 81.65805 250.86884 81.19228Q250.69843 80.70927 250.23833 80.43326Q249.79526 80.15724 249.1818 80.15724Q248.19342 80.15724 247.4777 80.79552Q246.77904 81.41654 246.77904 83.1761L246.77904 88.17879L245.24536 88.17879ZM260.81213 88.17879L260.81213 87.022995Q259.96008 88.385796 258.2901 88.385796Q257.1995 88.385796 256.29633 87.78202Q255.39316 87.17825 254.88194 86.09146Q254.38776 85.00467 254.38776 83.60737Q254.38776 82.22732 254.83081 81.123276Q255.29091 80.00199 256.1941 79.41547Q257.09723 78.8117 258.22192 78.8117Q259.0399 78.8117 259.6704 79.15671Q260.31796 79.501724 260.7099 80.07099L260.7099 75.53407L262.24356 75.53407L262.24356 88.17879L260.81213 88.17879ZM255.97255 83.60737Q255.97255 85.366936 256.7053 86.24672Q257.43805 87.109245 258.42642 87.109245Q259.43182 87.109245 260.1305 86.28122Q260.84622 85.435936 260.84622 83.72813Q260.84622 81.84781 260.1305 80.968025Q259.4148 80.08824 258.35825 80.08824Q257.33582 80.08824 256.65417 80.933525Q255.97255 81.7788 255.97255 83.60737ZM272.84293 86.78149L273.06445 88.16154Q272.4169 88.29954 271.9057 88.29954Q271.07068 88.29954 270.6106 88.04078Q270.15048 87.76477 269.96304 87.3335Q269.77557 86.88499 269.77557 85.487686L269.77557 80.22625L268.6509 80.22625L268.6509 79.0187L269.77557 79.0187L269.77557 76.74162L271.30927 75.81009L271.30927 79.0187L272.84293 79.0187L272.84293 80.22625L271.30927 80.22625L271.30927 85.573944Q271.30927 86.24672 271.3774 86.43647Q271.46262 86.62623 271.6501 86.74699Q271.83752 86.85049 272.17834 86.85049Q272.43396 86.85049 272.84293 86.78149ZM273.77167 83.59012Q273.77167 81.054276 275.169 79.82948Q276.34482 78.8117 278.0148 78.8117Q279.8893 78.8117 281.06512 80.05374Q282.25797 81.278534 282.25797 83.46937Q282.25797 85.22893 281.7297 86.24672Q281.20145 87.2645 280.19604 87.83377Q279.20767 88.385796 278.0148 88.385796Q276.1233 88.385796 274.94748 87.160995Q273.77167 85.91895 273.77167 83.59012ZM275.35645 83.59012Q275.35645 85.349686 276.10623 86.22946Q276.87308 87.109245 278.0148 87.109245Q279.15656 87.109245 279.90634 86.22946Q280.6732 85.349686 280.6732 83.53837Q280.6732 81.84781 279.90634 80.968025Q279.15656 80.08824 278.0148 80.08824Q276.87308 80.08824 276.10623 80.968025Q275.35645 81.83056 275.35645 83.59012ZM288.88684 88.17879L288.88684 79.0187L290.26715 79.0187L290.26715 80.39875Q290.7954 79.43272 291.23846 79.12221Q291.68152 78.8117 292.22684 78.8117Q292.99368 78.8117 293.7946 79.311966L293.26633 80.74377Q292.70398 80.416 292.14163 80.416Q291.64746 80.416 291.23846 80.72652Q290.84653 81.019775 290.67612 81.57179Q290.4205 82.399826 290.4205 83.38311L290.4205 88.17879L288.88684 88.17879ZM300.9006 85.22893L302.48538 85.418686Q302.1105 86.83324 301.08804 87.60951Q300.08264 88.385796 298.5149 88.385796Q296.52112 88.385796 295.36234 87.143745Q294.20355 85.9017 294.20355 83.67637Q294.20355 81.36479 295.3794 80.08824Q296.5552 78.8117 298.4297 78.8117Q300.236 78.8117 301.37775 80.07099Q302.5365 81.313034 302.5365 83.57287Q302.5365 83.71088 302.5365 83.986885L295.78836 83.986885Q295.87357 85.50494 296.62335 86.31572Q297.3902 87.109245 298.5149 87.109245Q299.3669 87.109245 299.96335 86.66073Q300.55978 86.21221 300.9006 85.22893ZM295.87357 82.710335L300.91763 82.710335Q300.8154 81.55454 300.33826 80.985275Q299.6055 80.08824 298.44672 80.08824Q297.3902 80.08824 296.65744 80.81277Q295.9417 81.52004 295.87357 82.710335ZM310.31564 84.81491L311.83228 85.02192Q311.57666 86.59173 310.5542 87.48876Q309.5488 88.385796 308.06625 88.385796Q306.2088 88.385796 305.06708 87.160995Q303.94238 85.91895 303.94238 83.62462Q303.94238 82.14107 304.41953 81.037025Q304.9137 79.91573 305.90207 79.363716Q306.90747 78.8117 308.06625 78.8117Q309.5488 78.8117 310.48605 79.570724Q311.42328 80.3125 311.6789 81.7098L310.19635 81.93406Q309.97482 81.019775 309.4295 80.55401Q308.90125 80.08824 308.1344 80.08824Q306.97565 80.08824 306.2429 80.933525Q305.52716 81.76155 305.52716 83.59012Q305.52716 85.435936 306.22583 86.28122Q306.92453 87.109245 308.0492 87.109245Q308.95236 87.109245 309.5488 86.55723Q310.16226 85.98795 310.31564 84.81491ZM319.3302 85.22893L320.915 85.418686Q320.5401 86.83324 319.51767 87.60951Q318.51227 88.385796 316.9445 88.385796Q314.95074 88.385796 313.79196 87.143745Q312.63318 85.9017 312.63318 83.67637Q312.63318 81.36479 313.809 80.08824Q314.9848 78.8117 316.85928 78.8117Q318.66562 78.8117 319.80734 80.07099Q320.96613 81.313034 320.96613 83.57287Q320.96613 83.71088 320.96613 83.986885L314.218 83.986885Q314.3032 85.50494 315.05298 86.31572Q315.81982 87.109245 316.9445 87.109245Q317.79654 87.109245 318.39297 86.66073Q318.9894 86.21221 319.3302 85.22893ZM314.3032 82.710335L319.34726 82.710335Q319.245 81.55454 318.76785 80.985275Q318.03513 80.08824 316.87634 80.08824Q315.81982 80.08824 315.08707 80.81277Q314.37134 81.52004 314.3032 82.710335ZM322.84915 77.31089L322.84915 75.53407L324.3828 75.53407L324.3828 77.31089L322.84915 77.31089ZM322.84915 88.17879L322.84915 79.0187L324.3828 79.0187L324.3828 88.17879L322.84915 88.17879ZM329.23093 88.17879L325.78867 79.0187L327.40756 79.0187L329.3502 84.5044Q329.67398 85.384186 329.9296 86.35022Q330.13406 85.625694 330.50897 84.6079L332.51978 79.0187L334.08752 79.0187L330.66235 88.17879L329.23093 88.17879ZM341.63663 85.22893L343.2214 85.418686Q342.84653 86.83324 341.82407 87.60951Q340.81866 88.385796 339.25092 88.385796Q337.25714 88.385796 336.09836 87.143745Q334.93958 85.9017 334.93958 83.67637Q334.93958 81.36479 336.1154 80.08824Q337.29123 78.8117 339.1657 78.8117Q340.97202 78.8117 342.11377 80.07099Q343.27252 81.313034 343.27252 83.57287Q343.27252 83.71088 343.27252 83.986885L336.52438 83.986885Q336.6096 85.50494 337.35938 86.31572Q338.12622 87.109245 339.25092 87.109245Q340.10294 87.109245 340.69937 86.66073Q341.2958 86.21221 341.63663 85.22893ZM336.6096 82.710335L341.65366 82.710335Q341.55142 81.55454 341.07428 80.985275Q340.34152 80.08824 339.18274 80.08824Q338.12622 80.08824 337.39346 80.81277Q336.67773 81.52004 336.6096 82.710335ZM346.16095 91.90492L345.05328 91.90492Q347.6094 87.74752 347.6094 83.60737Q347.6094 81.98581 347.23453 80.3815Q346.94482 79.08771 346.4336 77.897415Q346.09277 77.12113 345.05328 75.309814L346.16095 75.309814Q347.7628 77.4834 348.52963 79.656975Q349.17715 81.53729 349.17715 83.59012Q349.17715 85.91895 348.29105 88.10979Q347.42197 90.28336 346.16095 91.90492Z" fill-rule="nonzero"/><path fill="#666666" clip-path="url(#id_0)" d="M173.67905 71.78869L189.34262 71.78869L189.34262 68.39833L196.04085 75.17905L189.34262 81.95976L189.34262 78.569405L173.67905 78.569405Z" fill-rule="evenodd"/><path stroke="#000000" stroke-width="1.0973048747648677" stroke-linejoin="round" stroke-linecap="butt" clip-path="url(#id_0)" d="M173.67905 71.78869L189.34262 71.78869L189.34262 68.39833L196.04085 75.17905L189.34262 81.95976L189.34262 78.569405L173.67905 78.569405Z" fill-rule="evenodd"/></svg>